<svg width="22" height="20" viewBox="0 0 22 20" fill="none" xmlns="http://www.w3.org/2000/svg">
<path d="M13.7037 17.2253C13.87 17.2253 14.0362 17.1669 14.1675 17.0419C14.4212 16.8003 14.4212 16.4003 14.1675 16.1586L8.46248 10.7253C8.04248 10.3253 8.04248 9.67526 8.46248 9.27526L14.1675 3.84193C14.4212 3.60026 14.4212 3.20026 14.1675 2.95859C13.9137 2.71693 13.4937 2.71693 13.24 2.95859L7.53498 8.39193C7.08873 8.81693 6.83498 9.39193 6.83498 10.0003C6.83498 10.6086 7.07998 11.1836 7.53498 11.6086L13.24 17.0419C13.3712 17.1586 13.5375 17.2253 13.7037 17.2253Z" fill="#0C0D0D"/>
</svg>
