<svg width="276" height="59" viewBox="0 0 276 59" fill="none" xmlns="http://www.w3.org/2000/svg">
<path d="M13.0791 10.3931V11.4981H3.9661C3.1601 11.4981 2.50576 11.4331 2.0031 11.3031C1.5091 11.1731 1.1321 10.9478 0.872098 10.6271C0.620764 10.2978 0.495098 9.83847 0.495098 9.24914C0.495098 8.88514 0.534098 8.43447 0.612098 7.89714C0.698764 7.3598 0.798431 6.8658 0.911098 6.41514L1.8861 6.46714L1.7821 7.24714C1.66076 8.07914 1.6001 8.65547 1.6001 8.97614C1.6001 9.47881 1.76476 9.84281 2.0941 10.0681C2.4321 10.2848 3.03443 10.3931 3.9011 10.3931H6.7091C6.50976 9.9338 6.4101 9.24047 6.4101 8.31314C6.4101 7.45514 6.50976 6.79214 6.7091 6.32414C6.9171 5.84747 7.25076 5.50947 7.7101 5.31014C8.16943 5.1108 8.8021 5.01114 9.6081 5.01114C10.2928 5.01114 10.9038 5.04147 11.4411 5.10214L11.9091 5.15414V10.3931H13.0791ZM7.6321 8.40414C7.6321 8.96747 7.6711 9.39214 7.7491 9.67814C7.8271 9.96414 7.9311 10.2025 8.0611 10.3931H10.6741V6.14214C10.1281 6.0988 9.74676 6.07714 9.5301 6.07714C9.0101 6.07714 8.61576 6.1508 8.3471 6.29814C8.07843 6.44547 7.8921 6.6838 7.7881 7.01314C7.6841 7.34247 7.6321 7.80614 7.6321 8.40414ZM9.0881 2.51514H10.2711V3.78914H9.0881V2.51514ZM24.2437 10.3931V11.4981H20.5517C20.0143 11.4981 19.5333 11.3248 19.1087 10.9781C18.788 11.3248 18.3677 11.4981 17.8477 11.4981H13.0767V10.3931H15.1437V5.64814H16.3787V10.3931H17.4447C17.826 10.3931 18.1033 10.2328 18.2767 9.91214C18.4587 9.59147 18.5497 9.18847 18.5497 8.70314V5.64814H19.7847V8.69014C19.7847 9.18414 19.7283 9.62614 19.6157 10.0161C19.737 10.1115 19.8843 10.1981 20.0577 10.2761C20.231 10.3541 20.4043 10.3931 20.5777 10.3931H21.8257V7.88414C21.8257 7.27747 21.7563 6.32847 21.6177 5.03714L22.6577 4.99814C22.7617 5.50947 22.8527 6.0468 22.9307 6.61014C23.0173 7.1648 23.0607 7.58947 23.0607 7.88414V10.3931H24.2437ZM18.3677 0.903138H19.4337V2.08614H18.3677V0.903138ZM17.4837 2.55414H18.5887V3.78914H17.4837V2.55414ZM19.2257 2.55414H20.3177V3.78914H19.2257V2.55414ZM33.1145 10.3931V11.4981H24.2485V10.3931H30.0725V8.58614C30.0725 8.10081 29.9729 7.68047 29.7735 7.32514C29.5742 6.9698 29.2709 6.7878 28.8635 6.77914H25.3535L24.6125 5.79114L25.3275 4.40014C25.4922 4.07947 25.7262 3.7068 26.0295 3.28214C26.3415 2.8488 26.6492 2.45014 26.9525 2.08614L27.8365 2.59314C27.2559 3.4598 26.7965 4.21814 26.4585 4.86814L26.0295 5.67414H29.0065C29.8299 5.67414 30.4149 5.96447 30.7615 6.54514C31.1169 7.1258 31.2945 7.81047 31.2945 8.59914V10.3931H33.1145ZM38.2189 10.3931V11.4981H33.1099V10.3931H35.0469V4.99814H36.2819V10.3931H38.2189ZM34.2409 2.52814H35.3459V3.78914H34.2409V2.52814ZM35.9829 2.52814H37.0749V3.78914H35.9829V2.52814ZM47.7944 4.99814C47.8984 5.50947 47.9894 6.0468 48.0674 6.61014C48.154 7.1648 48.1974 7.58947 48.1974 7.88414V11.4981H45.6884C45.151 11.4981 44.67 11.3248 44.2454 10.9781C43.9247 11.3248 43.5044 11.4981 42.9844 11.4981H38.2134V10.3931H40.2804V5.64814H41.5154V10.3931H42.5814C42.9627 10.3931 43.24 10.2328 43.4134 9.91214C43.5954 9.59147 43.6864 9.18847 43.6864 8.70314V5.64814H44.9214V8.69014C44.9214 9.18414 44.865 9.62614 44.7524 10.0161C44.8737 10.1115 45.021 10.1981 45.1944 10.2761C45.3677 10.3541 45.541 10.3931 45.7144 10.3931H46.9624V7.88414C46.9624 7.27747 46.893 6.32847 46.7544 5.03714L47.7944 4.99814ZM50.1989 2.24214H51.4339V11.4981H50.1989V2.24214ZM56.2983 9.80814H57.6113V11.4981H56.2983V9.80814ZM60.7383 3.64614V6.87014H64.2613V7.96214H60.7383V11.4981H59.4903V2.55414H64.9503V3.64614H60.7383ZM65.9356 4.99814H67.1316V5.81714C67.9029 5.32314 68.6656 5.00247 69.4196 4.85514V6.07714C69.0816 6.14647 68.7306 6.2418 68.3666 6.36314C68.0026 6.48447 67.6992 6.60147 67.4566 6.71414L67.1446 6.85714V11.4981H65.9356V4.99814ZM72.5853 11.6411C72.0219 11.6411 71.5886 11.5371 71.2853 11.3291C70.9819 11.1125 70.7696 10.7745 70.6483 10.3151C70.5269 9.84714 70.4663 9.2058 70.4663 8.39114V4.99814H71.6753V8.39114C71.6753 8.98914 71.7056 9.43981 71.7663 9.74314C71.8269 10.0378 71.9396 10.2458 72.1043 10.3671C72.2776 10.4885 72.5376 10.5491 72.8843 10.5491C73.1703 10.5491 73.4389 10.5145 73.6903 10.4451C73.9503 10.3758 74.2276 10.2761 74.5223 10.1461V4.99814H75.7313V11.4981H74.5223V11.0691C74.1583 11.2771 73.8289 11.4245 73.5343 11.5111C73.2483 11.5978 72.9319 11.6411 72.5853 11.6411ZM77.5264 4.99814H78.7354V11.4981H77.5264V4.99814ZM77.5264 2.41114H78.7224V3.72414H77.5264V2.41114ZM82.4634 11.6411C82.0041 11.6411 81.6444 11.5675 81.3844 11.4201C81.1331 11.2728 80.9511 11.0258 80.8384 10.6791C80.7258 10.3325 80.6694 9.85147 80.6694 9.23614V6.03814H79.7984V4.99814H80.6694V3.06114H81.8784V4.99814H83.7894V6.03814H81.8784V9.01514C81.8784 9.42247 81.8914 9.73014 81.9174 9.93814C81.9521 10.1375 82.0258 10.2935 82.1384 10.4061C82.2511 10.5101 82.4331 10.5621 82.6844 10.5621L83.7894 10.4971L83.8674 11.4851C83.2608 11.5891 82.7928 11.6411 82.4634 11.6411ZM91.8035 2.55414V11.4981H90.5685V7.55914H86.3955V11.4981H85.1475V2.55414H86.3955V6.45414H90.5685V2.55414H91.8035ZM97.0657 11.6411C95.9824 11.6411 95.1764 11.4071 94.6477 10.9391C94.119 10.4625 93.8547 9.71281 93.8547 8.69014V2.55414H95.1027V8.71614C95.1027 9.92947 95.7484 10.5361 97.0397 10.5361C97.7157 10.5361 98.2184 10.3888 98.5477 10.0941C98.8857 9.79947 99.0547 9.34014 99.0547 8.71614V2.55414H100.29V8.69014C100.29 9.71281 100.021 10.4625 99.4837 10.9391C98.955 11.4071 98.149 11.6411 97.0657 11.6411ZM102.35 2.55414H105.678C106.596 2.55414 107.272 2.74047 107.706 3.11314C108.148 3.4858 108.369 4.07947 108.369 4.89414C108.369 5.40547 108.282 5.81714 108.109 6.12914C107.935 6.43247 107.658 6.6838 107.277 6.88314C107.727 7.05647 108.061 7.31214 108.278 7.65014C108.503 7.98814 108.616 8.43881 108.616 9.00214C108.616 10.6661 107.68 11.4981 105.808 11.4981H102.35V2.55414ZM105.678 6.42814C106.163 6.42814 106.523 6.31114 106.757 6.07714C106.991 5.84314 107.108 5.4878 107.108 5.01114C107.108 4.53447 106.986 4.1878 106.744 3.97114C106.501 3.7458 106.124 3.63314 105.613 3.63314H103.598V6.42814H105.678ZM105.756 10.4061C106.284 10.4061 106.683 10.2978 106.952 10.0811C107.22 9.86447 107.355 9.50047 107.355 8.98914C107.355 8.00114 106.804 7.50714 105.704 7.50714H103.598V10.4061H105.756ZM115.609 11.0691C115.133 11.1038 114.773 11.2468 114.53 11.4981C114.288 11.7581 114.166 12.1525 114.166 12.6811C114.166 13.9031 114.816 14.5141 116.116 14.5141C116.723 14.5141 117.533 14.4231 118.547 14.2411L118.69 15.2031L118.248 15.2941C117.321 15.5021 116.532 15.6061 115.882 15.6061C114.912 15.6061 114.171 15.3461 113.659 14.8261C113.148 14.3061 112.892 13.5651 112.892 12.6031C112.892 11.8751 113.044 11.3031 113.347 10.8871C113.651 10.4711 114.101 10.1938 114.699 10.0551C114.101 9.56114 113.616 9.01514 113.243 8.41714C112.879 7.81047 112.689 7.26014 112.671 6.76614L112.645 5.77814C113.165 5.49214 113.707 5.2668 114.27 5.10214C114.842 4.93747 115.406 4.85514 115.96 4.85514C116.515 4.85514 117.078 4.93747 117.65 5.10214C118.222 5.2668 118.773 5.49214 119.301 5.77814L119.262 6.76614C119.245 7.27747 119.046 7.84514 118.664 8.46914C118.283 9.08447 117.776 9.64347 117.143 10.1461C117.62 10.3108 118.079 10.3931 118.521 10.3931H120.003V11.4981H118.521C118.097 11.4981 117.659 11.4461 117.208 11.3421C116.766 11.2381 116.355 11.0951 115.973 10.9131L115.609 11.0691ZM113.88 6.40214C113.88 7.00014 114.067 7.5808 114.439 8.14414C114.812 8.70747 115.323 9.19281 115.973 9.60014C116.632 9.18414 117.143 8.6988 117.507 8.14414C117.88 7.5808 118.071 7.00014 118.079 6.40214C117.265 6.11614 116.563 5.97314 115.973 5.97314C115.41 5.97314 114.712 6.11614 113.88 6.40214ZM124.611 4.86814C125.738 4.86814 126.544 5.13247 127.029 5.66114C127.523 6.1898 127.77 7.05214 127.77 8.24814V11.4981H120.009V10.3931H122.115C121.994 9.68247 121.933 8.9848 121.933 8.30014C121.933 7.75414 121.972 7.2038 122.05 6.64914C122.128 6.0858 122.215 5.6178 122.31 5.24514C122.544 5.1498 122.865 5.06314 123.272 4.98514C123.688 4.90714 124.135 4.86814 124.611 4.86814ZM123.155 8.30014C123.155 8.69014 123.173 9.08014 123.207 9.47014C123.251 9.85147 123.294 10.1591 123.337 10.3931H126.535V8.22214C126.535 7.4248 126.366 6.8528 126.028 6.50614C125.699 6.1508 125.17 5.97314 124.442 5.97314C124.07 5.97314 123.706 6.01214 123.35 6.09014C123.22 6.88747 123.155 7.62414 123.155 8.30014ZM135.012 4.86814C135.393 4.86814 135.918 4.88547 136.585 4.92014C137.252 4.9548 137.738 4.98947 138.041 5.02414V11.4981H135.077C134.28 11.4981 133.651 11.3941 133.192 11.1861C132.733 10.9781 132.399 10.6358 132.191 10.1591C131.983 9.68247 131.879 9.0238 131.879 8.18314C131.879 7.3598 131.979 6.7098 132.178 6.23314C132.377 5.7478 132.702 5.40114 133.153 5.19314C133.604 4.97647 134.223 4.86814 135.012 4.86814ZM133.114 8.17014C133.114 8.73347 133.179 9.17547 133.309 9.49614C133.448 9.8168 133.669 10.0465 133.972 10.1851C134.275 10.3238 134.691 10.3931 135.22 10.3931H136.819V6.06414C136.126 6.01214 135.575 5.98614 135.168 5.98614C134.657 5.98614 134.249 6.0598 133.946 6.20714C133.651 6.3458 133.439 6.57547 133.309 6.89614C133.179 7.20814 133.114 7.6328 133.114 8.17014ZM133.751 2.52814H134.856V3.78914H133.751V2.52814ZM135.493 2.52814H136.585V3.78914H135.493V2.52814ZM146.014 10.3931V11.4981H139.306V10.3931H143.518V9.19714C143.518 7.96647 143.279 7.09981 142.803 6.59714C142.326 6.0858 141.767 5.83014 141.126 5.83014H139.995L139.904 4.90714C140.034 4.8638 140.246 4.82047 140.541 4.77714C140.835 4.7338 141.113 4.71214 141.373 4.71214C141.997 4.71214 142.56 4.8638 143.063 5.16714C143.574 5.4618 143.981 5.93847 144.285 6.59714C144.588 7.2558 144.74 8.1008 144.74 9.13214V10.3931H146.014ZM149.181 4.99814V11.4981H146.009V10.3931H147.946V4.99814H149.181ZM147.14 12.5381H148.245V13.7861H147.14V12.5381ZM148.882 12.5381H149.974V13.7861H148.882V12.5381ZM156.115 11.4981H154.321V11.5761C154.321 12.5988 154.143 13.3788 153.788 13.9161C153.433 14.4621 152.895 14.7351 152.176 14.7351C151.977 14.7351 151.76 14.7221 151.526 14.6961L151.214 14.6701V13.5781C151.5 13.6041 151.734 13.6171 151.916 13.6171C152.306 13.6171 152.601 13.4611 152.8 13.1491C152.999 12.8371 153.099 12.3995 153.099 11.8361V5.01114H154.321V10.3931H156.115V11.4981ZM163.005 5.15414V11.4981H156.115V10.3931H157.805C157.605 9.89914 157.506 9.20581 157.506 8.31314C157.506 7.45514 157.61 6.79214 157.818 6.32414C158.026 5.84747 158.355 5.50947 158.806 5.31014C159.265 5.1108 159.902 5.01114 160.717 5.01114C161.393 5.01114 162.004 5.04147 162.55 5.10214L163.005 5.15414ZM158.741 8.40414C158.741 8.96747 158.78 9.39647 158.858 9.69114C158.936 9.97714 159.035 10.2111 159.157 10.3931H161.77V6.14214C161.232 6.0988 160.855 6.07714 160.639 6.07714C160.119 6.07714 159.724 6.1508 159.456 6.29814C159.187 6.44547 159.001 6.6838 158.897 7.01314C158.793 7.34247 158.741 7.80614 158.741 8.40414ZM159.885 2.51514H161.068V3.78914H159.885V2.51514ZM177.066 5.15414V11.9791C177.066 12.5251 176.945 13.0148 176.702 13.4481C176.459 13.8815 176.1 14.2195 175.623 14.4621C175.146 14.7135 174.574 14.8391 173.907 14.8391H170.254C169.587 14.8391 169.015 14.7135 168.538 14.4621C168.07 14.2195 167.715 13.8815 167.472 13.4481C167.238 13.0148 167.121 12.5208 167.121 11.9661C167.121 11.2468 167.286 9.98147 167.615 8.17014L168.772 8.35214L168.681 8.92414C168.594 9.49614 168.512 10.0465 168.434 10.5751C168.365 11.0951 168.33 11.4895 168.33 11.7581C168.33 12.3648 168.486 12.8458 168.798 13.2011C169.119 13.5565 169.613 13.7341 170.28 13.7341H173.868C174.535 13.7341 175.029 13.5565 175.35 13.2011C175.671 12.8458 175.831 12.3691 175.831 11.7711V11.4981H174.037C173.413 11.4981 172.923 11.4158 172.568 11.2511C172.221 11.0865 171.966 10.7875 171.801 10.3541C171.645 9.9208 171.567 9.28814 171.567 8.45614C171.567 7.58947 171.658 6.90914 171.84 6.41514C172.031 5.92114 172.347 5.56147 172.789 5.33614C173.24 5.1108 173.859 4.99814 174.648 4.99814C174.934 4.99814 175.268 5.01114 175.649 5.03714C176.039 5.05447 176.355 5.07614 176.598 5.10214L177.066 5.15414ZM172.802 8.41714C172.802 8.96314 172.854 9.37914 172.958 9.66514C173.062 9.94247 173.227 10.1331 173.452 10.2371C173.677 10.3411 173.994 10.3931 174.401 10.3931H175.831V6.15514C175.372 6.1118 175.008 6.09014 174.739 6.09014C174.245 6.09014 173.855 6.16814 173.569 6.32414C173.292 6.47147 173.092 6.71414 172.971 7.05214C172.858 7.38147 172.802 7.83647 172.802 8.41714ZM173.413 2.52814H174.518V3.78914H173.413V2.52814ZM175.155 2.52814H176.247V3.78914H175.155V2.52814ZM185.543 11.4981H183.918C183.857 12.5208 183.645 13.3138 183.281 13.8771C182.926 14.4405 182.336 14.7221 181.513 14.7221C181.149 14.7221 180.464 14.6528 179.459 14.5141V13.4091C180.308 13.5478 180.963 13.6171 181.422 13.6171C181.717 13.6171 181.955 13.5651 182.137 13.4611C182.319 13.3571 182.458 13.1491 182.553 12.8371C182.648 12.5338 182.696 12.0875 182.696 11.4981H180.915C179.91 11.4981 179.247 11.1905 178.926 10.5751C178.614 9.95981 178.458 9.19714 178.458 8.28714C178.467 7.42914 178.558 6.74447 178.731 6.23314C178.913 5.7218 179.208 5.34914 179.615 5.11514C180.031 4.87247 180.594 4.75114 181.305 4.75114C181.704 4.75114 182.159 4.78147 182.67 4.84214C183.19 4.89414 183.615 4.9548 183.944 5.02414V10.3931H185.543V11.4981ZM179.693 8.24814C179.693 8.87214 179.797 9.38781 180.005 9.79514C180.213 10.1938 180.651 10.3931 181.318 10.3931H182.709V5.94714C182.284 5.88647 181.907 5.85614 181.578 5.85614C180.876 5.85614 180.386 6.04247 180.109 6.41514C179.84 6.77914 179.702 7.39014 179.693 8.24814ZM196.709 10.3931V11.4981H193.017C192.48 11.4981 191.999 11.3248 191.574 10.9781C191.254 11.3248 190.833 11.4981 190.313 11.4981H185.542V10.3931H187.609V5.64814H188.844V10.3931H189.91C190.292 10.3931 190.569 10.2328 190.742 9.91214C190.924 9.59147 191.015 9.18847 191.015 8.70314V5.64814H192.25V8.69014C192.25 9.18414 192.194 9.62614 192.081 10.0161C192.203 10.1115 192.35 10.1981 192.523 10.2761C192.697 10.3541 192.87 10.3931 193.043 10.3931H194.291V7.88414C194.291 7.27747 194.222 6.32847 194.083 5.03714L195.123 4.99814C195.227 5.50947 195.318 6.0468 195.396 6.61014C195.483 7.1648 195.526 7.58947 195.526 7.88414V10.3931H196.709ZM199.886 4.99814V11.4981H196.714V10.3931H198.651V4.99814H199.886ZM197.858 2.52814H198.963V3.78914H197.858V2.52814ZM199.6 2.52814H200.692V3.78914H199.6V2.52814ZM211.873 10.3931V11.4981H207.466C206.668 11.4981 206.04 11.3941 205.581 11.1861C205.121 10.9781 204.788 10.6358 204.58 10.1591C204.372 9.68247 204.268 9.0238 204.268 8.18314C204.268 7.3598 204.367 6.7098 204.567 6.23314C204.766 5.7478 205.091 5.40114 205.542 5.19314C205.992 4.97647 206.612 4.86814 207.401 4.86814C207.782 4.86814 208.306 4.88547 208.974 4.92014C209.641 4.9548 210.126 4.98947 210.43 5.02414V10.3931H211.873ZM205.503 8.17014C205.503 8.73347 205.568 9.17547 205.698 9.49614C205.836 9.8168 206.057 10.0465 206.361 10.1851C206.664 10.3238 207.08 10.3931 207.609 10.3931H209.208V6.06414C208.514 6.01214 207.964 5.98614 207.557 5.98614C207.045 5.98614 206.638 6.0598 206.335 6.20714C206.04 6.3458 205.828 6.57547 205.698 6.89614C205.568 7.20814 205.503 7.6328 205.503 8.17014ZM206.283 2.52814H207.388V3.78914H206.283V2.52814ZM208.025 2.52814H209.117V3.78914H208.025V2.52814ZM215.045 4.99814V11.4981H211.873V10.3931H213.81V4.99814H215.045ZM213.849 12.5381H215.032V13.8121H213.849V12.5381ZM221.47 11.4981H219.676V11.5761C219.676 12.5988 219.499 13.3788 219.143 13.9161C218.788 14.4621 218.251 14.7351 217.531 14.7351C217.332 14.7351 217.115 14.7221 216.881 14.6961L216.569 14.6701V13.5781C216.855 13.6041 217.089 13.6171 217.271 13.6171C217.661 13.6171 217.956 13.4611 218.155 13.1491C218.355 12.8371 218.454 12.3995 218.454 11.8361V5.01114H219.676V10.3931H221.47V11.4981ZM229.257 10.3931V11.4981H221.47V10.3931H226.592V7.19514C226.592 6.36314 226.168 5.94714 225.318 5.94714C224.937 5.94714 224.04 6.01647 222.627 6.15514L222.588 5.28414C223.056 5.17147 223.581 5.07614 224.161 4.99814C224.751 4.91147 225.236 4.86814 225.617 4.86814C226.302 4.86814 226.839 5.03714 227.229 5.37514C227.619 5.70447 227.814 6.2678 227.814 7.06514V10.3931H229.257ZM224.785 12.5381H225.968V13.8121H224.785V12.5381ZM232.424 4.99814V11.4981H229.252V10.3931H231.189V4.99814H232.424ZM230.396 2.52814H231.501V3.78914H230.396V2.52814ZM232.138 2.52814H233.23V3.78914H232.138V2.52814ZM249.39 10.3931V11.4981H240.277C239.471 11.4981 238.816 11.4331 238.314 11.3031C237.82 11.1731 237.443 10.9478 237.183 10.6271C236.931 10.2978 236.806 9.83847 236.806 9.24914C236.806 8.88514 236.845 8.43447 236.923 7.89714C237.009 7.3598 237.109 6.8658 237.222 6.41514L238.197 6.46714L238.093 7.24714C237.971 8.07914 237.911 8.65547 237.911 8.97614C237.911 9.47881 238.075 9.84281 238.405 10.0681C238.743 10.2848 239.345 10.3931 240.212 10.3931H243.02C242.82 9.9338 242.721 9.24047 242.721 8.31314C242.721 7.45514 242.82 6.79214 243.02 6.32414C243.228 5.84747 243.561 5.50947 244.021 5.31014C244.48 5.1108 245.113 5.01114 245.919 5.01114C246.603 5.01114 247.214 5.04147 247.752 5.10214L248.22 5.15414V10.3931H249.39ZM243.943 8.40414C243.943 8.96747 243.982 9.39214 244.06 9.67814C244.138 9.96414 244.242 10.2025 244.372 10.3931H246.985V6.14214C246.439 6.0988 246.057 6.07714 245.841 6.07714C245.321 6.07714 244.926 6.1508 244.658 6.29814C244.389 6.44547 244.203 6.6838 244.099 7.01314C243.995 7.34247 243.943 7.80614 243.943 8.40414ZM245.399 2.51514H246.582V3.78914H245.399V2.51514ZM260.554 10.3931V11.4981H256.862C256.325 11.4981 255.844 11.3248 255.419 10.9781C255.099 11.3248 254.678 11.4981 254.158 11.4981H249.387V10.3931H251.454V5.64814H252.689V10.3931H253.755C254.137 10.3931 254.414 10.2328 254.587 9.91214C254.769 9.59147 254.86 9.18847 254.86 8.70314V5.64814H256.095V8.69014C256.095 9.18414 256.039 9.62614 255.926 10.0161C256.048 10.1115 256.195 10.1981 256.368 10.2761C256.542 10.3541 256.715 10.3931 256.888 10.3931H258.136V7.88414C258.136 7.27747 258.067 6.32847 257.928 5.03714L258.968 4.99814C259.072 5.50947 259.163 6.0468 259.241 6.61014C259.328 7.1648 259.371 7.58947 259.371 7.88414V10.3931H260.554ZM254.678 0.903138H255.744V2.08614H254.678V0.903138ZM253.794 2.55414H254.899V3.78914H253.794V2.55414ZM255.536 2.55414H256.628V3.78914H255.536V2.55414ZM265.668 10.3931V11.4981H260.559V10.3931H262.496V4.99814H263.731V10.3931H265.668ZM261.69 2.52814H262.795V3.78914H261.69V2.52814ZM263.432 2.52814H264.524V3.78914H263.432V2.52814ZM270.421 5.67414C271.244 5.67414 271.829 5.96447 272.176 6.54514C272.531 7.1258 272.709 7.81047 272.709 8.59914V11.4981H265.663V10.3931H271.487V8.58614C271.487 8.10081 271.387 7.68047 271.188 7.32514C270.988 6.9698 270.685 6.7878 270.278 6.77914H266.768L266.027 5.79114L266.742 4.40014C266.906 4.07947 267.14 3.7068 267.444 3.28214C267.756 2.8488 268.063 2.45014 268.367 2.08614L269.251 2.59314C268.67 3.4598 268.211 4.21814 267.873 4.86814L267.444 5.67414H270.421ZM274.614 2.24214H275.849V11.4981H274.614V2.24214ZM11.131 26.8681C11.5124 26.8681 12.0367 26.8855 12.704 26.9201C13.3714 26.9548 13.8567 26.9895 14.16 27.0241V33.4981H11.196C10.3987 33.4981 9.77036 33.3941 9.31103 33.1861C8.85169 32.9781 8.51803 32.6358 8.31003 32.1591C8.10203 31.6825 7.99803 31.0238 7.99803 30.1831C7.99803 29.3598 8.09769 28.7098 8.29703 28.2331C8.49636 27.7478 8.82136 27.4011 9.27203 27.1931C9.72269 26.9765 10.3424 26.8681 11.131 26.8681ZM9.23303 30.1701C9.23303 30.7335 9.29803 31.1755 9.42803 31.4961C9.56669 31.8168 9.78769 32.0465 10.091 32.1851C10.3944 32.3238 10.8104 32.3931 11.339 32.3931H12.938V28.0641C12.2447 28.0121 11.6944 27.9861 11.287 27.9861C10.7757 27.9861 10.3684 28.0598 10.065 28.2071C9.77036 28.3458 9.55803 28.5755 9.42803 28.8961C9.29803 29.2081 9.23303 29.6328 9.23303 30.1701ZM9.87003 24.5281H10.975V25.7891H9.87003V24.5281ZM11.612 24.5281H12.704V25.7891H11.612V24.5281ZM16.3868 36.7351C16.1875 36.7351 15.9708 36.7221 15.7368 36.6961L15.4248 36.6701V35.5781C15.7108 35.6041 15.9448 35.6171 16.1268 35.6171C16.5168 35.6171 16.8115 35.4611 17.0108 35.1491C17.2101 34.8371 17.3098 34.3995 17.3098 33.8361V27.0111H18.5318V33.5761C18.5318 34.5988 18.3541 35.3788 17.9988 35.9161C17.6435 36.4621 17.1061 36.7351 16.3868 36.7351ZM17.3228 24.5151H18.5058V25.7891H17.3228V24.5151ZM23.0126 32.3931V33.4981H20.5426V24.2421H21.7776V32.3931H23.0126ZM28.1261 32.3931V33.4981H23.0171V32.3931H24.9541V26.9981H26.1891V32.3931H28.1261ZM24.1481 24.5281H25.2531V25.7891H24.1481V24.5281ZM25.8901 24.5281H26.9821V25.7891H25.8901V24.5281ZM37.3246 32.3931V33.4981H36.8176C36.6616 33.4981 36.4969 33.4505 36.3236 33.3551C36.1503 33.2511 36.0029 33.1211 35.8816 32.9651V33.4981H28.1206V32.3931H30.2266C30.1053 31.6825 30.0446 30.9848 30.0446 30.3001C30.0446 29.7541 30.0836 29.2038 30.1616 28.6491C30.2396 28.0858 30.3263 27.6178 30.4216 27.2451C30.6556 27.1498 30.9763 27.0631 31.3836 26.9851C31.7996 26.9071 32.2459 26.8681 32.7226 26.8681C33.8493 26.8681 34.6553 27.1325 35.1406 27.6611C35.6346 28.1898 35.8816 29.0521 35.8816 30.2481V31.8601C35.9769 32.0161 36.1026 32.1461 36.2586 32.2501C36.4233 32.3455 36.6096 32.3931 36.8176 32.3931H37.3246ZM31.2666 30.3001C31.2666 30.6901 31.2839 31.0801 31.3186 31.4701C31.3619 31.8515 31.4053 32.1591 31.4486 32.3931H34.6466V30.2221C34.6466 29.4248 34.4776 28.8528 34.1396 28.5061C33.8103 28.1508 33.2816 27.9731 32.5536 27.9731C32.1809 27.9731 31.8169 28.0121 31.4616 28.0901C31.3316 28.8875 31.2666 29.6241 31.2666 30.3001ZM46.5287 32.3931V33.4981H46.0217C45.8657 33.4981 45.701 33.4505 45.5277 33.3551C45.3544 33.2511 45.207 33.1211 45.0857 32.9651V33.4981H37.3247V32.3931H39.4307C39.3094 31.6825 39.2487 30.9848 39.2487 30.3001C39.2487 29.7541 39.2877 29.2038 39.3657 28.6491C39.4437 28.0858 39.5304 27.6178 39.6257 27.2451C39.8597 27.1498 40.1804 27.0631 40.5877 26.9851C41.0037 26.9071 41.45 26.8681 41.9267 26.8681C43.0534 26.8681 43.8594 27.1325 44.3447 27.6611C44.8387 28.1898 45.0857 29.0521 45.0857 30.2481V31.8601C45.181 32.0161 45.3067 32.1461 45.4627 32.2501C45.6274 32.3455 45.8137 32.3931 46.0217 32.3931H46.5287ZM40.4707 30.3001C40.4707 30.6901 40.488 31.0801 40.5227 31.4701C40.566 31.8515 40.6094 32.1591 40.6527 32.3931H43.8507V30.2221C43.8507 29.4248 43.6817 28.8528 43.3437 28.5061C43.0144 28.1508 42.4857 27.9731 41.7577 27.9731C41.385 27.9731 41.021 28.0121 40.6657 28.0901C40.5357 28.8875 40.4707 29.6241 40.4707 30.3001ZM49.3628 24.2421V33.4981H46.5288V32.3931H48.1278V24.2421H49.3628ZM51.6207 24.2421H52.8557V33.4981H51.6207V24.2421ZM65.0132 32.3931V33.4981H60.6062C59.8089 33.4981 59.1805 33.3941 58.7212 33.1861C58.2619 32.9781 57.9282 32.6358 57.7202 32.1591C57.5122 31.6825 57.4082 31.0238 57.4082 30.1831C57.4082 29.3598 57.5079 28.7098 57.7072 28.2331C57.9065 27.7478 58.2315 27.4011 58.6822 27.1931C59.1329 26.9765 59.7525 26.8681 60.5412 26.8681C60.9225 26.8681 61.4469 26.8855 62.1142 26.9201C62.7815 26.9548 63.2669 26.9895 63.5702 27.0241V32.3931H65.0132ZM58.6432 30.1701C58.6432 30.7335 58.7082 31.1755 58.8382 31.4961C58.9769 31.8168 59.1979 32.0465 59.5012 32.1851C59.8045 32.3238 60.2205 32.3931 60.7492 32.3931H62.3482V28.0641C61.6549 28.0121 61.1045 27.9861 60.6972 27.9861C60.1859 27.9861 59.7785 28.0598 59.4752 28.2071C59.1805 28.3458 58.9682 28.5755 58.8382 28.8961C58.7082 29.2081 58.6432 29.6328 58.6432 30.1701ZM59.4232 24.5281H60.5282V25.7891H59.4232V24.5281ZM61.1652 24.5281H62.2572V25.7891H61.1652V24.5281ZM69.1602 26.8681C69.8449 26.8681 70.3822 27.0371 70.7722 27.3751C71.1622 27.7045 71.3572 28.2678 71.3572 29.0651V33.4981H65.0132V32.3931H70.1352V29.1951C70.1352 28.3631 69.7105 27.9471 68.8612 27.9471C68.4799 27.9471 67.5829 28.0165 66.1702 28.1551L66.1312 27.2841C66.5992 27.1715 67.1235 27.0761 67.7042 26.9981C68.2935 26.9115 68.7789 26.8681 69.1602 26.8681ZM68.1462 34.5381H69.3292V35.8121H68.1462V34.5381ZM73.6173 36.7351C73.4179 36.7351 73.2013 36.7221 72.9673 36.6961L72.6553 36.6701V35.5781C72.9413 35.6041 73.1753 35.6171 73.3573 35.6171C73.7473 35.6171 74.0419 35.4611 74.2413 35.1491C74.4406 34.8371 74.5403 34.3995 74.5403 33.8361V27.0111H75.7623V33.5761C75.7623 34.5988 75.5846 35.3788 75.2293 35.9161C74.8739 36.4621 74.3366 36.7351 73.6173 36.7351ZM74.5533 24.5151H75.7363V25.7891H74.5533V24.5151ZM80.2431 32.3931V33.4981H77.7731V24.2421H79.0081V32.3931H80.2431ZM90.5176 32.3931V33.4981H80.2476V32.3931H81.4306V24.2421H82.6656V29.6111C83.2202 28.7531 83.7836 28.0815 84.3556 27.5961C84.9276 27.1108 85.6122 26.8681 86.4096 26.8681C86.9816 26.8681 87.4842 27.0025 87.9176 27.2711C88.3596 27.5311 88.7062 27.9125 88.9576 28.4151C89.2089 28.9178 89.3346 29.5245 89.3346 30.2351V32.3931H90.5176ZM86.1496 27.9731C85.5516 27.9731 84.9839 28.2288 84.4466 28.7401C83.9179 29.2428 83.4889 29.8278 83.1596 30.4951C82.8302 31.1538 82.6656 31.6608 82.6656 32.0161V32.3931H88.1126V30.3261C88.1126 29.8148 88.0172 29.3815 87.8266 29.0261C87.6446 28.6708 87.4019 28.4065 87.0986 28.2331C86.8039 28.0598 86.4876 27.9731 86.1496 27.9731ZM93.3521 24.2421V33.4981H90.5181V32.3931H92.1171V24.2421H93.3521ZM95.61 24.2421H96.845V33.4981H95.61V24.2421ZM109.002 32.3931V33.4981H104.595C103.798 33.4981 103.17 33.3941 102.71 33.1861C102.251 32.9781 101.917 32.6358 101.709 32.1591C101.501 31.6825 101.397 31.0238 101.397 30.1831C101.397 29.3598 101.497 28.7098 101.696 28.2331C101.896 27.7478 102.221 27.4011 102.671 27.1931C103.122 26.9765 103.742 26.8681 104.53 26.8681C104.912 26.8681 105.436 26.8855 106.103 26.9201C106.771 26.9548 107.256 26.9895 107.559 27.0241V32.3931H109.002ZM102.632 30.1701C102.632 30.7335 102.697 31.1755 102.827 31.4961C102.966 31.8168 103.187 32.0465 103.49 32.1851C103.794 32.3238 104.21 32.3931 104.738 32.3931H106.337V28.0641C105.644 28.0121 105.094 27.9861 104.686 27.9861C104.175 27.9861 103.768 28.0598 103.464 28.2071C103.17 28.3458 102.957 28.5755 102.827 28.8961C102.697 29.2081 102.632 29.6328 102.632 30.1701ZM113.76 27.6741C114.584 27.6741 115.169 27.9645 115.515 28.5451C115.871 29.1258 116.048 29.8105 116.048 30.5991V33.4981H109.002V32.3931H114.826V30.5861C114.826 30.1008 114.727 29.6805 114.527 29.3251C114.328 28.9698 114.025 28.7878 113.617 28.7791H110.107L109.366 27.7911L110.081 26.4001C110.246 26.0795 110.48 25.7068 110.783 25.2821C111.095 24.8488 111.403 24.4501 111.706 24.0861L112.59 24.5931C112.01 25.4598 111.55 26.2181 111.212 26.8681L110.783 27.6741H113.76ZM117.954 24.2421H119.189V33.4981H117.954V24.2421ZM127.97 33.4981H126.345C126.284 34.5208 126.072 35.3138 125.708 35.8771C125.352 36.4405 124.763 36.7221 123.94 36.7221C123.576 36.7221 122.891 36.6528 121.886 36.5141V35.4091C122.735 35.5478 123.389 35.6171 123.849 35.6171C124.143 35.6171 124.382 35.5651 124.564 35.4611C124.746 35.3571 124.884 35.1491 124.98 34.8371C125.075 34.5338 125.123 34.0875 125.123 33.4981H123.342C122.336 33.4981 121.673 33.1905 121.353 32.5751C121.041 31.9598 120.885 31.1971 120.885 30.2871C120.893 29.4291 120.984 28.7445 121.158 28.2331C121.34 27.7218 121.634 27.3491 122.042 27.1151C122.458 26.8725 123.021 26.7511 123.732 26.7511C124.13 26.7511 124.585 26.7815 125.097 26.8421C125.617 26.8941 126.041 26.9548 126.371 27.0241V32.3931H127.97V33.4981ZM122.12 30.2481C122.12 30.8721 122.224 31.3878 122.432 31.7951C122.64 32.1938 123.077 32.3931 123.745 32.3931H125.136V27.9471C124.711 27.8865 124.334 27.8561 124.005 27.8561C123.303 27.8561 122.813 28.0425 122.536 28.4151C122.267 28.7791 122.128 29.3901 122.12 30.2481ZM136.042 32.3931V33.4981H127.969V32.3931H129.659C129.46 31.8991 129.36 31.2058 129.36 30.3131C129.36 29.4551 129.464 28.7921 129.672 28.3241C129.88 27.8475 130.21 27.5095 130.66 27.3101C131.12 27.1108 131.757 27.0111 132.571 27.0111C133.247 27.0111 133.858 27.0415 134.404 27.1021L134.859 27.1541V32.3931H136.042ZM130.595 30.4041C130.595 30.9675 130.634 31.3965 130.712 31.6911C130.79 31.9771 130.89 32.2111 131.011 32.3931H133.624V28.1421C133.087 28.0988 132.71 28.0771 132.493 28.0771C131.973 28.0771 131.579 28.1508 131.31 28.2981C131.042 28.4455 130.855 28.6838 130.751 29.0131C130.647 29.3425 130.595 29.8061 130.595 30.4041ZM131.635 24.5151H132.818V25.7891H131.635V24.5151ZM138.877 24.2421V33.4981H136.043V32.3931H137.642V24.2421H138.877ZM141.135 24.2421H142.37V33.4981H141.135V24.2421ZM155.295 33.4981H153.852V33.9141C153.852 34.4861 153.7 34.9845 153.397 35.4091C153.102 35.8338 152.695 36.1588 152.175 36.3841C151.663 36.6095 151.091 36.7221 150.459 36.7221C149.791 36.7221 149.189 36.5965 148.652 36.3451C148.114 36.1025 147.69 35.7645 147.378 35.3311C147.074 34.8978 146.923 34.4125 146.923 33.8751C146.923 33.2771 147.092 31.9641 147.43 29.9361L148.6 30.0011C148.47 30.8245 148.357 31.6001 148.262 32.3281C148.175 33.0475 148.132 33.5285 148.132 33.7711C148.132 34.1178 148.231 34.4298 148.431 34.7071C148.63 34.9931 148.903 35.2141 149.25 35.3701C149.605 35.5348 149.995 35.6171 150.42 35.6171C151.044 35.6171 151.564 35.4481 151.98 35.1101C152.404 34.7808 152.617 34.3345 152.617 33.7711V26.9981H153.852V32.3931H155.295V33.4981ZM149.9 25.7241H151.083V26.9981H149.9V25.7241ZM159.892 26.8681C161.018 26.8681 161.824 27.1325 162.31 27.6611C162.804 28.1898 163.051 29.0521 163.051 30.2481V33.4981H155.29V32.3931H157.396C157.274 31.6825 157.214 30.9848 157.214 30.3001C157.214 29.7541 157.253 29.2038 157.331 28.6491C157.409 28.0858 157.495 27.6178 157.591 27.2451C157.825 27.1498 158.145 27.0631 158.553 26.9851C158.969 26.9071 159.415 26.8681 159.892 26.8681ZM158.436 30.3001C158.436 30.6901 158.453 31.0801 158.488 31.4701C158.531 31.8515 158.574 32.1591 158.618 32.3931H161.816V30.2221C161.816 29.4248 161.647 28.8528 161.309 28.5061C160.979 28.1508 160.451 27.9731 159.723 27.9731C159.35 27.9731 158.986 28.0121 158.631 28.0901C158.501 28.8875 158.436 29.6241 158.436 30.3001ZM174.764 32.3931V33.4981H170.357C169.56 33.4981 168.931 33.3941 168.472 33.1861C168.013 32.9781 167.679 32.6358 167.471 32.1591C167.263 31.6825 167.159 31.0238 167.159 30.1831C167.159 29.3598 167.259 28.7098 167.458 28.2331C167.657 27.7478 167.982 27.4011 168.433 27.1931C168.884 26.9765 169.503 26.8681 170.292 26.8681C170.673 26.8681 171.198 26.8855 171.865 26.9201C172.532 26.9548 173.018 26.9895 173.321 27.0241V32.3931H174.764ZM168.394 30.1701C168.394 30.7335 168.459 31.1755 168.589 31.4961C168.728 31.8168 168.949 32.0465 169.252 32.1851C169.555 32.3238 169.971 32.3931 170.5 32.3931H172.099V28.0641C171.406 28.0121 170.855 27.9861 170.448 27.9861C169.937 27.9861 169.529 28.0598 169.226 28.2071C168.931 28.3458 168.719 28.5755 168.589 28.8961C168.459 29.2081 168.394 29.6328 168.394 30.1701ZM169.174 24.5281H170.279V25.7891H169.174V24.5281ZM170.916 24.5281H172.008V25.7891H170.916V24.5281ZM182.941 32.3931V33.4981H181.472C181.047 33.4981 180.61 33.4461 180.159 33.3421C179.717 33.2381 179.301 33.0951 178.911 32.9131C178.538 33.0951 178.131 33.2381 177.689 33.3421C177.247 33.4461 176.818 33.4981 176.402 33.4981H174.764V32.3931H176.363C176.805 32.3931 177.26 32.3108 177.728 32.1461C177.095 31.6435 176.588 31.0845 176.207 30.4691C175.834 29.8451 175.639 29.2775 175.622 28.7661L175.583 27.7781C176.103 27.4921 176.645 27.2668 177.208 27.1021C177.78 26.9375 178.343 26.8551 178.898 26.8551C179.453 26.8551 180.016 26.9375 180.588 27.1021C181.169 27.2668 181.723 27.4921 182.252 27.7781L182.2 28.7661C182.183 29.2775 181.983 29.8451 181.602 30.4691C181.229 31.0845 180.722 31.6435 180.081 32.1461C180.558 32.3108 181.017 32.3931 181.459 32.3931H182.941ZM176.831 28.4021C176.831 29.0001 177.013 29.5808 177.377 30.1441C177.75 30.7075 178.261 31.1928 178.911 31.6001C179.57 31.1841 180.085 30.6988 180.458 30.1441C180.831 29.5808 181.017 29.0001 181.017 28.4021C180.22 28.1161 179.518 27.9731 178.911 27.9731C178.313 27.9731 177.62 28.1161 176.831 28.4021ZM192.521 26.9981C192.625 27.5095 192.716 28.0468 192.794 28.6101C192.881 29.1648 192.924 29.5895 192.924 29.8841V33.4981H190.415C189.878 33.4981 189.397 33.3248 188.972 32.9781C188.651 33.3248 188.231 33.4981 187.711 33.4981H182.94V32.3931H185.007V27.6481H186.242V32.3931H187.308C187.689 32.3931 187.967 32.2328 188.14 31.9121C188.322 31.5915 188.413 31.1885 188.413 30.7031V27.6481H189.648V30.6901C189.648 31.1841 189.592 31.6261 189.479 32.0161C189.6 32.1115 189.748 32.1981 189.921 32.2761C190.094 32.3541 190.268 32.3931 190.441 32.3931H191.689V29.8841C191.689 29.2775 191.62 28.3285 191.481 27.0371L192.521 26.9981ZM194.925 24.2421H196.16V33.4981H194.925V24.2421ZM204.941 33.4981H203.316C203.256 34.5208 203.043 35.3138 202.679 35.8771C202.324 36.4405 201.735 36.7221 200.911 36.7221C200.547 36.7221 199.863 36.6528 198.857 36.5141V35.4091C199.707 35.5478 200.361 35.6171 200.82 35.6171C201.115 35.6171 201.353 35.5651 201.535 35.4611C201.717 35.3571 201.856 35.1491 201.951 34.8371C202.047 34.5338 202.094 34.0875 202.094 33.4981H200.313C199.308 33.4981 198.645 33.1905 198.324 32.5751C198.012 31.9598 197.856 31.1971 197.856 30.2871C197.865 29.4291 197.956 28.7445 198.129 28.2331C198.311 27.7218 198.606 27.3491 199.013 27.1151C199.429 26.8725 199.993 26.7511 200.703 26.7511C201.102 26.7511 201.557 26.7815 202.068 26.8421C202.588 26.8941 203.013 26.9548 203.342 27.0241V32.3931H204.941V33.4981ZM199.091 30.2481C199.091 30.8721 199.195 31.3878 199.403 31.7951C199.611 32.1938 200.049 32.3931 200.716 32.3931H202.107V27.9471C201.683 27.8865 201.306 27.8561 200.976 27.8561C200.274 27.8561 199.785 28.0425 199.507 28.4151C199.239 28.7791 199.1 29.3901 199.091 30.2481ZM207.775 24.2421V33.4981H204.941V32.3931H206.54V24.2421H207.775ZM210.033 24.2421H211.268V33.4981H210.033V24.2421ZM218.901 32.3931V33.4981H216.431V24.2421H217.666V32.3931H218.901ZM224.015 32.3931V33.4981H218.906V32.3931H220.843V26.9981H222.078V32.3931H224.015ZM220.869 24.5151H222.052V25.7891H220.869V24.5151ZM229.118 32.3931V33.4981H224.009V32.3931H225.946V26.9981H227.181V32.3931H229.118ZM225.14 24.5281H226.245V25.7891H225.14V24.5281ZM226.882 24.5281H227.974V25.7891H226.882V24.5281ZM236.042 32.3931V33.4981H229.113V32.3931H231.362C231.162 32.1331 230.989 31.7908 230.842 31.3661C230.703 30.9415 230.634 30.4735 230.634 29.9621C230.634 29.3208 230.755 28.7661 230.998 28.2981C231.24 27.8301 231.578 27.4748 232.012 27.2321C232.445 26.9808 232.939 26.8551 233.494 26.8551C233.823 26.8551 234.187 26.9028 234.586 26.9981C234.984 27.0848 235.34 27.2105 235.652 27.3751L235.6 28.4931C235.426 28.3891 235.136 28.2765 234.729 28.1551C234.321 28.0338 233.953 27.9731 233.624 27.9731C233.095 27.9731 232.67 28.1508 232.35 28.5061C232.029 28.8615 231.869 29.3685 231.869 30.0271C231.869 30.5385 231.96 31.0021 232.142 31.4181C232.324 31.8255 232.549 32.1505 232.818 32.3931H236.042ZM244.043 33.4981H242.418C242.357 34.5208 242.145 35.3138 241.781 35.8771C241.426 36.4405 240.836 36.7221 240.013 36.7221C239.649 36.7221 238.964 36.6528 237.959 36.5141V35.4091C238.808 35.5478 239.463 35.6171 239.922 35.6171C240.217 35.6171 240.455 35.5651 240.637 35.4611C240.819 35.3571 240.958 35.1491 241.053 34.8371C241.148 34.5338 241.196 34.0875 241.196 33.4981H239.415C238.41 33.4981 237.747 33.1905 237.426 32.5751C237.114 31.9598 236.958 31.1971 236.958 30.2871C236.967 29.4291 237.058 28.7445 237.231 28.2331C237.413 27.7218 237.708 27.3491 238.115 27.1151C238.531 26.8725 239.094 26.7511 239.805 26.7511C240.204 26.7511 240.659 26.7815 241.17 26.8421C241.69 26.8941 242.115 26.9548 242.444 27.0241V32.3931H244.043V33.4981ZM238.193 30.2481C238.193 30.8721 238.297 31.3878 238.505 31.7951C238.713 32.1938 239.151 32.3931 239.818 32.3931H241.209V27.9471C240.784 27.8865 240.407 27.8561 240.078 27.8561C239.376 27.8561 238.886 28.0425 238.609 28.4151C238.34 28.7791 238.202 29.3901 238.193 30.2481ZM253.246 32.3931V33.4981H252.739C252.583 33.4981 252.419 33.4505 252.245 33.3551C252.072 33.2511 251.925 33.1211 251.803 32.9651V33.4981H244.042V32.3931H246.148C246.027 31.6825 245.966 30.9848 245.966 30.3001C245.966 29.7541 246.005 29.2038 246.083 28.6491C246.161 28.0858 246.248 27.6178 246.343 27.2451C246.577 27.1498 246.898 27.0631 247.305 26.9851C247.721 26.9071 248.168 26.8681 248.644 26.8681C249.771 26.8681 250.577 27.1325 251.062 27.6611C251.556 28.1898 251.803 29.0521 251.803 30.2481V31.8601C251.899 32.0161 252.024 32.1461 252.18 32.2501C252.345 32.3455 252.531 32.3931 252.739 32.3931H253.246ZM247.188 30.3001C247.188 30.6901 247.206 31.0801 247.24 31.4701C247.284 31.8515 247.327 32.1591 247.37 32.3931H250.568V30.2221C250.568 29.4248 250.399 28.8528 250.061 28.5061C249.732 28.1508 249.203 27.9731 248.475 27.9731C248.103 27.9731 247.739 28.0121 247.383 28.0901C247.253 28.8875 247.188 29.6241 247.188 30.3001ZM261.034 32.3931V33.4981H253.247V32.3931H258.369V29.1951C258.369 28.3631 257.944 27.9471 257.095 27.9471C256.713 27.9471 255.816 28.0165 254.404 28.1551L254.365 27.2841C254.833 27.1715 255.357 27.0761 255.938 26.9981C256.527 26.9115 257.012 26.8681 257.394 26.8681C258.078 26.8681 258.616 27.0371 259.006 27.3751C259.396 27.7045 259.591 28.2678 259.591 29.0651V32.3931H261.034ZM256.562 34.5381H257.745V35.8121H256.562V34.5381ZM265.631 26.8681C266.757 26.8681 267.563 27.1325 268.049 27.6611C268.543 28.1898 268.79 29.0521 268.79 30.2481V33.4981H261.029V32.3931H263.135C263.013 31.6825 262.953 30.9848 262.953 30.3001C262.953 29.7541 262.992 29.2038 263.07 28.6491C263.148 28.0858 263.234 27.6178 263.33 27.2451C263.564 27.1498 263.884 27.0631 264.292 26.9851C264.708 26.9071 265.154 26.8681 265.631 26.8681ZM264.175 30.3001C264.175 30.6901 264.192 31.0801 264.227 31.4701C264.27 31.8515 264.313 32.1591 264.357 32.3931H267.555V30.2221C267.555 29.4248 267.386 28.8528 267.048 28.5061C266.718 28.1508 266.19 27.9731 265.462 27.9731C265.089 27.9731 264.725 28.0121 264.37 28.0901C264.24 28.8875 264.175 29.6241 264.175 30.3001ZM23.2778 53.8081H24.5908V55.4981H23.2778V53.8081ZM33.5288 54.3931V55.4981H29.1218C28.3245 55.4981 27.6961 55.3941 27.2368 55.1861C26.7775 54.9781 26.4438 54.6358 26.2358 54.1591C26.0278 53.6825 25.9238 53.0238 25.9238 52.1831C25.9238 51.3598 26.0235 50.7098 26.2228 50.2331C26.4221 49.7478 26.7471 49.4011 27.1978 49.1931C27.6485 48.9765 28.2681 48.8681 29.0568 48.8681C29.4381 48.8681 29.9625 48.8855 30.6298 48.9201C31.2971 48.9548 31.7825 48.9895 32.0858 49.0241V54.3931H33.5288ZM27.1588 52.1701C27.1588 52.7335 27.2238 53.1755 27.3538 53.4961C27.4925 53.8168 27.7135 54.0465 28.0168 54.1851C28.3201 54.3238 28.7361 54.3931 29.2648 54.3931H30.8638V50.0641C30.1705 50.0121 29.6201 49.9861 29.2128 49.9861C28.7015 49.9861 28.2941 50.0598 27.9908 50.2071C27.6961 50.3458 27.4838 50.5755 27.3538 50.8961C27.2238 51.2081 27.1588 51.6328 27.1588 52.1701ZM27.9388 46.5281H29.0438V47.7891H27.9388V46.5281ZM29.6808 46.5281H30.7728V47.7891H29.6808V46.5281ZM38.6378 54.3931V55.4981H33.5288V54.3931H35.4658V48.9981H36.7008V54.3931H38.6378ZM34.6468 56.5381H35.7518V57.7861H34.6468V56.5381ZM36.3888 56.5381H37.4808V57.7861H36.3888V56.5381ZM41.4663 46.2421V55.4981H38.6323V54.3931H40.2313V46.2421H41.4663ZM46.1943 54.3931V55.4981H43.7243V46.2421H44.9593V54.3931H46.1943ZM54.3757 54.3931V55.4981H52.9067C52.4821 55.4981 52.0444 55.4461 51.5937 55.3421C51.1517 55.2381 50.7357 55.0951 50.3457 54.9131C49.9731 55.0951 49.5657 55.2381 49.1237 55.3421C48.6817 55.4461 48.2527 55.4981 47.8367 55.4981H46.1987V54.3931H47.7977C48.2397 54.3931 48.6947 54.3108 49.1627 54.1461C48.5301 53.6435 48.0231 53.0845 47.6417 52.4691C47.2691 51.8451 47.0741 51.2775 47.0567 50.7661L47.0177 49.7781C47.5377 49.4921 48.0794 49.2668 48.6427 49.1021C49.2147 48.9375 49.7781 48.8551 50.3327 48.8551C50.8874 48.8551 51.4507 48.9375 52.0227 49.1021C52.6034 49.2668 53.1581 49.4921 53.6867 49.7781L53.6347 50.7661C53.6174 51.2775 53.4181 51.8451 53.0367 52.4691C52.6641 53.0845 52.1571 53.6435 51.5157 54.1461C51.9924 54.3108 52.4517 54.3931 52.8937 54.3931H54.3757ZM48.2657 50.4021C48.2657 51.0001 48.4477 51.5808 48.8117 52.1441C49.1844 52.7075 49.6957 53.1928 50.3457 53.6001C51.0044 53.1841 51.5201 52.6988 51.8927 52.1441C52.2654 51.5808 52.4517 51.0001 52.4517 50.4021C51.6544 50.1161 50.9524 49.9731 50.3457 49.9731C49.7477 49.9731 49.0544 50.1161 48.2657 50.4021ZM57.2085 46.2421V55.4981H54.3745V54.3931H55.9735V46.2421H57.2085ZM59.4664 46.2421H60.7014V55.4981H59.4664V46.2421ZM68.3869 48.8681C68.7682 48.8681 69.2926 48.8855 69.9599 48.9201C70.6272 48.9548 71.1126 48.9895 71.4159 49.0241V55.4981H68.4519C67.6546 55.4981 67.0262 55.3941 66.5669 55.1861C66.1076 54.9781 65.7739 54.6358 65.5659 54.1591C65.3579 53.6825 65.2539 53.0238 65.2539 52.1831C65.2539 51.3598 65.3536 50.7098 65.5529 50.2331C65.7522 49.7478 66.0772 49.4011 66.5279 49.1931C66.9786 48.9765 67.5982 48.8681 68.3869 48.8681ZM66.4889 52.1701C66.4889 52.7335 66.5539 53.1755 66.6839 53.4961C66.8226 53.8168 67.0436 54.0465 67.3469 54.1851C67.6502 54.3238 68.0662 54.3931 68.5949 54.3931H70.1939V50.0641C69.5006 50.0121 68.9502 49.9861 68.5429 49.9861C68.0316 49.9861 67.6242 50.0598 67.3209 50.2071C67.0262 50.3458 66.8139 50.5755 66.6839 50.8961C66.5539 51.2081 66.4889 51.6328 66.4889 52.1701ZM67.1259 46.5281H68.2309V47.7891H67.1259V46.5281ZM68.8679 46.5281H69.9599V47.7891H68.8679V46.5281ZM74.7476 48.7121C75.3716 48.7121 75.935 48.8638 76.4376 49.1671C76.949 49.4618 77.3563 49.9385 77.6596 50.5971C77.963 51.2558 78.1146 52.1008 78.1146 53.1321V55.4981H72.6806V54.3931H76.8926V53.1971C76.8926 51.9665 76.6543 51.0998 76.1776 50.5971C75.701 50.0858 75.142 49.8301 74.5006 49.8301H73.3696L73.2786 48.9071C73.4086 48.8638 73.621 48.8205 73.9156 48.7771C74.2103 48.7338 74.4876 48.7121 74.7476 48.7121ZM86.291 55.4981H84.666C84.6054 56.5208 84.393 57.3138 84.029 57.8771C83.6737 58.4405 83.0844 58.7221 82.261 58.7221C81.897 58.7221 81.2124 58.6528 80.207 58.5141V57.4091C81.0564 57.5478 81.7107 57.6171 82.17 57.6171C82.4647 57.6171 82.703 57.5651 82.885 57.4611C83.067 57.3571 83.2057 57.1491 83.301 56.8371C83.3964 56.5338 83.444 56.0875 83.444 55.4981H81.663C80.6577 55.4981 79.9947 55.1905 79.674 54.5751C79.362 53.9598 79.206 53.1971 79.206 52.2871C79.2147 51.4291 79.3057 50.7445 79.479 50.2331C79.661 49.7218 79.9557 49.3491 80.363 49.1151C80.779 48.8725 81.3424 48.7511 82.053 48.7511C82.4517 48.7511 82.9067 48.7815 83.418 48.8421C83.938 48.8941 84.3627 48.9548 84.692 49.0241V54.3931H86.291V55.4981ZM80.441 52.2481C80.441 52.8721 80.545 53.3878 80.753 53.7951C80.961 54.1938 81.3987 54.3931 82.066 54.3931H83.457V49.9471C83.0324 49.8865 82.6554 49.8561 82.326 49.8561C81.624 49.8561 81.1344 50.0425 80.857 50.4151C80.5884 50.7791 80.4497 51.3901 80.441 52.2481ZM94.0775 54.3931V55.4981H86.2905V54.3931H91.4125V51.1951C91.4125 50.3631 90.9879 49.9471 90.1385 49.9471C89.7572 49.9471 88.8602 50.0165 87.4475 50.1551L87.4085 49.2841C87.8765 49.1715 88.4009 49.0761 88.9815 48.9981C89.5709 48.9115 90.0562 48.8681 90.4375 48.8681C91.1222 48.8681 91.6595 49.0371 92.0495 49.3751C92.4395 49.7045 92.6345 50.2678 92.6345 51.0651V54.3931H94.0775ZM89.6055 56.5381H90.7885V57.8121H89.6055V56.5381ZM96.9068 46.2421V55.4981H94.0728V54.3931H95.6718V46.2421H96.9068ZM99.1647 46.2421H100.4V55.4981H99.1647V46.2421ZM104.943 48.7511C105.341 48.7511 105.796 48.7815 106.308 48.8421C106.828 48.8941 107.252 48.9548 107.582 49.0241V54.5881C107.582 55.8968 107.408 56.9108 107.062 57.6301C106.724 58.3581 106.087 58.7221 105.151 58.7221C104.787 58.7221 104.102 58.6528 103.097 58.5141V57.4091C103.946 57.5478 104.6 57.6171 105.06 57.6171C105.354 57.6171 105.593 57.5651 105.775 57.4611C105.957 57.3571 106.095 57.1491 106.191 56.8371C106.286 56.5338 106.334 56.0875 106.334 55.4981H104.553C103.547 55.4981 102.884 55.1905 102.564 54.5751C102.252 53.9598 102.096 53.1971 102.096 52.2871C102.104 51.4291 102.195 50.7445 102.369 50.2331C102.551 49.7218 102.845 49.3491 103.253 49.1151C103.669 48.8725 104.232 48.7511 104.943 48.7511ZM103.331 52.2481C103.331 52.8721 103.435 53.3878 103.643 53.7951C103.851 54.1938 104.288 54.3931 104.956 54.3931H106.347V49.9471C105.922 49.8865 105.545 49.8561 105.216 49.8561C104.514 49.8561 104.024 50.0425 103.747 50.4151C103.478 50.7791 103.339 51.3901 103.331 52.2481ZM125.265 55.4981H118.622V56.0181C118.622 56.5468 118.475 57.0148 118.18 57.4221C117.894 57.8381 117.491 58.1588 116.971 58.3841C116.451 58.6095 115.862 58.7221 115.203 58.7221C114.475 58.7221 113.847 58.5878 113.318 58.3191C112.79 58.0591 112.387 57.7125 112.109 57.2791C111.832 56.8458 111.693 56.3821 111.693 55.8881C111.693 55.3161 111.871 53.9945 112.226 51.9231L113.409 51.9881C113.288 52.7421 113.171 53.4788 113.058 54.1981C112.954 54.9175 112.902 55.3985 112.902 55.6411C112.902 55.9965 112.998 56.3258 113.188 56.6291C113.379 56.9325 113.643 57.1708 113.981 57.3441C114.328 57.5261 114.718 57.6171 115.151 57.6171C115.567 57.6171 115.944 57.5348 116.282 57.3701C116.629 57.2141 116.898 56.9931 117.088 56.7071C117.288 56.4298 117.387 56.1178 117.387 55.7711V48.9981H118.622V51.0781C119.012 50.5928 119.363 50.1985 119.675 49.8951C119.996 49.5918 120.369 49.3448 120.793 49.1541C121.218 48.9635 121.708 48.8681 122.262 48.8681C123.354 48.8681 124.126 49.2061 124.576 49.8821C125.036 50.5495 125.265 51.3338 125.265 52.2351V55.4981ZM122.067 49.9731C120.88 49.9731 119.732 50.8615 118.622 52.6381V54.3931H124.03V52.4431C124.03 51.7411 123.861 51.1561 123.523 50.6881C123.185 50.2115 122.7 49.9731 122.067 49.9731ZM120.845 46.5151H122.028V47.7891H120.845V46.5151ZM129.407 48.7511C129.805 48.7511 130.26 48.7815 130.772 48.8421C131.292 48.8941 131.716 48.9548 132.046 49.0241V54.5881C132.046 55.8968 131.872 56.9108 131.526 57.6301C131.188 58.3581 130.551 58.7221 129.615 58.7221C129.251 58.7221 128.566 58.6528 127.561 58.5141V57.4091C128.41 57.5478 129.064 57.6171 129.524 57.6171C129.818 57.6171 130.057 57.5651 130.239 57.4611C130.421 57.3571 130.559 57.1491 130.655 56.8371C130.75 56.5338 130.798 56.0875 130.798 55.4981H129.017C128.011 55.4981 127.348 55.1905 127.028 54.5751C126.716 53.9598 126.56 53.1971 126.56 52.2871C126.568 51.4291 126.659 50.7445 126.833 50.2331C127.015 49.7218 127.309 49.3491 127.717 49.1151C128.133 48.8725 128.696 48.7511 129.407 48.7511ZM127.795 52.2481C127.795 52.8721 127.899 53.3878 128.107 53.7951C128.315 54.1938 128.752 54.3931 129.42 54.3931H130.811V49.9471C130.386 49.8865 130.009 49.8561 129.68 49.8561C128.978 49.8561 128.488 50.0425 128.211 50.4151C127.942 50.7791 127.803 51.3901 127.795 52.2481ZM138.202 55.4981H136.408V55.5761C136.408 56.5988 136.23 57.3788 135.875 57.9161C135.519 58.4621 134.982 58.7351 134.263 58.7351C134.063 58.7351 133.847 58.7221 133.613 58.6961L133.301 58.6701V57.5781C133.587 57.6041 133.821 57.6171 134.003 57.6171C134.393 57.6171 134.687 57.4611 134.887 57.1491C135.086 56.8371 135.186 56.3995 135.186 55.8361V49.0111H136.408V54.3931H138.202V55.4981ZM146.379 54.3931V55.4981H144.91C144.485 55.4981 144.047 55.4461 143.597 55.3421C143.155 55.2381 142.739 55.0951 142.349 54.9131C141.976 55.0951 141.569 55.2381 141.127 55.3421C140.685 55.4461 140.256 55.4981 139.84 55.4981H138.202V54.3931H139.801C140.243 54.3931 140.698 54.3108 141.166 54.1461C140.533 53.6435 140.026 53.0845 139.645 52.4691C139.272 51.8451 139.077 51.2775 139.06 50.7661L139.021 49.7781C139.541 49.4921 140.082 49.2668 140.646 49.1021C141.218 48.9375 141.781 48.8551 142.336 48.8551C142.89 48.8551 143.454 48.9375 144.026 49.1021C144.606 49.2668 145.161 49.4921 145.69 49.7781L145.638 50.7661C145.62 51.2775 145.421 51.8451 145.04 52.4691C144.667 53.0845 144.16 53.6435 143.519 54.1461C143.995 54.3108 144.455 54.3931 144.897 54.3931H146.379ZM140.269 50.4021C140.269 51.0001 140.451 51.5808 140.815 52.1441C141.187 52.7075 141.699 53.1928 142.349 53.6001C143.007 53.1841 143.523 52.6988 143.896 52.1441C144.268 51.5808 144.455 51.0001 144.455 50.4021C143.657 50.1161 142.955 49.9731 142.349 49.9731C141.751 49.9731 141.057 50.1161 140.269 50.4021ZM149.211 46.2421V55.4981H146.377V54.3931H147.976V46.2421H149.211ZM151.469 46.2421H152.704V55.4981H151.469V46.2421ZM165.707 55.4981H164.199V55.9141C164.199 56.4861 164.047 56.9845 163.744 57.4091C163.449 57.8338 163.042 58.1588 162.522 58.3841C162.01 58.6095 161.438 58.7221 160.806 58.7221C160.138 58.7221 159.536 58.5965 158.999 58.3451C158.461 58.1025 158.037 57.7645 157.725 57.3311C157.421 56.8978 157.27 56.4125 157.27 55.8751C157.27 55.2771 157.439 53.9641 157.777 51.9361L158.947 52.0011C158.817 52.8245 158.704 53.6001 158.609 54.3281C158.522 55.0475 158.479 55.5285 158.479 55.7711C158.479 56.1178 158.578 56.4298 158.778 56.7071C158.977 56.9931 159.25 57.2141 159.597 57.3701C159.952 57.5348 160.342 57.6171 160.767 57.6171C161.391 57.6171 161.911 57.4481 162.327 57.1101C162.751 56.7808 162.964 56.3345 162.964 55.7711V46.2421H164.199V54.3931H165.707V55.4981ZM176.606 54.3931V55.4981H165.712V54.3931H167.558V48.9981H168.78V51.0781C169.17 50.5928 169.521 50.1985 169.833 49.8951C170.154 49.5918 170.527 49.3448 170.951 49.1541C171.376 48.9635 171.866 48.8681 172.42 48.8681C173.512 48.8681 174.284 49.2061 174.734 49.8821C175.194 50.5495 175.423 51.3338 175.423 52.2351V54.3931H176.606ZM172.225 49.9731C171.038 49.9731 169.89 50.8615 168.78 52.6381V54.3931H174.201V52.4431C174.201 51.7411 174.032 51.1561 173.694 50.6881C173.356 50.2115 172.867 49.9731 172.225 49.9731ZM171.016 46.5151H172.199V47.7891H171.016V46.5151ZM183.495 49.1541V55.4981H176.605V54.3931H178.295C178.096 53.8991 177.996 53.2058 177.996 52.3131C177.996 51.4551 178.1 50.7921 178.308 50.3241C178.516 49.8475 178.845 49.5095 179.296 49.3101C179.755 49.1108 180.392 49.0111 181.207 49.0111C181.883 49.0111 182.494 49.0415 183.04 49.1021L183.495 49.1541ZM179.231 52.4041C179.231 52.9675 179.27 53.3965 179.348 53.6911C179.426 53.9771 179.526 54.2111 179.647 54.3931H182.26V50.1421C181.723 50.0988 181.346 50.0771 181.129 50.0771C180.609 50.0771 180.215 50.1508 179.946 50.2981C179.677 50.4455 179.491 50.6838 179.387 51.0131C179.283 51.3425 179.231 51.8061 179.231 52.4041ZM180.375 46.5151H181.558V47.7891H180.375V46.5151ZM185.366 47.3601H186.601V55.4981H185.366V47.3601ZM187.355 46.2811L184.638 46.8141L184.508 46.3461L185.132 46.1771C184.976 46.0558 184.859 45.9128 184.781 45.7481C184.703 45.5748 184.664 45.3971 184.664 45.2151C184.664 44.8858 184.781 44.5998 185.015 44.3571C185.249 44.1145 185.552 43.9931 185.925 43.9931C186.254 43.9931 186.575 44.0971 186.887 44.3051L186.744 44.8901C186.692 44.8468 186.614 44.8035 186.51 44.7601C186.406 44.7168 186.293 44.6951 186.172 44.6951C185.955 44.6951 185.778 44.7688 185.639 44.9161C185.5 45.0548 185.431 45.2238 185.431 45.4231C185.431 45.6658 185.535 45.8651 185.743 46.0211L187.199 45.6311L187.355 46.2811ZM202.71 55.4981H201.111V55.5631C201.111 56.5598 200.856 57.3355 200.344 57.8901C199.842 58.4448 199.122 58.7221 198.186 58.7221H194.702C194.078 58.7221 193.493 58.6051 192.947 58.3711C192.41 58.1458 191.977 57.8121 191.647 57.3701C191.318 56.9368 191.153 56.4298 191.153 55.8491C191.153 55.3291 191.266 54.4018 191.491 53.0671L192.648 53.2491C192.475 54.4451 192.388 55.2338 192.388 55.6151C192.388 56.0051 192.488 56.3518 192.687 56.6551C192.887 56.9585 193.155 57.1925 193.493 57.3571C193.84 57.5305 194.221 57.6171 194.637 57.6171H198.108C198.689 57.6171 199.127 57.4438 199.421 57.0971C199.716 56.7505 199.863 56.2695 199.863 55.6541V55.4981H199.629C199.309 55.4981 199.005 55.4678 198.719 55.4071C198.433 55.3465 198.16 55.2295 197.9 55.0561L198.42 54.1201C198.594 54.2415 198.771 54.3195 198.953 54.3541C199.135 54.3801 199.395 54.3931 199.733 54.3931H202.71V55.4981ZM207.101 54.3931V55.4981H202.707V54.3931H204.306V46.2421H205.541V54.3931H207.101ZM214.028 54.3931V55.4981H207.099V54.3931H209.348C209.149 54.1331 208.975 53.7908 208.828 53.3661C208.689 52.9415 208.62 52.4735 208.62 51.9621C208.62 51.3208 208.741 50.7661 208.984 50.2981C209.227 49.8301 209.565 49.4748 209.998 49.2321C210.431 48.9808 210.925 48.8551 211.48 48.8551C211.809 48.8551 212.173 48.9028 212.572 48.9981C212.971 49.0848 213.326 49.2105 213.638 49.3751L213.586 50.4931C213.413 50.3891 213.122 50.2765 212.715 50.1551C212.308 50.0338 211.939 49.9731 211.61 49.9731C211.081 49.9731 210.657 50.1508 210.336 50.5061C210.015 50.8615 209.855 51.3685 209.855 52.0271C209.855 52.5385 209.946 53.0021 210.128 53.4181C210.31 53.8255 210.535 54.1505 210.804 54.3931H214.028ZM226.251 55.4981H224.743V55.9141C224.743 56.4861 224.591 56.9845 224.288 57.4091C223.993 57.8338 223.586 58.1588 223.066 58.3841C222.554 58.6095 221.982 58.7221 221.35 58.7221C220.682 58.7221 220.08 58.5965 219.543 58.3451C219.005 58.1025 218.581 57.7645 218.269 57.3311C217.965 56.8978 217.814 56.4125 217.814 55.8751C217.814 55.2771 217.983 53.9641 218.321 51.9361L219.491 52.0011C219.361 52.8245 219.248 53.6001 219.153 54.3281C219.066 55.0475 219.023 55.5285 219.023 55.7711C219.023 56.1178 219.122 56.4298 219.322 56.7071C219.521 56.9931 219.794 57.2141 220.141 57.3701C220.496 57.5348 220.886 57.6171 221.311 57.6171C221.935 57.6171 222.455 57.4481 222.871 57.1101C223.295 56.7808 223.508 56.3345 223.508 55.7711V46.2421H224.743V54.3931H226.251V55.4981ZM237.15 54.3931V55.4981H226.256V54.3931H228.102V48.9981H229.324V51.0781C229.714 50.5928 230.065 50.1985 230.377 49.8951C230.698 49.5918 231.071 49.3448 231.495 49.1541C231.92 48.9635 232.41 48.8681 232.964 48.8681C234.056 48.8681 234.828 49.2061 235.278 49.8821C235.738 50.5495 235.967 51.3338 235.967 52.2351V54.3931H237.15ZM232.769 49.9731C231.582 49.9731 230.434 50.8615 229.324 52.6381V54.3931H234.745V52.4431C234.745 51.7411 234.576 51.1561 234.238 50.6881C233.9 50.2115 233.411 49.9731 232.769 49.9731ZM241.296 48.8681C241.981 48.8681 242.518 49.0371 242.908 49.3751C243.298 49.7045 243.493 50.2678 243.493 51.0651V55.4981H237.149V54.3931H242.271V51.1951C242.271 50.3631 241.846 49.9471 240.997 49.9471C240.616 49.9471 239.719 50.0165 238.306 50.1551L238.267 49.2841C238.735 49.1715 239.259 49.0761 239.84 48.9981C240.429 48.9115 240.915 48.8681 241.296 48.8681ZM245.402 46.2421H246.637V55.4981H245.402V46.2421ZM251.18 48.7511C251.579 48.7511 252.034 48.7815 252.545 48.8421C253.065 48.8941 253.49 48.9548 253.819 49.0241V54.5881C253.819 55.8968 253.646 56.9108 253.299 57.6301C252.961 58.3581 252.324 58.7221 251.388 58.7221C251.024 58.7221 250.339 58.6528 249.334 58.5141V57.4091C250.183 57.5478 250.838 57.6171 251.297 57.6171C251.592 57.6171 251.83 57.5651 252.012 57.4611C252.194 57.3571 252.333 57.1491 252.428 56.8371C252.523 56.5338 252.571 56.0875 252.571 55.4981H250.79C249.785 55.4981 249.122 55.1905 248.801 54.5751C248.489 53.9598 248.333 53.1971 248.333 52.2871C248.342 51.4291 248.433 50.7445 248.606 50.2331C248.788 49.7218 249.083 49.3491 249.49 49.1151C249.906 48.8725 250.469 48.7511 251.18 48.7511ZM249.568 52.2481C249.568 52.8721 249.672 53.3878 249.88 53.7951C250.088 54.1938 250.526 54.3931 251.193 54.3931H252.584V49.9471C252.159 49.8865 251.782 49.8561 251.453 49.8561C250.751 49.8561 250.261 50.0425 249.984 50.4151C249.715 50.7791 249.577 51.3901 249.568 52.2481Z" fill="#4E5556"/>
</svg>
