<svg width="282" height="60" viewBox="0 0 282 60" fill="none" xmlns="http://www.w3.org/2000/svg">
<path d="M22.777 13V11.921H24.181V13H22.777ZM21.568 13V3.718H22.777V13H21.568ZM20.021 13V11.921H21.568V13H20.021ZM20.021 13C19.9083 13 19.8347 12.9523 19.8 12.857C19.774 12.753 19.761 12.6187 19.761 12.454C19.761 12.2893 19.774 12.1593 19.8 12.064C19.8347 11.9687 19.9083 11.921 20.021 11.921V13ZM14.366 16.224C13.846 16.224 13.3607 16.1503 12.91 16.003C12.468 15.8557 12.078 15.6477 11.74 15.379C11.4107 15.119 11.1507 14.807 10.96 14.443C10.778 14.079 10.687 13.6847 10.687 13.26C10.687 13.0867 10.7 12.8613 10.726 12.584C10.7607 12.298 10.7997 11.9817 10.843 11.635C10.895 11.2797 10.9513 10.9157 11.012 10.543L12.208 10.699C12.1127 11.271 12.0347 11.791 11.974 12.259C11.922 12.7183 11.896 13.0433 11.896 13.234C11.896 13.6067 12 13.936 12.208 14.222C12.416 14.508 12.7063 14.7333 13.079 14.898C13.4517 15.0627 13.8807 15.145 14.366 15.145H18.045C18.6777 15.145 19.1543 14.9717 19.475 14.625C19.8043 14.287 19.969 13.7887 19.969 13.13V12.675H21.178V13.13C21.178 13.7367 21.0523 14.2697 20.801 14.729C20.5583 15.197 20.203 15.561 19.735 15.821C19.2757 16.0897 18.7123 16.224 18.045 16.224H14.366ZM19.267 13C18.9463 13 18.6257 12.9653 18.305 12.896C17.9843 12.8267 17.6723 12.6923 17.369 12.493L18.058 11.596C18.1793 11.674 18.2963 11.739 18.409 11.791C18.5217 11.843 18.6473 11.8777 18.786 11.895C18.9247 11.9123 19.085 11.921 19.267 11.921H21.841V13H19.267ZM21.841 13V11.921C21.945 11.921 22.0143 11.9687 22.049 12.064C22.0837 12.1593 22.101 12.2893 22.101 12.454C22.101 12.6187 22.0837 12.753 22.049 12.857C22.0143 12.9523 21.945 13 21.841 13ZM24.181 13V11.921C24.285 11.921 24.3543 11.9687 24.389 12.064C24.4237 12.1593 24.441 12.2893 24.441 12.454C24.441 12.6187 24.4237 12.753 24.389 12.857C24.3543 12.9523 24.285 13 24.181 13ZM26.8996 12.909C26.4403 12.5103 26.0893 12.0597 25.8466 11.557C25.604 11.0543 25.4826 10.5213 25.4826 9.958C25.4826 9.45533 25.5736 8.99167 25.7556 8.567C25.9376 8.14233 26.1803 7.774 26.4836 7.462C26.7956 7.15 27.164 6.91167 27.5886 6.747C28.0133 6.57367 28.464 6.487 28.9406 6.487C29.192 6.487 29.4606 6.513 29.7466 6.565C30.0413 6.617 30.323 6.69067 30.5916 6.786L30.1886 7.813C29.9806 7.735 29.7726 7.67867 29.5646 7.644C29.3566 7.60067 29.1573 7.579 28.9666 7.579C28.5246 7.579 28.1303 7.683 27.7836 7.891C27.4456 8.09033 27.1813 8.36767 26.9906 8.723C26.8 9.07833 26.7046 9.48567 26.7046 9.945C26.7046 10.8203 27.0426 11.544 27.7186 12.116L26.8996 12.909ZM24.1826 13V11.921H30.7346V13H24.1826ZM24.1826 13C24.07 13 24.0006 12.9523 23.9746 12.857C23.94 12.753 23.9226 12.6187 23.9226 12.454C23.9226 12.2893 23.94 12.1593 23.9746 12.064C24.0006 11.9687 24.07 11.921 24.1826 11.921V13ZM40.3109 15.899L40.4929 16.887C40.0856 16.965 39.7086 17.0257 39.3619 17.069C39.0239 17.121 38.6989 17.147 38.3869 17.147C37.7369 17.147 37.1693 17.043 36.6839 16.835C36.2073 16.6357 35.8389 16.3367 35.5789 15.938C35.3189 15.548 35.1889 15.08 35.1889 14.534C35.1889 14.0833 35.2713 13.6717 35.4359 13.299C35.6093 12.935 35.8519 12.6187 36.1639 12.35C36.4846 12.0813 36.8616 11.8777 37.2949 11.739L37.6199 11.596C37.9406 11.466 38.2613 11.3187 38.5819 11.154C38.9026 10.9893 39.2146 10.803 39.5179 10.595C39.8213 10.387 40.0899 10.1573 40.3239 9.906C40.5579 9.65467 40.7443 9.386 40.8829 9.1C41.0216 8.80533 41.0909 8.49333 41.0909 8.164V7.371L41.7149 8.346C41.2383 8.086 40.7573 7.89533 40.2719 7.774C39.7866 7.644 39.3186 7.579 38.8679 7.579C38.4173 7.579 37.9493 7.644 37.4639 7.774C36.9873 7.89533 36.5106 8.086 36.0339 8.346L36.6579 7.371V8.164C36.6579 8.46733 36.7316 8.788 36.8789 9.126C37.0349 9.464 37.2473 9.79767 37.5159 10.127C37.7933 10.4563 38.1139 10.7553 38.4779 11.024C38.8506 11.2927 39.2579 11.5093 39.6999 11.674C40.1419 11.8387 40.6013 11.921 41.0779 11.921H42.9889V13H41.2209C40.5449 13 39.9123 12.8917 39.3229 12.675C38.7336 12.4583 38.2006 12.1723 37.7239 11.817C37.2473 11.453 36.8356 11.0587 36.4889 10.634C36.1509 10.2007 35.8909 9.77167 35.7089 9.347C35.5269 8.91367 35.4359 8.51933 35.4359 8.164V7.397C35.8086 7.19767 36.1899 7.033 36.5799 6.903C36.9786 6.76433 37.3729 6.66033 37.7629 6.591C38.1529 6.52167 38.5213 6.487 38.8679 6.487C39.2233 6.487 39.5916 6.52167 39.9729 6.591C40.3629 6.66033 40.7529 6.76433 41.1429 6.903C41.5329 7.033 41.9143 7.19767 42.2869 7.397V8.164C42.2869 8.658 42.1829 9.113 41.9749 9.529C41.7756 9.93633 41.5113 10.3047 41.1819 10.634C40.8526 10.9633 40.4886 11.258 40.0899 11.518C39.6999 11.7693 39.3143 11.9817 38.9329 12.155C38.8463 12.1897 38.7336 12.2417 38.5949 12.311C38.4563 12.3717 38.3133 12.4367 38.1659 12.506C38.0186 12.5667 37.8843 12.6187 37.7629 12.662C37.6503 12.7053 37.5853 12.7357 37.5679 12.753C37.2646 12.9003 36.9959 13.1083 36.7619 13.377C36.5279 13.6457 36.4109 14.027 36.4109 14.521C36.4109 15.0237 36.5713 15.405 36.8919 15.665C37.2126 15.9337 37.7109 16.068 38.3869 16.068C38.5949 16.068 38.8549 16.0507 39.1669 16.016C39.4789 15.99 39.8603 15.951 40.3109 15.899ZM42.9889 13V11.921C43.0929 11.921 43.1623 11.9687 43.1969 12.064C43.2316 12.1593 43.2489 12.2893 43.2489 12.454C43.2489 12.6187 43.2316 12.753 43.1969 12.857C43.1623 12.9523 43.0929 13 42.9889 13ZM45.7404 13V11.921H47.1444V13H45.7404ZM44.5314 13V3.718H45.7404V13H44.5314ZM42.9844 13V11.921H44.5314V13H42.9844ZM42.9844 13C42.8717 13 42.8024 12.9523 42.7764 12.857C42.7417 12.753 42.7244 12.6187 42.7244 12.454C42.7244 12.2893 42.7417 12.1593 42.7764 12.064C42.8024 11.9687 42.8717 11.921 42.9844 11.921V13ZM47.1444 13V11.921C47.2484 11.921 47.3177 11.9687 47.3524 12.064C47.387 12.1593 47.4044 12.2893 47.4044 12.454C47.4044 12.6187 47.387 12.753 47.3524 12.857C47.3177 12.9523 47.2484 13 47.1444 13ZM47.1484 13V11.921H55.8974L54.8054 12.883V9.906C54.8054 9.37733 54.7318 8.944 54.5844 8.606C54.4458 8.25933 54.2334 8.00367 53.9474 7.839C53.6614 7.66567 53.3061 7.579 52.8814 7.579C52.5088 7.579 52.1578 7.644 51.8284 7.774C51.4991 7.904 51.1958 8.07733 50.9184 8.294C50.6411 8.502 50.3811 8.73167 50.1384 8.983C49.8958 9.23433 49.6748 9.48567 49.4754 9.737C49.2848 9.98833 49.1114 10.2137 48.9554 10.413L48.5914 9.399C48.8861 9.02633 49.1764 8.671 49.4624 8.333C49.7484 7.98633 50.0561 7.67433 50.3854 7.397C50.7234 7.11967 51.0961 6.89867 51.5034 6.734C51.9194 6.56933 52.3961 6.487 52.9334 6.487C53.5401 6.487 54.0428 6.591 54.4414 6.799C54.8401 7.007 55.1521 7.28 55.3774 7.618C55.6114 7.956 55.7761 8.32867 55.8714 8.736C55.9668 9.13467 56.0144 9.52467 56.0144 9.906V13H47.1484ZM48.0194 11.921V3.718H49.2284V11.921H48.0194ZM47.1484 13C47.0358 13 46.9664 12.9523 46.9404 12.857C46.9058 12.753 46.8884 12.6187 46.8884 12.454C46.8884 12.2893 46.9058 12.1593 46.9404 12.064C46.9664 11.9687 47.0358 11.921 47.1484 11.921V13ZM58.1839 13V3.718H59.3929V13H58.1839ZM64.2809 13V11.362H65.5809V13H64.2809ZM69.8918 13C69.1378 13 68.5442 12.8873 68.1108 12.662C67.6775 12.428 67.3655 12.0727 67.1748 11.596C66.9928 11.1107 66.9018 10.4997 66.9018 9.763C66.9018 9.01767 66.9928 8.40233 67.1748 7.917C67.3655 7.43167 67.6775 7.072 68.1108 6.838C68.5442 6.604 69.1378 6.487 69.8918 6.487H72.6478V12.402H71.4388V7.15L71.9328 7.579H69.8918C69.4325 7.579 69.0728 7.63533 68.8128 7.748C68.5528 7.852 68.3708 8.06433 68.2668 8.385C68.1628 8.697 68.1108 9.15633 68.1108 9.763C68.1108 10.361 68.1628 10.816 68.2668 11.128C68.3708 11.4313 68.5485 11.6393 68.7998 11.752C69.0598 11.8647 69.4238 11.921 69.8918 11.921H74.0388V13H69.8918ZM74.0388 13V11.921C74.1515 11.921 74.2208 11.9687 74.2468 12.064C74.2815 12.1593 74.2988 12.2893 74.2988 12.454C74.2988 12.6187 74.2815 12.753 74.2468 12.857C74.2208 12.9523 74.1515 13 74.0388 13ZM68.5398 5.434V4.173H69.7618V5.434H68.5398ZM70.3208 5.434V4.173H71.5428V5.434H70.3208ZM74.0371 13V11.921H76.2471L75.6231 12.415V6.487H76.8321V13H74.0371ZM74.0371 13C73.9244 13 73.8551 12.9523 73.8291 12.857C73.7944 12.753 73.7771 12.6187 73.7771 12.454C73.7771 12.2893 73.7944 12.1593 73.8291 12.064C73.8551 11.9687 73.9244 11.921 74.0371 11.921V13ZM74.5571 15.444V14.183H75.7791V15.444H74.5571ZM76.3381 15.444V14.183H77.5601V15.444H76.3381ZM80.2894 13V11.921H81.8494V13H80.2894ZM79.0804 13V3.718H80.2894V13H79.0804ZM81.8494 13V11.921C81.9534 11.921 82.0227 11.9687 82.0574 12.064C82.0921 12.1593 82.1094 12.2893 82.1094 12.454C82.1094 12.6187 82.0921 12.753 82.0574 12.857C82.0227 12.9523 81.9534 13 81.8494 13ZM84.4577 13V11.921H85.8487V13H84.4577ZM81.8447 13V11.921H83.8597L83.2357 12.415V6.487H84.4577V13H81.8447ZM81.8447 13C81.7321 13 81.6627 12.9523 81.6367 12.857C81.6021 12.753 81.5847 12.6187 81.5847 12.454C81.5847 12.2893 81.6021 12.1593 81.6367 12.064C81.6627 11.9687 81.7321 11.921 81.8447 11.921V13ZM85.8487 13V11.921C85.9614 11.921 86.0307 11.9687 86.0567 12.064C86.0914 12.1593 86.1087 12.2893 86.1087 12.454C86.1087 12.6187 86.0914 12.753 86.0567 12.857C86.0307 12.9523 85.9614 13 85.8487 13ZM83.2357 5.317V4.056H84.4577V5.317H83.2357ZM85.8438 13V11.921H87.8718C88.3484 11.921 88.8034 11.8387 89.2368 11.674C89.6788 11.5093 90.0861 11.2927 90.4588 11.024C90.8314 10.7553 91.1521 10.4563 91.4208 10.127C91.6981 9.79767 91.9148 9.464 92.0708 9.126C92.2268 8.788 92.3048 8.46733 92.3048 8.164V7.371L92.9288 8.346C92.4348 8.086 91.9451 7.89533 91.4598 7.774C90.9831 7.644 90.5194 7.579 90.0688 7.579C89.6268 7.579 89.1631 7.644 88.6778 7.774C88.2011 7.89533 87.7201 8.086 87.2348 8.346L87.8588 7.371V8.164C87.8588 8.46733 87.9368 8.788 88.0928 9.126C88.2488 9.464 88.4611 9.79767 88.7298 10.127C88.9984 10.4563 89.3191 10.7553 89.6918 11.024C90.0644 11.2927 90.4674 11.5093 90.9008 11.674C91.3428 11.8387 91.8021 11.921 92.2788 11.921H94.2288V13H92.4348C91.7588 13 91.1261 12.8917 90.5368 12.675C89.9474 12.4583 89.4144 12.1723 88.9378 11.817C88.4611 11.453 88.0494 11.0587 87.7028 10.634C87.3648 10.2007 87.1048 9.77167 86.9228 9.347C86.7408 8.91367 86.6498 8.51933 86.6498 8.164V7.397C87.0224 7.19767 87.4038 7.033 87.7938 6.903C88.1838 6.76433 88.5738 6.66033 88.9638 6.591C89.3538 6.52167 89.7221 6.487 90.0688 6.487C90.4328 6.487 90.8054 6.52167 91.1868 6.591C91.5681 6.66033 91.9538 6.76433 92.3438 6.903C92.7424 7.033 93.1281 7.19767 93.5008 7.397V8.164C93.5008 8.51933 93.4098 8.91367 93.2278 9.347C93.0458 9.77167 92.7814 10.2007 92.4348 10.634C92.0968 11.0587 91.6894 11.453 91.2128 11.817C90.7361 12.1723 90.2031 12.4583 89.6138 12.675C89.0244 12.8917 88.3918 13 87.7158 13H85.8438ZM85.8438 13C85.7311 13 85.6617 12.9523 85.6357 12.857C85.6011 12.753 85.5837 12.6187 85.5837 12.454C85.5837 12.2893 85.6011 12.1593 85.6357 12.064C85.6617 11.9687 85.7311 11.921 85.8438 11.921V13ZM94.2288 13V11.921C94.3414 11.921 94.4108 11.9687 94.4368 12.064C94.4714 12.1593 94.4888 12.2893 94.4888 12.454C94.4888 12.6187 94.4714 12.753 94.4368 12.857C94.4108 12.9523 94.3414 13 94.2288 13ZM94.2227 13V11.921H96.2377L95.6137 12.415V6.487H96.8357V13H94.2227ZM94.2227 13C94.11 13 94.0407 12.9523 94.0147 12.857C93.98 12.753 93.9627 12.6187 93.9627 12.454C93.9627 12.2893 93.98 12.1593 94.0147 12.064C94.0407 11.9687 94.11 11.921 94.2227 11.921V13ZM95.6137 15.457V14.196H96.8357V15.457H95.6137ZM101.217 13V9.919C101.217 9.087 101.343 8.41967 101.594 7.917C101.846 7.41433 102.218 7.05033 102.712 6.825C103.215 6.59967 103.835 6.487 104.571 6.487C105.317 6.487 105.936 6.59967 106.43 6.825C106.924 7.05033 107.297 7.41433 107.548 7.917C107.8 8.41967 107.925 9.087 107.925 9.919V13H101.217ZM102.426 12.454L101.815 11.921H107.327L106.716 12.454V9.945C106.716 9.347 106.651 8.87467 106.521 8.528C106.4 8.18133 106.179 7.93867 105.858 7.8C105.546 7.65267 105.117 7.579 104.571 7.579C104.025 7.579 103.596 7.65267 103.284 7.8C102.972 7.93867 102.751 8.18133 102.621 8.528C102.491 8.87467 102.426 9.347 102.426 9.945V12.454ZM103.102 5.434V4.173H104.324V5.434H103.102ZM104.883 5.434V4.173H106.105V5.434H104.883ZM108.662 15.977C108.55 15.977 108.433 15.9683 108.311 15.951C108.181 15.9423 108.051 15.9337 107.921 15.925L108.025 14.846C108.155 14.8547 108.277 14.8633 108.389 14.872C108.493 14.8807 108.58 14.885 108.649 14.885C109.039 14.885 109.351 14.7377 109.585 14.443C109.828 14.1483 109.949 13.7367 109.949 13.208V6.487H111.171V13.208C111.171 13.754 111.063 14.235 110.846 14.651C110.63 15.067 110.335 15.392 109.962 15.626C109.59 15.86 109.156 15.977 108.662 15.977ZM114.503 13V11.921H116.063V13H114.503ZM113.294 13V3.718H114.503V13H113.294ZM116.063 13V11.921C116.167 11.921 116.237 11.9687 116.271 12.064C116.306 12.1593 116.323 12.2893 116.323 12.454C116.323 12.6187 116.306 12.753 116.271 12.857C116.237 12.9523 116.167 13 116.063 13ZM118.854 13V11.921H120.323V13H118.854ZM120.323 13V11.921C120.435 11.921 120.505 11.9687 120.531 12.064C120.565 12.1593 120.583 12.2893 120.583 12.454C120.583 12.6187 120.565 12.753 120.531 12.857C120.505 12.9523 120.435 13 120.323 13ZM116.059 13V11.921H118.269L117.645 12.415V6.487H118.854V13H116.059ZM116.059 13C115.946 13 115.877 12.9523 115.851 12.857C115.816 12.753 115.799 12.6187 115.799 12.454C115.799 12.2893 115.816 12.1593 115.851 12.064C115.877 11.9687 115.946 11.921 116.059 11.921V13ZM116.579 5.434V4.173H117.801V5.434H116.579ZM118.36 5.434V4.173H119.582V5.434H118.36ZM126.837 13V11.921H128.241V13H126.837ZM120.324 13V11.921H126.018L125.628 12.246V9.243C125.628 8.697 125.455 8.28533 125.108 8.008C124.77 7.73067 124.242 7.592 123.522 7.592C123.306 7.592 122.994 7.60933 122.586 7.644C122.188 7.67867 121.763 7.73067 121.312 7.8L121.182 6.812C121.538 6.72533 121.923 6.65167 122.339 6.591C122.755 6.52167 123.158 6.487 123.548 6.487C124.224 6.487 124.805 6.59533 125.29 6.812C125.784 7.02867 126.166 7.345 126.434 7.761C126.703 8.16833 126.837 8.66233 126.837 9.243V13H120.324ZM120.324 13C120.212 13 120.142 12.9523 120.116 12.857C120.082 12.753 120.064 12.6187 120.064 12.454C120.064 12.2893 120.082 12.1593 120.116 12.064C120.142 11.9687 120.212 11.921 120.324 11.921V13ZM128.241 13V11.921C128.345 11.921 128.415 11.9687 128.449 12.064C128.484 12.1593 128.501 12.2893 128.501 12.454C128.501 12.6187 128.484 12.753 128.449 12.857C128.415 12.9523 128.345 13 128.241 13ZM122.937 5.564V4.303H124.159V5.564H122.937ZM135.708 13V11.921H137.099V13H135.708ZM128.246 13V11.921H135.253L134.486 12.493V9.802C134.486 9.23 134.421 8.78367 134.291 8.463C134.17 8.14233 133.953 7.91267 133.641 7.774C133.329 7.63533 132.904 7.566 132.367 7.566C132.003 7.566 131.643 7.592 131.288 7.644C130.933 7.696 130.655 7.76533 130.456 7.852L131.197 7.124C131.145 7.32333 131.093 7.579 131.041 7.891C130.989 8.203 130.946 8.541 130.911 8.905C130.876 9.26033 130.859 9.61567 130.859 9.971C130.859 10.3263 130.876 10.6773 130.911 11.024C130.946 11.3707 130.985 11.674 131.028 11.934C131.071 12.194 131.106 12.3717 131.132 12.467L129.975 12.792C129.94 12.6793 129.897 12.4843 129.845 12.207C129.802 11.9297 129.758 11.596 129.715 11.206C129.68 10.816 129.663 10.4043 129.663 9.971C129.663 9.54633 129.68 9.13467 129.715 8.736C129.758 8.32867 129.806 7.96033 129.858 7.631C129.919 7.30167 129.975 7.03733 130.027 6.838C130.226 6.76 130.534 6.682 130.95 6.604C131.375 6.526 131.847 6.487 132.367 6.487C133.104 6.487 133.719 6.59533 134.213 6.812C134.716 7.02867 135.088 7.37967 135.331 7.865C135.582 8.34167 135.708 8.98733 135.708 9.802V13H128.246ZM128.246 13C128.133 13 128.064 12.9523 128.038 12.857C128.003 12.753 127.986 12.6187 127.986 12.454C127.986 12.2893 128.003 12.1593 128.038 12.064C128.064 11.9687 128.133 11.921 128.246 11.921V13ZM137.099 13V11.921C137.212 11.921 137.281 11.9687 137.307 12.064C137.342 12.1593 137.359 12.2893 137.359 12.454C137.359 12.6187 137.342 12.753 137.307 12.857C137.281 12.9523 137.212 13 137.099 13ZM138.642 13V3.718H139.851V13H138.642ZM137.095 13V11.921H138.642V13H137.095ZM137.095 13C136.982 13 136.913 12.9523 136.887 12.857C136.852 12.753 136.835 12.6187 136.835 12.454C136.835 12.2893 136.852 12.1593 136.887 12.064C136.913 11.9687 136.982 11.921 137.095 11.921V13ZM142.049 13V3.718H143.258V13H142.049ZM150.837 13C150.083 13 149.489 12.8873 149.056 12.662C148.623 12.428 148.311 12.0727 148.12 11.596C147.938 11.1107 147.847 10.4997 147.847 9.763C147.847 9.01767 147.938 8.40233 148.12 7.917C148.311 7.43167 148.623 7.072 149.056 6.838C149.489 6.604 150.083 6.487 150.837 6.487H153.593V12.402H152.384V7.15L152.878 7.579H150.837C150.378 7.579 150.018 7.63533 149.758 7.748C149.498 7.852 149.316 8.06433 149.212 8.385C149.108 8.697 149.056 9.15633 149.056 9.763C149.056 10.361 149.108 10.816 149.212 11.128C149.316 11.4313 149.494 11.6393 149.745 11.752C150.005 11.8647 150.369 11.921 150.837 11.921H154.984V13H150.837ZM154.984 13V11.921C155.097 11.921 155.166 11.9687 155.192 12.064C155.227 12.1593 155.244 12.2893 155.244 12.454C155.244 12.6187 155.227 12.753 155.192 12.857C155.166 12.9523 155.097 13 154.984 13ZM154.982 13V11.921H161.482L161.066 12.285V10.114C161.066 9.65467 161.006 9.27767 160.884 8.983C160.772 8.67967 160.598 8.45867 160.364 8.32C160.13 8.17267 159.84 8.099 159.493 8.099H156.646L155.814 6.864L156.412 5.733C156.508 5.55967 156.607 5.37767 156.711 5.187C156.824 4.98767 156.958 4.76233 157.114 4.511C157.279 4.251 157.487 3.939 157.738 3.575L158.752 4.16C158.51 4.53267 158.31 4.84033 158.154 5.083C158.007 5.32567 157.881 5.538 157.777 5.72C157.673 5.89333 157.574 6.06667 157.478 6.24L156.867 7.41L156.607 7.02H159.493C160.039 7.02 160.494 7.11533 160.858 7.306C161.222 7.488 161.504 7.73067 161.703 8.034C161.911 8.33733 162.059 8.67533 162.145 9.048C162.241 9.412 162.288 9.76733 162.288 10.114V13H154.982ZM154.982 13C154.87 13 154.8 12.9523 154.774 12.857C154.74 12.753 154.722 12.6187 154.722 12.454C154.722 12.2893 154.74 12.1593 154.774 12.064C154.8 11.9687 154.87 11.921 154.982 11.921V13ZM164.456 13V3.718H165.665V13H164.456ZM173.157 13V11.921H174.548V13H173.157ZM169.959 15.977C169.647 15.977 169.317 15.951 168.971 15.899C168.633 15.8557 168.26 15.7907 167.853 15.704L168.035 14.729C168.494 14.781 168.875 14.82 169.179 14.846C169.482 14.872 169.742 14.885 169.959 14.885C170.652 14.885 171.155 14.755 171.467 14.495C171.787 14.235 171.948 13.858 171.948 13.364V7.254L172.442 7.579H170.401C169.941 7.579 169.582 7.63533 169.322 7.748C169.062 7.852 168.88 8.06433 168.776 8.385C168.672 8.697 168.62 9.15633 168.62 9.763C168.62 10.361 168.672 10.816 168.776 11.128C168.88 11.4313 169.057 11.6393 169.309 11.752C169.569 11.8647 169.933 11.921 170.401 11.921H171.948V13H170.401C169.647 13 169.053 12.8873 168.62 12.662C168.186 12.428 167.874 12.0727 167.684 11.596C167.502 11.1107 167.411 10.4997 167.411 9.763C167.411 9.01767 167.502 8.40233 167.684 7.917C167.874 7.43167 168.186 7.072 168.62 6.838C169.053 6.604 169.647 6.487 170.401 6.487H173.157V13.351C173.157 13.9057 173.027 14.378 172.767 14.768C172.507 15.1667 172.138 15.4657 171.662 15.665C171.185 15.873 170.617 15.977 169.959 15.977ZM174.548 13V11.921C174.66 11.921 174.73 11.9687 174.756 12.064C174.79 12.1593 174.808 12.2893 174.808 12.454C174.808 12.6187 174.79 12.753 174.756 12.857C174.73 12.9523 174.66 13 174.548 13ZM181.553 13V11.921H182.944V13H181.553ZM174.546 13V11.921H180.968L180.344 12.467V7.15L180.851 7.579H178.797C178.329 7.579 177.965 7.63533 177.705 7.748C177.445 7.86067 177.263 8.073 177.159 8.385C177.064 8.697 177.016 9.152 177.016 9.75C177.016 10.348 177.064 10.803 177.159 11.115C177.263 11.427 177.445 11.6393 177.705 11.752C177.965 11.8647 178.329 11.921 178.797 11.921V12.766C178.043 12.766 177.449 12.6707 177.016 12.48C176.583 12.2893 176.271 11.973 176.08 11.531C175.898 11.089 175.807 10.4953 175.807 9.75C175.807 9.01333 175.898 8.40667 176.08 7.93C176.271 7.44467 176.583 7.085 177.016 6.851C177.449 6.60833 178.043 6.487 178.797 6.487H181.553V13H174.546ZM174.546 13C174.433 13 174.364 12.9523 174.338 12.857C174.303 12.753 174.286 12.6187 174.286 12.454C174.286 12.2893 174.303 12.1593 174.338 12.064C174.364 11.9687 174.433 11.921 174.546 11.921V13ZM182.944 13V11.921C183.057 11.921 183.126 11.9687 183.152 12.064C183.187 12.1593 183.204 12.2893 183.204 12.454C183.204 12.6187 183.187 12.753 183.152 12.857C183.126 12.9523 183.057 13 182.944 13ZM178.381 5.317V4.056H179.603V5.317H178.381ZM184.497 13V3.718H185.706V13H184.497ZM182.95 13V11.921H184.497V13H182.95ZM182.95 13C182.838 13 182.768 12.9523 182.742 12.857C182.708 12.753 182.69 12.6187 182.69 12.454C182.69 12.2893 182.708 12.1593 182.742 12.064C182.768 11.9687 182.838 11.921 182.95 11.921V13ZM187.905 13V3.718H189.114V13H187.905ZM201.009 13V11.921H202.4V13H201.009ZM197.434 16.224C196.732 16.224 196.095 16.094 195.523 15.834C194.959 15.5827 194.513 15.223 194.184 14.755C193.863 14.2957 193.703 13.7713 193.703 13.182C193.703 13 193.716 12.7617 193.742 12.467C193.776 12.1723 193.815 11.843 193.859 11.479C193.911 11.115 193.963 10.7467 194.015 10.374C194.075 10.0013 194.132 9.64167 194.184 9.295L195.393 9.477C195.297 10.075 195.211 10.6253 195.133 11.128C195.063 11.622 195.007 12.0467 194.964 12.402C194.929 12.7487 194.912 13.0087 194.912 13.182C194.912 13.5633 195.016 13.9013 195.224 14.196C195.432 14.4907 195.726 14.7203 196.108 14.885C196.489 15.0583 196.931 15.145 197.434 15.145C197.936 15.145 198.361 15.0627 198.708 14.898C199.063 14.742 199.332 14.5253 199.514 14.248C199.696 13.9707 199.787 13.6413 199.787 13.26V3.718H201.009V13.26C201.009 13.8753 200.848 14.404 200.528 14.846C200.207 15.288 199.778 15.626 199.241 15.86C198.703 16.1027 198.101 16.224 197.434 16.224ZM202.4 13V11.921C202.512 11.921 202.582 11.9687 202.608 12.064C202.642 12.1593 202.66 12.2893 202.66 12.454C202.66 12.6187 202.642 12.753 202.608 12.857C202.582 12.9523 202.512 13 202.4 13ZM212.201 13V11.921H213.592V13H212.201ZM202.399 13V11.921H212.071L210.979 12.883V9.906C210.979 9.37733 210.906 8.944 210.758 8.606C210.62 8.25933 210.407 8.00367 210.121 7.839C209.835 7.66567 209.48 7.579 209.055 7.579C208.683 7.579 208.332 7.644 208.002 7.774C207.673 7.904 207.37 8.07733 207.092 8.294C206.815 8.502 206.555 8.73167 206.312 8.983C206.07 9.23433 205.849 9.48567 205.649 9.737C205.459 9.98833 205.285 10.2137 205.129 10.413L204.778 9.399C205.03 9.09567 205.272 8.801 205.506 8.515C205.74 8.22033 205.979 7.95167 206.221 7.709C206.473 7.46633 206.737 7.254 207.014 7.072C207.3 6.89 207.612 6.747 207.95 6.643C208.297 6.539 208.687 6.487 209.12 6.487C209.727 6.487 210.23 6.591 210.628 6.799C211.027 7.007 211.339 7.28 211.564 7.618C211.798 7.956 211.963 8.32867 212.058 8.736C212.154 9.13467 212.201 9.52467 212.201 9.906V13H202.399ZM204.193 11.921V6.487H205.402V11.921H204.193ZM202.399 13C202.287 13 202.217 12.9523 202.191 12.857C202.157 12.753 202.139 12.6187 202.139 12.454C202.139 12.2893 202.157 12.1593 202.191 12.064C202.217 11.9687 202.287 11.921 202.399 11.921V13ZM213.592 13V11.921C213.705 11.921 213.774 11.9687 213.8 12.064C213.835 12.1593 213.852 12.2893 213.852 12.454C213.852 12.6187 213.835 12.753 213.8 12.857C213.774 12.9523 213.705 13 213.592 13ZM207.729 5.33V4.069H208.951V5.33H207.729ZM213.597 13V11.921H220.019L219.395 12.467V7.15L219.902 7.579H217.848C217.38 7.579 217.016 7.63533 216.756 7.748C216.496 7.86067 216.314 8.073 216.21 8.385C216.114 8.697 216.067 9.152 216.067 9.75C216.067 10.348 216.114 10.803 216.21 11.115C216.314 11.427 216.496 11.6393 216.756 11.752C217.016 11.8647 217.38 11.921 217.848 11.921V12.766C217.094 12.766 216.5 12.6707 216.067 12.48C215.633 12.2893 215.321 11.973 215.131 11.531C214.949 11.089 214.858 10.4953 214.858 9.75C214.858 9.01333 214.949 8.40667 215.131 7.93C215.321 7.44467 215.633 7.085 216.067 6.851C216.5 6.60833 217.094 6.487 217.848 6.487H220.604V13H213.597ZM213.597 13C213.484 13 213.415 12.9523 213.389 12.857C213.354 12.753 213.337 12.6187 213.337 12.454C213.337 12.2893 213.354 12.1593 213.389 12.064C213.415 11.9687 213.484 11.921 213.597 11.921V13ZM217.432 5.317V4.056H218.654V5.317H217.432ZM222.791 13V3.718H224V13H222.791ZM222.752 2.808C222.605 2.626 222.492 2.45267 222.414 2.288C222.336 2.11467 222.297 1.93267 222.297 1.742C222.297 1.482 222.362 1.248 222.492 1.04C222.631 0.831999 222.809 0.667332 223.025 0.545999C223.251 0.424666 223.489 0.363999 223.74 0.363999C223.888 0.363999 224.035 0.385666 224.182 0.428999C224.33 0.472332 224.46 0.528666 224.572 0.597999L224.208 1.235C224.139 1.19167 224.07 1.16567 224 1.157C223.931 1.13967 223.862 1.131 223.792 1.131C223.584 1.131 223.424 1.18733 223.311 1.3C223.199 1.41267 223.142 1.56 223.142 1.742C223.142 1.85467 223.164 1.963 223.207 2.067C223.251 2.16233 223.32 2.27067 223.415 2.392L222.752 2.808ZM222.037 2.834V2.08H224.754V2.834H222.037ZM237.533 13V11.921H238.924V13H237.533ZM232.567 13C231.25 13 230.258 12.7617 229.59 12.285C228.923 11.8083 228.589 11.0803 228.589 10.101C228.589 9.893 228.602 9.672 228.628 9.438C228.663 9.19533 228.698 8.96133 228.732 8.736C228.776 8.51067 228.815 8.31567 228.849 8.151C228.884 7.98633 228.91 7.86933 228.927 7.8L230.11 8.021C230.084 8.15967 230.045 8.346 229.993 8.58C229.95 8.814 229.907 9.06533 229.863 9.334C229.82 9.60267 229.798 9.85833 229.798 10.101C229.798 10.5343 229.889 10.8853 230.071 11.154C230.262 11.4227 230.561 11.6177 230.968 11.739C231.376 11.8603 231.917 11.921 232.593 11.921H236.935L236.311 12.415V3.718H237.533V13H232.567ZM238.924 13V11.921C239.037 11.921 239.106 11.9687 239.132 12.064C239.167 12.1593 239.184 12.2893 239.184 12.454C239.184 12.6187 239.167 12.753 239.132 12.857C239.106 12.9523 239.037 13 238.924 13ZM232.411 8.385C232.264 8.203 232.151 8.02967 232.073 7.865C231.995 7.69167 231.956 7.50967 231.956 7.319C231.956 7.059 232.021 6.825 232.151 6.617C232.29 6.409 232.468 6.24433 232.684 6.123C232.91 6.00167 233.148 5.941 233.399 5.941C233.547 5.941 233.694 5.96267 233.841 6.006C233.989 6.04933 234.119 6.10567 234.231 6.175L233.867 6.812C233.798 6.76867 233.729 6.74267 233.659 6.734C233.59 6.71667 233.521 6.708 233.451 6.708C233.243 6.708 233.083 6.76433 232.97 6.877C232.858 6.98967 232.801 7.137 232.801 7.319C232.801 7.43167 232.823 7.54 232.866 7.644C232.91 7.73933 232.979 7.84767 233.074 7.969L232.411 8.385ZM231.696 8.411V7.657H234.413V8.411H231.696ZM240.471 13V3.718H241.68V13H240.471ZM238.924 13V11.921H240.471V13H238.924ZM238.924 13C238.811 13 238.742 12.9523 238.716 12.857C238.681 12.753 238.664 12.6187 238.664 12.454C238.664 12.2893 238.681 12.1593 238.716 12.064C238.742 11.9687 238.811 11.921 238.924 11.921V13ZM246.345 17.316C246.258 16.8307 246.18 16.367 246.111 15.925C246.05 15.483 246.02 15.1017 246.02 14.781C246.02 14.1917 246.124 13.6803 246.332 13.247C246.549 12.8223 246.856 12.4973 247.255 12.272C247.654 12.038 248.126 11.921 248.672 11.921C248.819 11.921 249.023 11.921 249.283 11.921C249.543 11.921 249.842 11.921 250.18 11.921C250.527 11.921 250.886 11.921 251.259 11.921C251.64 11.921 252.013 11.921 252.377 11.921L251.61 12.61V9.802C251.61 9.23867 251.545 8.79667 251.415 8.476C251.294 8.15533 251.073 7.92567 250.752 7.787C250.44 7.64833 250.011 7.579 249.465 7.579C249.11 7.579 248.754 7.605 248.399 7.657C248.044 7.70033 247.766 7.76533 247.567 7.852L248.308 7.124C248.256 7.332 248.204 7.59633 248.152 7.917C248.109 8.229 248.07 8.56267 248.035 8.918C248.009 9.27333 247.996 9.62433 247.996 9.971C247.996 10.3263 248.009 10.6773 248.035 11.024C248.07 11.3707 248.104 11.674 248.139 11.934C248.182 12.194 248.217 12.3717 248.243 12.467L247.099 12.792C247.064 12.6793 247.021 12.4843 246.969 12.207C246.917 11.9297 246.869 11.6003 246.826 11.219C246.791 10.829 246.774 10.413 246.774 9.971C246.774 9.54633 246.796 9.13467 246.839 8.736C246.882 8.32867 246.93 7.96033 246.982 7.631C247.043 7.30167 247.099 7.03733 247.151 6.838C247.35 6.76 247.658 6.682 248.074 6.604C248.499 6.526 248.967 6.487 249.478 6.487C249.946 6.487 250.362 6.53033 250.726 6.617C251.09 6.70367 251.402 6.83367 251.662 7.007C251.931 7.18033 252.152 7.397 252.325 7.657C252.498 7.917 252.624 8.229 252.702 8.593C252.78 8.94833 252.819 9.35567 252.819 9.815V13C252.455 13 252.061 13 251.636 13C251.22 13 250.813 13 250.414 13C250.015 13 249.66 13 249.348 13C249.045 13 248.819 13 248.672 13C248.533 13 248.382 13.0173 248.217 13.052C248.052 13.0953 247.892 13.1733 247.736 13.286C247.589 13.4073 247.467 13.585 247.372 13.819C247.277 14.0617 247.229 14.3823 247.229 14.781C247.229 15.1103 247.259 15.483 247.32 15.899C247.381 16.3237 247.45 16.796 247.528 17.316H246.345ZM259.393 13V11.921H260.797V13H259.393ZM254.297 13V11.921H259.107L258.184 12.74V10.075C258.184 9.44233 258.111 8.944 257.963 8.58C257.825 8.216 257.595 7.96033 257.274 7.813C256.954 7.657 256.52 7.579 255.974 7.579H254.921V6.487H255.974C256.694 6.487 257.309 6.604 257.82 6.838C258.332 7.06333 258.722 7.44033 258.99 7.969C259.259 8.489 259.393 9.191 259.393 10.075V13H254.297ZM260.797 13V11.921C260.901 11.921 260.971 11.9687 261.005 12.064C261.04 12.1593 261.057 12.2893 261.057 12.454C261.057 12.6187 261.04 12.753 261.005 12.857C260.971 12.9523 260.901 13 260.797 13ZM267.805 13V11.921H269.196V13H267.805ZM260.798 13V11.921H267.22L266.596 12.467V7.15L267.103 7.579H265.049C264.581 7.579 264.217 7.63533 263.957 7.748C263.697 7.86067 263.515 8.073 263.411 8.385C263.316 8.697 263.268 9.152 263.268 9.75C263.268 10.348 263.316 10.803 263.411 11.115C263.515 11.427 263.697 11.6393 263.957 11.752C264.217 11.8647 264.581 11.921 265.049 11.921V12.766C264.295 12.766 263.701 12.6707 263.268 12.48C262.835 12.2893 262.523 11.973 262.332 11.531C262.15 11.089 262.059 10.4953 262.059 9.75C262.059 9.01333 262.15 8.40667 262.332 7.93C262.523 7.44467 262.835 7.085 263.268 6.851C263.701 6.60833 264.295 6.487 265.049 6.487H267.805V13H260.798ZM260.798 13C260.685 13 260.616 12.9523 260.59 12.857C260.555 12.753 260.538 12.6187 260.538 12.454C260.538 12.2893 260.555 12.1593 260.59 12.064C260.616 11.9687 260.685 11.921 260.798 11.921V13ZM269.196 13V11.921C269.309 11.921 269.378 11.9687 269.404 12.064C269.439 12.1593 269.456 12.2893 269.456 12.454C269.456 12.6187 269.439 12.753 269.404 12.857C269.378 12.9523 269.309 13 269.196 13ZM263.814 5.434V4.173H265.036V5.434H263.814ZM265.595 5.434V4.173H266.817V5.434H265.595ZM269.202 13V11.921H271.217L270.593 12.415V6.487H271.815V13H269.202ZM269.202 13C269.089 13 269.02 12.9523 268.994 12.857C268.959 12.753 268.942 12.6187 268.942 12.454C268.942 12.2893 268.959 12.1593 268.994 12.064C269.02 11.9687 269.089 11.921 269.202 11.921V13ZM270.593 5.317V4.056H271.815V5.317H270.593ZM3.94604 35C3.19204 35 2.59837 34.8873 2.16504 34.662C1.7317 34.428 1.4197 34.0727 1.22904 33.596C1.04704 33.1107 0.956035 32.4997 0.956035 31.763C0.956035 31.0177 1.04704 30.4023 1.22904 29.917C1.4197 29.4317 1.7317 29.072 2.16504 28.838C2.59837 28.604 3.19204 28.487 3.94604 28.487H6.70204V34.402H5.49304V29.15L5.98704 29.579H3.94604C3.4867 29.579 3.12704 29.6353 2.86704 29.748C2.60704 29.852 2.42504 30.0643 2.32104 30.385C2.21704 30.697 2.16504 31.1563 2.16504 31.763C2.16504 32.361 2.21704 32.816 2.32104 33.128C2.42504 33.4313 2.6027 33.6393 2.85404 33.752C3.11404 33.8647 3.47804 33.921 3.94604 33.921H8.09304V35H3.94604ZM8.09304 35V33.921C8.2057 33.921 8.27504 33.9687 8.30104 34.064C8.3357 34.1593 8.35304 34.2893 8.35304 34.454C8.35304 34.6187 8.3357 34.753 8.30104 34.857C8.27504 34.9523 8.2057 35 8.09304 35ZM2.59404 27.434V26.173H3.81604V27.434H2.59404ZM4.37504 27.434V26.173H5.59704V27.434H4.37504ZM8.09131 35V33.921H15.1503L14.1753 34.831V31.802C14.1753 31.2473 14.1103 30.8097 13.9803 30.489C13.8503 30.1597 13.6293 29.9257 13.3173 29.787C13.014 29.6483 12.5936 29.579 12.0563 29.579C11.675 29.579 11.3066 29.605 10.9513 29.657C10.6046 29.7003 10.3273 29.7653 10.1193 29.852L10.8603 29.124C10.8083 29.332 10.7563 29.592 10.7043 29.904C10.661 30.216 10.622 30.554 10.5873 30.918C10.5613 31.2733 10.5483 31.6287 10.5483 31.984C10.5483 32.3393 10.5613 32.6903 10.5873 33.037C10.622 33.375 10.661 33.674 10.7043 33.934C10.7476 34.194 10.7823 34.3717 10.8083 34.467L9.65131 34.792C9.61664 34.6793 9.57331 34.4843 9.52131 34.207C9.46931 33.921 9.42164 33.5873 9.37831 33.206C9.34364 32.8247 9.32631 32.4173 9.32631 31.984C9.32631 31.334 9.36964 30.723 9.45631 30.151C9.54298 29.5703 9.62531 29.1327 9.70331 28.838C9.89398 28.76 10.2016 28.682 10.6263 28.604C11.051 28.526 11.5233 28.487 12.0433 28.487C13.1526 28.487 13.9846 28.7383 14.5393 29.241C15.094 29.735 15.3713 30.593 15.3713 31.815V35H8.09131ZM12.0303 38.276C11.519 38.276 11.051 38.25 10.6263 38.198C10.2016 38.146 9.89398 38.094 9.70331 38.042C9.62531 37.8427 9.54298 37.5523 9.45631 37.171C9.36964 36.7897 9.32631 36.378 9.32631 35.936C9.32631 35.5113 9.36531 35.1257 9.44331 34.779C9.52998 34.4323 9.59931 34.1983 9.65131 34.077L10.7563 34.493C10.7303 34.5623 10.7 34.6837 10.6653 34.857C10.6306 35.0217 10.6003 35.2037 10.5743 35.403C10.557 35.611 10.5483 35.7973 10.5483 35.962C10.5483 36.144 10.5613 36.339 10.5873 36.547C10.6133 36.755 10.648 36.9587 10.6913 37.158C10.7346 37.3573 10.7823 37.5307 10.8343 37.678L10.0413 36.989C10.2406 37.0497 10.5266 37.0973 10.8993 37.132C11.2806 37.1753 11.6663 37.197 12.0563 37.197C12.6196 37.197 13.053 37.158 13.3563 37.08C13.6596 37.002 13.872 36.8763 13.9933 36.703C14.1146 36.5383 14.1753 36.3173 14.1753 36.04V33.921H15.3713V36.053C15.3713 36.8677 15.094 37.4397 14.5393 37.769C13.9846 38.107 13.1483 38.276 12.0303 38.276ZM15.3713 35V33.921H16.7623V35H15.3713ZM16.7623 35V33.921C16.875 33.921 16.9443 33.9687 16.9703 34.064C17.005 34.1593 17.0223 34.2893 17.0223 34.454C17.0223 34.6187 17.005 34.753 16.9703 34.857C16.9443 34.9523 16.875 35 16.7623 35ZM8.09131 35C7.97864 35 7.90931 34.9523 7.88331 34.857C7.84864 34.753 7.83131 34.6187 7.83131 34.454C7.83131 34.2893 7.84864 34.1593 7.88331 34.064C7.90931 33.9687 7.97864 33.921 8.09131 33.921V35ZM16.7622 35V33.921H23.2622L22.8462 34.285V32.114C22.8462 31.6547 22.7855 31.2777 22.6642 30.983C22.5515 30.6797 22.3782 30.4587 22.1442 30.32C21.9102 30.1727 21.6199 30.099 21.2732 30.099H18.4262L17.5942 28.864L18.1922 27.733C18.2875 27.5597 18.3872 27.3777 18.4912 27.187C18.6039 26.9877 18.7382 26.7623 18.8942 26.511C19.0589 26.251 19.2669 25.939 19.5182 25.575L20.5322 26.16C20.2895 26.5327 20.0902 26.8403 19.9342 27.083C19.7869 27.3257 19.6612 27.538 19.5572 27.72C19.4532 27.8933 19.3535 28.0667 19.2582 28.24L18.6472 29.41L18.3872 29.02H21.2732C21.8192 29.02 22.2742 29.1153 22.6382 29.306C23.0022 29.488 23.2839 29.7307 23.4832 30.034C23.6912 30.3373 23.8385 30.6753 23.9252 31.048C24.0205 31.412 24.0682 31.7673 24.0682 32.114V35H16.7622ZM16.7622 35C16.6495 35 16.5802 34.9523 16.5542 34.857C16.5195 34.753 16.5022 34.6187 16.5022 34.454C16.5022 34.2893 16.5195 34.1593 16.5542 34.064C16.5802 33.9687 16.6495 33.921 16.7622 33.921V35ZM27.4452 35V33.921H29.0052V35H27.4452ZM26.2362 35V25.718H27.4452V35H26.2362ZM29.0052 35V33.921C29.1092 33.921 29.1785 33.9687 29.2132 34.064C29.2478 34.1593 29.2652 34.2893 29.2652 34.454C29.2652 34.6187 29.2478 34.753 29.2132 34.857C29.1785 34.9523 29.1092 35 29.0052 35ZM36.0075 35V33.921H37.3985V35H36.0075ZM29.0005 35V33.921H35.4225L34.7985 34.467V29.15L35.3055 29.579H33.2515C32.7835 29.579 32.4195 29.6353 32.1595 29.748C31.8995 29.8607 31.7175 30.073 31.6135 30.385C31.5182 30.697 31.4705 31.152 31.4705 31.75C31.4705 32.348 31.5182 32.803 31.6135 33.115C31.7175 33.427 31.8995 33.6393 32.1595 33.752C32.4195 33.8647 32.7835 33.921 33.2515 33.921V34.766C32.4975 34.766 31.9038 34.6707 31.4705 34.48C31.0372 34.2893 30.7252 33.973 30.5345 33.531C30.3525 33.089 30.2615 32.4953 30.2615 31.75C30.2615 31.0133 30.3525 30.4067 30.5345 29.93C30.7252 29.4447 31.0372 29.085 31.4705 28.851C31.9038 28.6083 32.4975 28.487 33.2515 28.487H36.0075V35H29.0005ZM29.0005 35C28.8878 35 28.8185 34.9523 28.7925 34.857C28.7578 34.753 28.7405 34.6187 28.7405 34.454C28.7405 34.2893 28.7578 34.1593 28.7925 34.064C28.8185 33.9687 28.8878 33.921 29.0005 33.921V35ZM37.3985 35V33.921C37.5112 33.921 37.5805 33.9687 37.6065 34.064C37.6412 34.1593 37.6585 34.2893 37.6585 34.454C37.6585 34.6187 37.6412 34.753 37.6065 34.857C37.5805 34.9523 37.5112 35 37.3985 35ZM32.8355 27.317V26.056H34.0575V27.317H32.8355ZM38.9518 35V25.718H40.1608V35H38.9518ZM37.4048 35V33.921H38.9518V35H37.4048ZM37.4048 35C37.2921 35 37.2228 34.9523 37.1968 34.857C37.1621 34.753 37.1448 34.6187 37.1448 34.454C37.1448 34.2893 37.1621 34.1593 37.1968 34.064C37.2228 33.9687 37.2921 33.921 37.4048 33.921V35ZM42.3592 35V25.718H43.5682V35H42.3592ZM47.8582 37.977C47.7455 37.977 47.6285 37.9683 47.5072 37.951C47.3772 37.9423 47.2472 37.9337 47.1172 37.925L47.2212 36.846C47.3512 36.8547 47.4725 36.8633 47.5852 36.872C47.6892 36.8807 47.7759 36.885 47.8452 36.885C48.2352 36.885 48.5472 36.7377 48.7812 36.443C49.0239 36.1483 49.1452 35.7367 49.1452 35.208V28.487H50.3672V35.208C50.3672 35.754 50.2589 36.235 50.0422 36.651C49.8255 37.067 49.5309 37.392 49.1582 37.626C48.7855 37.86 48.3522 37.977 47.8582 37.977ZM53.6991 35V33.921H55.2591V35H53.6991ZM52.4901 35V25.718H53.6991V35H52.4901ZM55.2591 35V33.921C55.3631 33.921 55.4324 33.9687 55.4671 34.064C55.5017 34.1593 55.5191 34.2893 55.5191 34.454C55.5191 34.6187 55.5017 34.753 55.4671 34.857C55.4324 34.9523 55.3631 35 55.2591 35ZM58.0494 35V33.921H59.5184V35H58.0494ZM59.5184 35V33.921C59.6311 33.921 59.7004 33.9687 59.7264 34.064C59.7611 34.1593 59.7784 34.2893 59.7784 34.454C59.7784 34.6187 59.7611 34.753 59.7264 34.857C59.7004 34.9523 59.6311 35 59.5184 35ZM55.2544 35V33.921H57.4644L56.8404 34.415V28.487H58.0494V35H55.2544ZM55.2544 35C55.1417 35 55.0724 34.9523 55.0464 34.857C55.0117 34.753 54.9944 34.6187 54.9944 34.454C54.9944 34.2893 55.0117 34.1593 55.0464 34.064C55.0724 33.9687 55.1417 33.921 55.2544 33.921V35ZM55.7744 37.444V36.183H56.9964V37.444H55.7744ZM57.5554 37.444V36.183H58.7774V37.444H57.5554ZM62.315 35V33.921H63.784V35H62.315ZM63.784 35V33.921C63.8967 33.921 63.966 33.9687 63.992 34.064C64.0267 34.1593 64.044 34.2893 64.044 34.454C64.044 34.6187 64.0267 34.753 63.992 34.857C63.966 34.9523 63.8967 35 63.784 35ZM59.52 35V33.921H61.73L61.106 34.415V28.487H62.315V35H59.52ZM59.52 35C59.4074 35 59.338 34.9523 59.312 34.857C59.2774 34.753 59.26 34.6187 59.26 34.454C59.26 34.2893 59.2774 34.1593 59.312 34.064C59.338 33.9687 59.4074 33.921 59.52 33.921V35ZM60.04 27.434V26.173H61.262V27.434H60.04ZM61.821 27.434V26.173H63.043V27.434H61.821ZM63.7856 35V33.921H69.4796L69.0896 34.246V31.243C69.0896 30.697 68.9163 30.2853 68.5696 30.008C68.2316 29.7307 67.703 29.592 66.9836 29.592C66.767 29.592 66.455 29.6093 66.0476 29.644C65.649 29.6787 65.2243 29.7307 64.7736 29.8L64.6436 28.812C64.999 28.7253 65.3846 28.6517 65.8006 28.591C66.2166 28.5217 66.6196 28.487 67.0096 28.487C67.6856 28.487 68.2663 28.5953 68.7516 28.812C69.2456 29.0287 69.627 29.345 69.8956 29.761C70.1643 30.1683 70.2986 30.6623 70.2986 31.243V35H63.7856ZM63.7856 35C63.673 35 63.6036 34.9523 63.5776 34.857C63.543 34.753 63.5256 34.6187 63.5256 34.454C63.5256 34.2893 63.543 34.1593 63.5776 34.064C63.6036 33.9687 63.673 33.921 63.7856 33.921V35ZM66.3986 27.564V26.303H67.6206V27.564H66.3986ZM72.2948 35V25.718H73.5038V35H72.2948ZM85.3988 35V33.921H86.7898V35H85.3988ZM81.8238 38.224C81.1218 38.224 80.4848 38.094 79.9128 37.834C79.3494 37.5827 78.9031 37.223 78.5738 36.755C78.2531 36.2957 78.0928 35.7713 78.0928 35.182C78.0928 35 78.1058 34.7617 78.1318 34.467C78.1664 34.1723 78.2054 33.843 78.2488 33.479C78.3008 33.115 78.3528 32.7467 78.4048 32.374C78.4654 32.0013 78.5218 31.6417 78.5738 31.295L79.7828 31.477C79.6874 32.075 79.6008 32.6253 79.5228 33.128C79.4534 33.622 79.3971 34.0467 79.3538 34.402C79.3191 34.7487 79.3018 35.0087 79.3018 35.182C79.3018 35.5633 79.4058 35.9013 79.6138 36.196C79.8218 36.4907 80.1164 36.7203 80.4978 36.885C80.8791 37.0583 81.3211 37.145 81.8238 37.145C82.3264 37.145 82.7511 37.0627 83.0978 36.898C83.4531 36.742 83.7218 36.5253 83.9038 36.248C84.0858 35.9707 84.1768 35.6413 84.1768 35.26V28.487H85.3988V35.26C85.3988 35.8753 85.2384 36.404 84.9178 36.846C84.5971 37.288 84.1681 37.626 83.6308 37.86C83.0934 38.1027 82.4911 38.224 81.8238 38.224ZM86.7898 35V33.921C86.9024 33.921 86.9718 33.9687 86.9978 34.064C87.0324 34.1593 87.0498 34.2893 87.0498 34.454C87.0498 34.6187 87.0324 34.753 86.9978 34.857C86.9718 34.9523 86.9024 35 86.7898 35ZM81.1478 28.37V27.109H82.3698V28.37H81.1478ZM86.7896 35V33.921H93.7966L93.0296 34.493V31.802C93.0296 31.23 92.9646 30.7837 92.8346 30.463C92.7132 30.1423 92.4966 29.9127 92.1846 29.774C91.8726 29.6353 91.4479 29.566 90.9106 29.566C90.5466 29.566 90.1869 29.592 89.8316 29.644C89.4762 29.696 89.1989 29.7653 88.9996 29.852L89.7406 29.124C89.6886 29.3233 89.6366 29.579 89.5846 29.891C89.5326 30.203 89.4892 30.541 89.4546 30.905C89.4199 31.2603 89.4026 31.6157 89.4026 31.971C89.4026 32.3263 89.4199 32.6773 89.4546 33.024C89.4892 33.3707 89.5282 33.674 89.5716 33.934C89.6149 34.194 89.6496 34.3717 89.6756 34.467L88.5186 34.792C88.4839 34.6793 88.4406 34.4843 88.3886 34.207C88.3452 33.9297 88.3019 33.596 88.2586 33.206C88.2239 32.816 88.2066 32.4043 88.2066 31.971C88.2066 31.5463 88.2239 31.1347 88.2586 30.736C88.3019 30.3287 88.3496 29.9603 88.4016 29.631C88.4622 29.3017 88.5186 29.0373 88.5706 28.838C88.7699 28.76 89.0776 28.682 89.4936 28.604C89.9182 28.526 90.3906 28.487 90.9106 28.487C91.6472 28.487 92.2626 28.5953 92.7566 28.812C93.2592 29.0287 93.6319 29.3797 93.8746 29.865C94.1259 30.3417 94.2516 30.9873 94.2516 31.802V35H86.7896ZM86.7896 35C86.6769 35 86.6076 34.9523 86.5816 34.857C86.5469 34.753 86.5296 34.6187 86.5296 34.454C86.5296 34.2893 86.5469 34.1593 86.5816 34.064C86.6076 33.9687 86.6769 33.921 86.7896 33.921V35ZM103.666 35V33.921H105.07V35H103.666ZM98.5703 35V33.921H103.38L102.457 34.74V32.075C102.457 31.4423 102.384 30.944 102.236 30.58C102.098 30.216 101.868 29.9603 101.547 29.813C101.227 29.657 100.793 29.579 100.247 29.579H99.1943V28.487H100.247C100.967 28.487 101.582 28.604 102.093 28.838C102.605 29.0633 102.995 29.4403 103.263 29.969C103.532 30.489 103.666 31.191 103.666 32.075V35H98.5703ZM105.07 35V33.921C105.174 33.921 105.244 33.9687 105.278 34.064C105.313 34.1593 105.33 34.2893 105.33 34.454C105.33 34.6187 105.313 34.753 105.278 34.857C105.244 34.9523 105.174 35 105.07 35ZM105.071 35V33.921H111.571L111.155 34.285V32.114C111.155 31.6547 111.094 31.2777 110.973 30.983C110.86 30.6797 110.687 30.4587 110.453 30.32C110.219 30.1727 109.928 30.099 109.582 30.099H106.735L105.903 28.864L106.501 27.733C106.596 27.5597 106.696 27.3777 106.8 27.187C106.912 26.9877 107.047 26.7623 107.203 26.511C107.367 26.251 107.575 25.939 107.827 25.575L108.841 26.16C108.598 26.5327 108.399 26.8403 108.243 27.083C108.095 27.3257 107.97 27.538 107.866 27.72C107.762 27.8933 107.662 28.0667 107.567 28.24L106.956 29.41L106.696 29.02H109.582C110.128 29.02 110.583 29.1153 110.947 29.306C111.311 29.488 111.592 29.7307 111.792 30.034C112 30.3373 112.147 30.6753 112.234 31.048C112.329 31.412 112.377 31.7673 112.377 32.114V35H105.071ZM105.071 35C104.958 35 104.889 34.9523 104.863 34.857C104.828 34.753 104.811 34.6187 104.811 34.454C104.811 34.2893 104.828 34.1593 104.863 34.064C104.889 33.9687 104.958 33.921 105.071 33.921V35ZM115.754 35V33.921H117.314V35H115.754ZM114.545 35V25.718H115.754V35H114.545ZM117.314 35V33.921C117.418 33.921 117.487 33.9687 117.522 34.064C117.556 34.1593 117.574 34.2893 117.574 34.454C117.574 34.6187 117.556 34.753 117.522 34.857C117.487 34.9523 117.418 35 117.314 35ZM114.506 24.808C114.358 24.626 114.246 24.4527 114.168 24.288C114.09 24.1147 114.051 23.9327 114.051 23.742C114.051 23.482 114.116 23.248 114.246 23.04C114.384 22.832 114.562 22.6673 114.779 22.546C115.004 22.4247 115.242 22.364 115.494 22.364C115.641 22.364 115.788 22.3857 115.936 22.429C116.083 22.4723 116.213 22.5287 116.326 22.598L115.962 23.235C115.892 23.1917 115.823 23.1657 115.754 23.157C115.684 23.1397 115.615 23.131 115.546 23.131C115.338 23.131 115.177 23.1873 115.065 23.3C114.952 23.4127 114.896 23.56 114.896 23.742C114.896 23.8547 114.917 23.963 114.961 24.067C115.004 24.1623 115.073 24.2707 115.169 24.392L114.506 24.808ZM113.791 24.834V24.08H116.508V24.834H113.791ZM120.104 35V33.921H121.573V35H120.104ZM121.573 35V33.921C121.686 33.921 121.755 33.9687 121.781 34.064C121.816 34.1593 121.833 34.2893 121.833 34.454C121.833 34.6187 121.816 34.753 121.781 34.857C121.755 34.9523 121.686 35 121.573 35ZM117.309 35V33.921H119.519L118.895 34.415V28.487H120.104V35H117.309ZM117.309 35C117.196 35 117.127 34.9523 117.101 34.857C117.066 34.753 117.049 34.6187 117.049 34.454C117.049 34.2893 117.066 34.1593 117.101 34.064C117.127 33.9687 117.196 33.921 117.309 33.921V35ZM117.829 27.434V26.173H119.051V27.434H117.829ZM119.61 27.434V26.173H120.832V27.434H119.61ZM124.37 35V33.921H125.839V35H124.37ZM125.839 35V33.921C125.951 33.921 126.021 33.9687 126.047 34.064C126.081 34.1593 126.099 34.2893 126.099 34.454C126.099 34.6187 126.081 34.753 126.047 34.857C126.021 34.9523 125.951 35 125.839 35ZM121.575 35V33.921H123.785L123.161 34.415V28.487H124.37V35H121.575ZM121.575 35C121.462 35 121.393 34.9523 121.367 34.857C121.332 34.753 121.315 34.6187 121.315 34.454C121.315 34.2893 121.332 34.1593 121.367 34.064C121.393 33.9687 121.462 33.921 121.575 33.921V35ZM122.095 27.434V26.173H123.317V27.434H122.095ZM123.876 27.434V26.173H125.098V27.434H123.876ZM127.387 35V25.718H128.596V35H127.387ZM125.84 35V33.921H127.387V35H125.84ZM125.84 35C125.728 35 125.658 34.9523 125.632 34.857C125.598 34.753 125.58 34.6187 125.58 34.454C125.58 34.2893 125.598 34.1593 125.632 34.064C125.658 33.9687 125.728 33.921 125.84 33.921V35ZM136.915 35C135.597 35 134.605 34.7617 133.938 34.285C133.27 33.8083 132.937 33.0803 132.937 32.101C132.937 31.893 132.95 31.672 132.976 31.438C133.01 31.1953 133.045 30.9613 133.08 30.736C133.123 30.5107 133.162 30.3157 133.197 30.151C133.231 29.9863 133.257 29.8693 133.275 29.8L134.458 30.021C134.432 30.1597 134.393 30.346 134.341 30.58C134.297 30.814 134.254 31.0653 134.211 31.334C134.167 31.6027 134.146 31.8583 134.146 32.101C134.146 32.5343 134.237 32.8853 134.419 33.154C134.609 33.4227 134.908 33.6177 135.316 33.739C135.723 33.8603 136.265 33.921 136.941 33.921H140.659V28.487H141.881V35H136.915ZM135.901 28.695V27.434H137.123V28.695H135.901ZM137.682 28.695V27.434H138.904V28.695H137.682ZM145.283 35V33.921H146.843V35H145.283ZM144.074 35V25.718H145.283V35H144.074ZM146.843 35V33.921C146.947 33.921 147.016 33.9687 147.051 34.064C147.086 34.1593 147.103 34.2893 147.103 34.454C147.103 34.6187 147.086 34.753 147.051 34.857C147.016 34.9523 146.947 35 146.843 35ZM154.3 35V33.921H155.691V35H154.3ZM146.838 35V33.921H153.845L153.078 34.493V31.802C153.078 31.23 153.013 30.7837 152.883 30.463C152.762 30.1423 152.545 29.9127 152.233 29.774C151.921 29.6353 151.497 29.566 150.959 29.566C150.595 29.566 150.236 29.592 149.88 29.644C149.525 29.696 149.248 29.7653 149.048 29.852L149.789 29.124C149.737 29.3233 149.685 29.579 149.633 29.891C149.581 30.203 149.538 30.541 149.503 30.905C149.469 31.2603 149.451 31.6157 149.451 31.971C149.451 32.3263 149.469 32.6773 149.503 33.024C149.538 33.3707 149.577 33.674 149.62 33.934C149.664 34.194 149.698 34.3717 149.724 34.467L148.567 34.792C148.533 34.6793 148.489 34.4843 148.437 34.207C148.394 33.9297 148.351 33.596 148.307 33.206C148.273 32.816 148.255 32.4043 148.255 31.971C148.255 31.5463 148.273 31.1347 148.307 30.736C148.351 30.3287 148.398 29.9603 148.45 29.631C148.511 29.3017 148.567 29.0373 148.619 28.838C148.819 28.76 149.126 28.682 149.542 28.604C149.967 28.526 150.439 28.487 150.959 28.487C151.696 28.487 152.311 28.5953 152.805 28.812C153.308 29.0287 153.681 29.3797 153.923 29.865C154.175 30.3417 154.3 30.9873 154.3 31.802V35H146.838ZM146.838 35C146.726 35 146.656 34.9523 146.63 34.857C146.596 34.753 146.578 34.6187 146.578 34.454C146.578 34.2893 146.596 34.1593 146.63 34.064C146.656 33.9687 146.726 33.921 146.838 33.921V35ZM155.691 35V33.921C155.804 33.921 155.873 33.9687 155.899 34.064C155.934 34.1593 155.951 34.2893 155.951 34.454C155.951 34.6187 155.934 34.753 155.899 34.857C155.873 34.9523 155.804 35 155.691 35ZM158.482 35V33.921H159.951V35H158.482ZM159.951 35V33.921C160.064 33.921 160.133 33.9687 160.159 34.064C160.194 34.1593 160.211 34.2893 160.211 34.454C160.211 34.6187 160.194 34.753 160.159 34.857C160.133 34.9523 160.064 35 159.951 35ZM155.687 35V33.921H157.897L157.273 34.415V28.487H158.482V35H155.687ZM155.687 35C155.574 35 155.505 34.9523 155.479 34.857C155.444 34.753 155.427 34.6187 155.427 34.454C155.427 34.2893 155.444 34.1593 155.479 34.064C155.505 33.9687 155.574 33.921 155.687 33.921V35ZM156.207 37.444V36.183H157.429V37.444H156.207ZM157.988 37.444V36.183H159.21V37.444H157.988ZM162.748 35V33.921H164.217V35H162.748ZM164.217 35V33.921C164.329 33.921 164.399 33.9687 164.425 34.064C164.459 34.1593 164.477 34.2893 164.477 34.454C164.477 34.6187 164.459 34.753 164.425 34.857C164.399 34.9523 164.329 35 164.217 35ZM159.953 35V33.921H162.163L161.539 34.415V28.487H162.748V35H159.953ZM159.953 35C159.84 35 159.771 34.9523 159.745 34.857C159.71 34.753 159.693 34.6187 159.693 34.454C159.693 34.2893 159.71 34.1593 159.745 34.064C159.771 33.9687 159.84 33.921 159.953 33.921V35ZM160.473 37.444V36.183H161.695V37.444H160.473ZM162.254 37.444V36.183H163.476V37.444H162.254ZM171.225 35V33.921H172.616V35H171.225ZM164.218 35V33.921H170.64L170.016 34.467V29.15L170.523 29.579H168.469C168.001 29.579 167.637 29.6353 167.377 29.748C167.117 29.8607 166.935 30.073 166.831 30.385C166.736 30.697 166.688 31.152 166.688 31.75C166.688 32.348 166.736 32.803 166.831 33.115C166.935 33.427 167.117 33.6393 167.377 33.752C167.637 33.8647 168.001 33.921 168.469 33.921V34.766C167.715 34.766 167.122 34.6707 166.688 34.48C166.255 34.2893 165.943 33.973 165.752 33.531C165.57 33.089 165.479 32.4953 165.479 31.75C165.479 31.0133 165.57 30.4067 165.752 29.93C165.943 29.4447 166.255 29.085 166.688 28.851C167.122 28.6083 167.715 28.487 168.469 28.487H171.225V35H164.218ZM164.218 35C164.106 35 164.036 34.9523 164.01 34.857C163.976 34.753 163.958 34.6187 163.958 34.454C163.958 34.2893 163.976 34.1593 164.01 34.064C164.036 33.9687 164.106 33.921 164.218 33.921V35ZM172.616 35V33.921C172.729 33.921 172.798 33.9687 172.824 34.064C172.859 34.1593 172.876 34.2893 172.876 34.454C172.876 34.6187 172.859 34.753 172.824 34.857C172.798 34.9523 172.729 35 172.616 35ZM167.234 27.434V26.173H168.456V27.434H167.234ZM169.015 27.434V26.173H170.237V27.434H169.015ZM175.418 35V33.921H176.887V35H175.418ZM176.887 35V33.921C176.999 33.921 177.069 33.9687 177.095 34.064C177.129 34.1593 177.147 34.2893 177.147 34.454C177.147 34.6187 177.129 34.753 177.095 34.857C177.069 34.9523 176.999 35 176.887 35ZM172.623 35V33.921H174.833L174.209 34.415V28.487H175.418V35H172.623ZM172.623 35C172.51 35 172.441 34.9523 172.415 34.857C172.38 34.753 172.363 34.6187 172.363 34.454C172.363 34.2893 172.38 34.1593 172.415 34.064C172.441 33.9687 172.51 33.921 172.623 33.921V35ZM173.143 27.434V26.173H174.365V27.434H173.143ZM174.924 27.434V26.173H176.146V27.434H174.924ZM178.435 35V25.718H179.644V35H178.435ZM176.888 35V33.921H178.435V35H176.888ZM176.888 35C176.776 35 176.706 34.9523 176.68 34.857C176.646 34.753 176.628 34.6187 176.628 34.454C176.628 34.2893 176.646 34.1593 176.68 34.064C176.706 33.9687 176.776 33.921 176.888 33.921V35ZM181.843 35V25.718H183.052V35H181.843ZM187.345 37.977C187.033 37.977 186.704 37.951 186.357 37.899C186.019 37.8557 185.646 37.7907 185.239 37.704L185.421 36.729C185.88 36.781 186.262 36.82 186.565 36.846C186.868 36.872 187.128 36.885 187.345 36.885C188.038 36.885 188.541 36.755 188.853 36.495C189.174 36.235 189.334 35.858 189.334 35.364V29.254L189.828 29.579H187.787C187.328 29.579 186.968 29.6353 186.708 29.748C186.448 29.852 186.266 30.0643 186.162 30.385C186.058 30.697 186.006 31.1563 186.006 31.763C186.006 32.361 186.058 32.816 186.162 33.128C186.266 33.4313 186.444 33.6393 186.695 33.752C186.955 33.8647 187.319 33.921 187.787 33.921H189.334V35H187.787C187.033 35 186.439 34.8873 186.006 34.662C185.573 34.428 185.261 34.0727 185.07 33.596C184.888 33.1107 184.797 32.4997 184.797 31.763C184.797 31.0177 184.888 30.4023 185.07 29.917C185.261 29.4317 185.573 29.072 186.006 28.838C186.439 28.604 187.033 28.487 187.787 28.487H190.543V35.351C190.543 35.9057 190.413 36.378 190.153 36.768C189.893 37.1667 189.525 37.4657 189.048 37.665C188.571 37.873 188.004 37.977 187.345 37.977ZM194.565 37.977C194.453 37.977 194.336 37.9683 194.214 37.951C194.084 37.9423 193.954 37.9337 193.824 37.925L193.928 36.846C194.058 36.8547 194.18 36.8633 194.292 36.872C194.396 36.8807 194.483 36.885 194.552 36.885C194.942 36.885 195.254 36.7377 195.488 36.443C195.731 36.1483 195.852 35.7367 195.852 35.208V28.487H197.074V35.208C197.074 35.754 196.966 36.235 196.749 36.651C196.533 37.067 196.238 37.392 195.865 37.626C195.493 37.86 195.059 37.977 194.565 37.977ZM204.241 35V33.921H205.632V35H204.241ZM201.043 37.977C200.731 37.977 200.402 37.951 200.055 37.899C199.717 37.8557 199.344 37.7907 198.937 37.704L199.119 36.729C199.578 36.781 199.96 36.82 200.263 36.846C200.566 36.872 200.826 36.885 201.043 36.885C201.736 36.885 202.239 36.755 202.551 36.495C202.872 36.235 203.032 35.858 203.032 35.364V29.254L203.526 29.579H201.485C201.026 29.579 200.666 29.6353 200.406 29.748C200.146 29.852 199.964 30.0643 199.86 30.385C199.756 30.697 199.704 31.1563 199.704 31.763C199.704 32.361 199.756 32.816 199.86 33.128C199.964 33.4313 200.142 33.6393 200.393 33.752C200.653 33.8647 201.017 33.921 201.485 33.921H203.032V35H201.485C200.731 35 200.137 34.8873 199.704 34.662C199.271 34.428 198.959 34.0727 198.768 33.596C198.586 33.1107 198.495 32.4997 198.495 31.763C198.495 31.0177 198.586 30.4023 198.768 29.917C198.959 29.4317 199.271 29.072 199.704 28.838C200.137 28.604 200.731 28.487 201.485 28.487H204.241V35.351C204.241 35.9057 204.111 36.378 203.851 36.768C203.591 37.1667 203.223 37.4657 202.746 37.665C202.269 37.873 201.702 37.977 201.043 37.977ZM205.632 35V33.921C205.745 33.921 205.814 33.9687 205.84 34.064C205.875 34.1593 205.892 34.2893 205.892 34.454C205.892 34.6187 205.875 34.753 205.84 34.857C205.814 34.9523 205.745 35 205.632 35ZM215.432 35V33.921H216.823V35H215.432ZM205.63 35V33.921H215.302L214.21 34.883V31.906C214.21 31.3773 214.137 30.944 213.989 30.606C213.851 30.2593 213.638 30.0037 213.352 29.839C213.066 29.6657 212.711 29.579 212.286 29.579C211.914 29.579 211.563 29.644 211.233 29.774C210.904 29.904 210.601 30.0773 210.323 30.294C210.046 30.502 209.786 30.7317 209.543 30.983C209.301 31.2343 209.08 31.4857 208.88 31.737C208.69 31.9883 208.516 32.2137 208.36 32.413L208.009 31.399C208.261 31.0957 208.503 30.801 208.737 30.515C208.971 30.2203 209.21 29.9517 209.452 29.709C209.704 29.4663 209.968 29.254 210.245 29.072C210.531 28.89 210.843 28.747 211.181 28.643C211.528 28.539 211.918 28.487 212.351 28.487C212.958 28.487 213.461 28.591 213.859 28.799C214.258 29.007 214.57 29.28 214.795 29.618C215.029 29.956 215.194 30.3287 215.289 30.736C215.385 31.1347 215.432 31.5247 215.432 31.906V35H205.63ZM207.424 33.921V28.487H208.633V33.921H207.424ZM205.63 35C205.518 35 205.448 34.9523 205.422 34.857C205.388 34.753 205.37 34.6187 205.37 34.454C205.37 34.2893 205.388 34.1593 205.422 34.064C205.448 33.9687 205.518 33.921 205.63 33.921V35ZM216.823 35V33.921C216.936 33.921 217.005 33.9687 217.031 34.064C217.066 34.1593 217.083 34.2893 217.083 34.454C217.083 34.6187 217.066 34.753 217.031 34.857C217.005 34.9523 216.936 35 216.823 35ZM218.375 35V25.718H219.584V35H218.375ZM216.828 35V33.921H218.375V35H216.828ZM216.828 35C216.715 35 216.646 34.9523 216.62 34.857C216.585 34.753 216.568 34.6187 216.568 34.454C216.568 34.2893 216.585 34.1593 216.62 34.064C216.646 33.9687 216.715 33.921 216.828 33.921V35ZM221.782 35V25.718H222.991V35H221.782ZM227.284 37.977C226.972 37.977 226.643 37.951 226.296 37.899C225.958 37.8557 225.586 37.7907 225.178 37.704L225.36 36.729C225.82 36.781 226.201 36.82 226.504 36.846C226.808 36.872 227.068 36.885 227.284 36.885C227.978 36.885 228.48 36.755 228.792 36.495C229.113 36.235 229.273 35.858 229.273 35.364V29.254L229.767 29.579H227.726C227.267 29.579 226.907 29.6353 226.647 29.748C226.387 29.852 226.205 30.0643 226.101 30.385C225.997 30.697 225.945 31.1563 225.945 31.763C225.945 32.361 225.997 32.816 226.101 33.128C226.205 33.4313 226.383 33.6393 226.634 33.752C226.894 33.8647 227.258 33.921 227.726 33.921H229.273V35H227.726C226.972 35 226.379 34.8873 225.945 34.662C225.512 34.428 225.2 34.0727 225.009 33.596C224.827 33.1107 224.736 32.4997 224.736 31.763C224.736 31.0177 224.827 30.4023 225.009 29.917C225.2 29.4317 225.512 29.072 225.945 28.838C226.379 28.604 226.972 28.487 227.726 28.487H230.482V35.351C230.482 35.9057 230.352 36.378 230.092 36.768C229.832 37.1667 229.464 37.4657 228.987 37.665C228.511 37.873 227.943 37.977 227.284 37.977ZM242.11 35V33.921H243.501V35H242.11ZM238.535 38.224C237.833 38.224 237.196 38.094 236.624 37.834C236.06 37.5827 235.614 37.223 235.285 36.755C234.964 36.2957 234.804 35.7713 234.804 35.182C234.804 35 234.817 34.7617 234.843 34.467C234.877 34.1723 234.916 33.843 234.96 33.479C235.012 33.115 235.064 32.7467 235.116 32.374C235.176 32.0013 235.233 31.6417 235.285 31.295L236.494 31.477C236.398 32.075 236.312 32.6253 236.234 33.128C236.164 33.622 236.108 34.0467 236.065 34.402C236.03 34.7487 236.013 35.0087 236.013 35.182C236.013 35.5633 236.117 35.9013 236.325 36.196C236.533 36.4907 236.827 36.7203 237.209 36.885C237.59 37.0583 238.032 37.145 238.535 37.145C239.037 37.145 239.462 37.0627 239.809 36.898C240.164 36.742 240.433 36.5253 240.615 36.248C240.797 35.9707 240.888 35.6413 240.888 35.26V25.718H242.11V35.26C242.11 35.8753 241.949 36.404 241.629 36.846C241.308 37.288 240.879 37.626 240.342 37.86C239.804 38.1027 239.202 38.224 238.535 38.224ZM243.501 35V33.921C243.613 33.921 243.683 33.9687 243.709 34.064C243.743 34.1593 243.761 34.2893 243.761 34.454C243.761 34.6187 243.743 34.753 243.709 34.857C243.683 34.9523 243.613 35 243.501 35ZM246.295 35V33.921H247.764V35H246.295ZM247.764 35V33.921C247.877 33.921 247.946 33.9687 247.972 34.064C248.007 34.1593 248.024 34.2893 248.024 34.454C248.024 34.6187 248.007 34.753 247.972 34.857C247.946 34.9523 247.877 35 247.764 35ZM243.5 35V33.921H245.71L245.086 34.415V28.487H246.295V35H243.5ZM243.5 35C243.388 35 243.318 34.9523 243.292 34.857C243.258 34.753 243.24 34.6187 243.24 34.454C243.24 34.2893 243.258 34.1593 243.292 34.064C243.318 33.9687 243.388 33.921 243.5 33.921V35ZM244.02 37.444V36.183H245.242V37.444H244.02ZM245.801 37.444V36.183H247.023V37.444H245.801ZM247.766 35V33.921H257.438L256.346 34.883V31.906C256.346 31.3773 256.272 30.944 256.125 30.606C255.986 30.2593 255.774 30.0037 255.488 29.839C255.202 29.6657 254.847 29.579 254.422 29.579C254.049 29.579 253.698 29.644 253.369 29.774C253.04 29.904 252.736 30.0773 252.459 30.294C252.182 30.502 251.922 30.7317 251.679 30.983C251.436 31.2343 251.215 31.4857 251.016 31.737C250.825 31.9883 250.652 32.2137 250.496 32.413L250.145 31.399C250.396 31.0957 250.639 30.801 250.873 30.515C251.107 30.2203 251.345 29.9517 251.588 29.709C251.839 29.4663 252.104 29.254 252.381 29.072C252.667 28.89 252.979 28.747 253.317 28.643C253.664 28.539 254.054 28.487 254.487 28.487C255.094 28.487 255.596 28.591 255.995 28.799C256.394 29.007 256.706 29.28 256.931 29.618C257.165 29.956 257.33 30.3287 257.425 30.736C257.52 31.1347 257.568 31.5247 257.568 31.906V35H247.766ZM249.56 33.921V28.487H250.769V33.921H249.56ZM247.766 35C247.653 35 247.584 34.9523 247.558 34.857C247.523 34.753 247.506 34.6187 247.506 34.454C247.506 34.2893 247.523 34.1593 247.558 34.064C247.584 33.9687 247.653 33.921 247.766 33.921V35ZM260.95 35V33.921H262.51V35H260.95ZM259.741 35V25.718H260.95V35H259.741ZM262.51 35V33.921C262.614 33.921 262.683 33.9687 262.718 34.064C262.753 34.1593 262.77 34.2893 262.77 34.454C262.77 34.6187 262.753 34.753 262.718 34.857C262.683 34.9523 262.614 35 262.51 35ZM269.512 35V33.921H270.903V35H269.512ZM262.505 35V33.921H268.927L268.303 34.467V29.15L268.81 29.579H266.756C266.288 29.579 265.924 29.6353 265.664 29.748C265.404 29.8607 265.222 30.073 265.118 30.385C265.023 30.697 264.975 31.152 264.975 31.75C264.975 32.348 265.023 32.803 265.118 33.115C265.222 33.427 265.404 33.6393 265.664 33.752C265.924 33.8647 266.288 33.921 266.756 33.921V34.766C266.002 34.766 265.409 34.6707 264.975 34.48C264.542 34.2893 264.23 33.973 264.039 33.531C263.857 33.089 263.766 32.4953 263.766 31.75C263.766 31.0133 263.857 30.4067 264.039 29.93C264.23 29.4447 264.542 29.085 264.975 28.851C265.409 28.6083 266.002 28.487 266.756 28.487H269.512V35H262.505ZM262.505 35C262.393 35 262.323 34.9523 262.297 34.857C262.263 34.753 262.245 34.6187 262.245 34.454C262.245 34.2893 262.263 34.1593 262.297 34.064C262.323 33.9687 262.393 33.921 262.505 33.921V35ZM270.903 35V33.921C271.016 33.921 271.085 33.9687 271.111 34.064C271.146 34.1593 271.163 34.2893 271.163 34.454C271.163 34.6187 271.146 34.753 271.111 34.857C271.085 34.9523 271.016 35 270.903 35ZM266.34 27.317V26.056H267.562V27.317H266.34ZM273.705 35V33.921H275.174V35H273.705ZM275.174 35V33.921C275.286 33.921 275.356 33.9687 275.382 34.064C275.416 34.1593 275.434 34.2893 275.434 34.454C275.434 34.6187 275.416 34.753 275.382 34.857C275.356 34.9523 275.286 35 275.174 35ZM270.91 35V33.921H273.12L272.496 34.415V28.487H273.705V35H270.91ZM270.91 35C270.797 35 270.728 34.9523 270.702 34.857C270.667 34.753 270.65 34.6187 270.65 34.454C270.65 34.2893 270.667 34.1593 270.702 34.064C270.728 33.9687 270.797 33.921 270.91 33.921V35ZM271.43 27.434V26.173H272.652V27.434H271.43ZM273.211 27.434V26.173H274.433V27.434H273.211ZM276.722 35V25.718H277.931V35H276.722ZM275.175 35V33.921H276.722V35H275.175ZM275.175 35C275.063 35 274.993 34.9523 274.967 34.857C274.933 34.753 274.915 34.6187 274.915 34.454C274.915 34.2893 274.933 34.1593 274.967 34.064C274.993 33.9687 275.063 33.921 275.175 33.921V35ZM280.13 35V25.718H281.339V35H280.13ZM124.939 57C124.185 57 123.591 56.8873 123.158 56.662C122.724 56.428 122.412 56.0727 122.222 55.596C122.04 55.1107 121.949 54.4997 121.949 53.763C121.949 53.0177 122.04 52.4023 122.222 51.917C122.412 51.4317 122.724 51.072 123.158 50.838C123.591 50.604 124.185 50.487 124.939 50.487H127.695V56.402H126.486V51.15L126.98 51.579H124.939C124.479 51.579 124.12 51.6353 123.86 51.748C123.6 51.852 123.418 52.0643 123.314 52.385C123.21 52.697 123.158 53.1563 123.158 53.763C123.158 54.361 123.21 54.816 123.314 55.128C123.418 55.4313 123.595 55.6393 123.847 55.752C124.107 55.8647 124.471 55.921 124.939 55.921H129.086V57H124.939ZM129.086 57V55.921C129.198 55.921 129.268 55.9687 129.294 56.064C129.328 56.1593 129.346 56.2893 129.346 56.454C129.346 56.6187 129.328 56.753 129.294 56.857C129.268 56.9523 129.198 57 129.086 57ZM123.587 49.434V48.173H124.809V49.434H123.587ZM125.368 49.434V48.173H126.59V49.434H125.368ZM131.879 57V55.921H133.348V57H131.879ZM133.348 57V55.921C133.461 55.921 133.53 55.9687 133.556 56.064C133.591 56.1593 133.608 56.2893 133.608 56.454C133.608 56.6187 133.591 56.753 133.556 56.857C133.53 56.9523 133.461 57 133.348 57ZM129.084 57V55.921H131.294L130.67 56.415V50.487H131.879V57H129.084ZM129.084 57C128.971 57 128.902 56.9523 128.876 56.857C128.841 56.753 128.824 56.6187 128.824 56.454C128.824 56.2893 128.841 56.1593 128.876 56.064C128.902 55.9687 128.971 55.921 129.084 55.921V57ZM129.604 59.444V58.183H130.826V59.444H129.604ZM131.385 59.444V58.183H132.607V59.444H131.385ZM134.897 57V47.718H136.106V57H134.897ZM133.35 57V55.921H134.897V57H133.35ZM133.35 57C133.237 57 133.168 56.9523 133.142 56.857C133.107 56.753 133.09 56.6187 133.09 56.454C133.09 56.2893 133.107 56.1593 133.142 56.064C133.168 55.9687 133.237 55.921 133.35 55.921V57ZM139.513 57V55.921H141.073V57H139.513ZM138.304 57V47.718H139.513V57H138.304ZM141.073 57V55.921C141.177 55.921 141.246 55.9687 141.281 56.064C141.316 56.1593 141.333 56.2893 141.333 56.454C141.333 56.6187 141.316 56.753 141.281 56.857C141.246 56.9523 141.177 57 141.073 57ZM143.863 57V55.921H145.332V57H143.863ZM145.332 57V55.921C145.445 55.921 145.514 55.9687 145.54 56.064C145.575 56.1593 145.592 56.2893 145.592 56.454C145.592 56.6187 145.575 56.753 145.54 56.857C145.514 56.9523 145.445 57 145.332 57ZM141.068 57V55.921H143.278L142.654 56.415V50.487H143.863V57H141.068ZM141.068 57C140.956 57 140.886 56.9523 140.86 56.857C140.826 56.753 140.808 56.6187 140.808 56.454C140.808 56.2893 140.826 56.1593 140.86 56.064C140.886 55.9687 140.956 55.921 141.068 55.921V57ZM142.719 47.523V46.366H143.811V47.523H142.719ZM141.692 49.317V48.056H142.888V49.317H141.692ZM143.629 49.317V48.056H144.825V49.317H143.629ZM152.796 57V55.921H154.187V57H152.796ZM145.334 57V55.921H152.341L151.574 56.493V53.802C151.574 53.23 151.509 52.7837 151.379 52.463C151.258 52.1423 151.041 51.9127 150.729 51.774C150.417 51.6353 149.992 51.566 149.455 51.566C149.091 51.566 148.731 51.592 148.376 51.644C148.021 51.696 147.743 51.7653 147.544 51.852L148.285 51.124C148.233 51.3233 148.181 51.579 148.129 51.891C148.077 52.203 148.034 52.541 147.999 52.905C147.964 53.2603 147.947 53.6157 147.947 53.971C147.947 54.3263 147.964 54.6773 147.999 55.024C148.034 55.3707 148.073 55.674 148.116 55.934C148.159 56.194 148.194 56.3717 148.22 56.467L147.063 56.792C147.028 56.6793 146.985 56.4843 146.933 56.207C146.89 55.9297 146.846 55.596 146.803 55.206C146.768 54.816 146.751 54.4043 146.751 53.971C146.751 53.5463 146.768 53.1347 146.803 52.736C146.846 52.3287 146.894 51.9603 146.946 51.631C147.007 51.3017 147.063 51.0373 147.115 50.838C147.314 50.76 147.622 50.682 148.038 50.604C148.463 50.526 148.935 50.487 149.455 50.487C150.192 50.487 150.807 50.5953 151.301 50.812C151.804 51.0287 152.176 51.3797 152.419 51.865C152.67 52.3417 152.796 52.9873 152.796 53.802V57H145.334ZM145.334 57C145.221 57 145.152 56.9523 145.126 56.857C145.091 56.753 145.074 56.6187 145.074 56.454C145.074 56.2893 145.091 56.1593 145.126 56.064C145.152 55.9687 145.221 55.921 145.334 55.921V57ZM154.187 57V55.921C154.3 55.921 154.369 55.9687 154.395 56.064C154.43 56.1593 154.447 56.2893 154.447 56.454C154.447 56.6187 154.43 56.753 154.395 56.857C154.369 56.9523 154.3 57 154.187 57ZM155.73 57V47.718H156.939V57H155.73ZM154.183 57V55.921H155.73V57H154.183ZM154.183 57C154.07 57 154.001 56.9523 153.975 56.857C153.94 56.753 153.923 56.6187 153.923 56.454C153.923 56.2893 153.94 56.1593 153.975 56.064C154.001 55.9687 154.07 55.921 154.183 55.921V57ZM159.137 57V47.718H160.346V57H159.137Z" fill="#4E5556"/>
</svg>
