<svg width="96" height="30" viewBox="0 0 96 30" fill="none" xmlns="http://www.w3.org/2000/svg">
<path d="M7.41 22.426C6.86 22.426 6.35767 22.3233 5.903 22.118C5.45567 21.9127 5.1 21.6267 4.836 21.26C4.572 20.9007 4.44 20.4863 4.44 20.017C4.44 19.863 4.45467 19.654 4.484 19.39C4.51333 19.126 4.54633 18.8363 4.583 18.521C4.627 18.2057 4.67467 17.8867 4.726 17.564C4.77733 17.234 4.825 16.9333 4.869 16.662L5.881 16.805C5.80767 17.3037 5.738 17.762 5.672 18.18C5.606 18.5907 5.55467 18.95 5.518 19.258C5.48867 19.5587 5.474 19.7897 5.474 19.951C5.474 20.281 5.55467 20.5597 5.716 20.787C5.87733 21.0217 6.101 21.2013 6.387 21.326C6.68033 21.4507 7.02133 21.513 7.41 21.513H9.973C10.5523 21.513 10.9997 21.3847 11.315 21.128C11.6377 20.8713 11.799 20.5193 11.799 20.072V14.55L12.228 14.913H10.49C10.094 14.913 9.786 14.9607 9.566 15.056C9.346 15.1513 9.19567 15.331 9.115 15.595C9.03433 15.859 8.994 16.244 8.994 16.75C8.994 17.256 9.03433 17.641 9.115 17.905C9.19567 18.169 9.346 18.3487 9.566 18.444C9.786 18.5393 10.094 18.587 10.49 18.587H11.799V19.5H10.49C9.852 19.5 9.34967 19.4047 8.983 19.214C8.61633 19.016 8.35233 18.7153 8.191 18.312C8.037 17.9013 7.96 17.3807 7.96 16.75C7.96 16.1267 8.037 15.6133 8.191 15.21C8.35233 14.7993 8.61633 14.495 8.983 14.297C9.34967 14.0917 9.852 13.989 10.49 13.989H12.822V20.072C12.822 20.578 12.69 21.007 12.426 21.359C12.1693 21.711 11.8247 21.975 11.392 22.151C10.9593 22.3343 10.4863 22.426 9.973 22.426H7.41ZM9.368 13.098V12.031H10.402V13.098H9.368ZM10.875 13.098V12.031H11.909V13.098H10.875ZM18.9485 19.5V18.587H20.1255V19.5H18.9485ZM16.2425 22.019C15.9785 22.019 15.6998 21.997 15.4065 21.953C15.1205 21.9163 14.8052 21.8613 14.4605 21.788L14.6145 20.963C15.0032 21.007 15.3258 21.04 15.5825 21.062C15.8392 21.084 16.0592 21.095 16.2425 21.095C16.8292 21.095 17.2545 20.985 17.5185 20.765C17.7898 20.545 17.9255 20.226 17.9255 19.808V14.638L18.3435 14.913H16.6165C16.2278 14.913 15.9235 14.9607 15.7035 15.056C15.4835 15.144 15.3295 15.3237 15.2415 15.595C15.1535 15.859 15.1095 16.2477 15.1095 16.761C15.1095 17.267 15.1535 17.652 15.2415 17.916C15.3295 18.1727 15.4798 18.3487 15.6925 18.444C15.9125 18.5393 16.2205 18.587 16.6165 18.587H17.9255V19.5H16.6165C15.9785 19.5 15.4762 19.4047 15.1095 19.214C14.7428 19.016 14.4788 18.7153 14.3175 18.312C14.1635 17.9013 14.0865 17.3843 14.0865 16.761C14.0865 16.1303 14.1635 15.6097 14.3175 15.199C14.4788 14.7883 14.7428 14.484 15.1095 14.286C15.4762 14.088 15.9785 13.989 16.6165 13.989H18.9485V19.797C18.9485 20.2663 18.8385 20.666 18.6185 20.996C18.3985 21.3333 18.0868 21.5863 17.6835 21.755C17.2802 21.931 16.7998 22.019 16.2425 22.019ZM20.1255 19.5V18.587C20.2208 18.587 20.2795 18.6273 20.3015 18.708C20.3308 18.7887 20.3455 18.8987 20.3455 19.038C20.3455 19.1773 20.3308 19.291 20.3015 19.379C20.2795 19.4597 20.2208 19.5 20.1255 19.5ZM28.66 19.5V18.587H29.837V19.5H28.66ZM26.097 19.5C25.833 19.5 25.5727 19.4523 25.316 19.357C25.0667 19.2543 24.8284 19.0967 24.601 18.884L25.25 18.202C25.4114 18.334 25.558 18.433 25.69 18.499C25.822 18.5577 25.9577 18.587 26.097 18.587H28.088L27.637 19.027V16.453C27.637 16.321 27.6224 16.1377 27.593 15.903C27.571 15.661 27.5344 15.3897 27.483 15.089C27.439 14.781 27.384 14.4693 27.318 14.154L28.319 13.989C28.3704 14.253 28.4217 14.5427 28.473 14.858C28.5244 15.1733 28.5684 15.474 28.605 15.76C28.6417 16.046 28.66 16.277 28.66 16.453V19.5H26.097ZM20.124 19.5V18.587H21.73L21.477 18.84V15.1H22.5V19.5H20.124ZM22.5 19.5V18.587H23.644C23.8934 18.587 24.0804 18.5503 24.205 18.477C24.3297 18.4037 24.4177 18.257 24.469 18.037C24.5204 17.817 24.546 17.4943 24.546 17.069V14.55H25.58V17.069C25.58 17.663 25.5104 18.1397 25.371 18.499C25.239 18.8583 25.0337 19.115 24.755 19.269C24.4764 19.423 24.106 19.5 23.644 19.5H22.5ZM20.124 19.5C20.0287 19.5 19.97 19.4597 19.948 19.379C19.9187 19.291 19.904 19.1773 19.904 19.038C19.904 18.8987 19.9187 18.7887 19.948 18.708C19.97 18.6273 20.0287 18.587 20.124 18.587V19.5ZM29.837 19.5V18.587C29.9324 18.587 29.991 18.6273 30.013 18.708C30.0424 18.7887 30.057 18.8987 30.057 19.038C30.057 19.1773 30.0424 19.291 30.013 19.379C29.991 19.4597 29.9324 19.5 29.837 19.5ZM32.2 19.5V18.587H33.443V19.5H32.2ZM33.443 19.5V18.587C33.5383 18.587 33.597 18.6273 33.619 18.708C33.6483 18.7887 33.663 18.8987 33.663 19.038C33.663 19.1773 33.6483 19.291 33.619 19.379C33.597 19.4597 33.5383 19.5 33.443 19.5ZM29.835 19.5V18.587H31.705L31.177 19.005V13.989H32.2V19.5H29.835ZM29.835 19.5C29.7396 19.5 29.681 19.4597 29.659 19.379C29.6296 19.291 29.615 19.1773 29.615 19.038C29.615 18.8987 29.6296 18.7887 29.659 18.708C29.681 18.6273 29.7396 18.587 29.835 18.587V19.5ZM30.275 13.098V12.031H31.309V13.098H30.275ZM31.782 13.098V12.031H32.816V13.098H31.782ZM34.7533 19.5V11.646H35.7763V19.5H34.7533ZM33.4443 19.5V18.587H34.7533V19.5H33.4443ZM33.4443 19.5C33.349 19.5 33.2903 19.4597 33.2683 19.379C33.239 19.291 33.2243 19.1773 33.2243 19.038C33.2243 18.8987 33.239 18.7887 33.2683 18.708C33.2903 18.6273 33.349 18.587 33.4443 18.587V19.5ZM37.6365 19.5V11.646H38.6595V19.5H37.6365ZM45.0725 19.5C44.4345 19.5 43.9322 19.4047 43.5655 19.214C43.1989 19.016 42.9349 18.7153 42.7735 18.312C42.6195 17.9013 42.5425 17.3843 42.5425 16.761C42.5425 16.1303 42.6195 15.6097 42.7735 15.199C42.9349 14.7883 43.1989 14.484 43.5655 14.286C43.9322 14.088 44.4345 13.989 45.0725 13.989H47.4045V18.994H46.3815V14.55L46.7995 14.913H45.0725C44.6839 14.913 44.3795 14.9607 44.1595 15.056C43.9395 15.144 43.7855 15.3237 43.6975 15.595C43.6095 15.859 43.5655 16.2477 43.5655 16.761C43.5655 17.267 43.6095 17.652 43.6975 17.916C43.7855 18.1727 43.9359 18.3487 44.1485 18.444C44.3685 18.5393 44.6765 18.587 45.0725 18.587H48.5815V19.5H45.0725ZM48.5815 19.5V18.587C48.6769 18.587 48.7355 18.6273 48.7575 18.708C48.7869 18.7887 48.8015 18.8987 48.8015 19.038C48.8015 19.1773 48.7869 19.291 48.7575 19.379C48.7355 19.4597 48.6769 19.5 48.5815 19.5ZM43.9285 13.098V12.031H44.9625V13.098H43.9285ZM45.4355 13.098V12.031H46.4695V13.098H45.4355ZM50.9121 19.5V18.587H52.1001V19.5H50.9121ZM49.8891 19.5V11.646H50.9121V19.5H49.8891ZM48.5801 19.5V18.587H49.8891V19.5H48.5801ZM48.5801 19.5C48.4847 19.5 48.4261 19.4597 48.4041 19.379C48.3747 19.291 48.3601 19.1773 48.3601 19.038C48.3601 18.8987 48.3747 18.7887 48.4041 18.708C48.4261 18.6273 48.4847 18.587 48.5801 18.587V19.5ZM52.1001 19.5V18.587C52.1881 18.587 52.2467 18.6273 52.2761 18.708C52.3054 18.7887 52.3201 18.8987 52.3201 19.038C52.3201 19.1773 52.3054 19.291 52.2761 19.379C52.2467 19.4597 52.1881 19.5 52.1001 19.5ZM58.0765 19.5C57.8125 19.5 57.5522 19.4523 57.2955 19.357C57.0462 19.2543 56.8078 19.0967 56.5805 18.884L57.2295 18.202C57.3908 18.334 57.5375 18.433 57.6695 18.499C57.8015 18.5577 57.9372 18.587 58.0765 18.587H60.0675L59.6165 19.027V16.453C59.6165 16.321 59.6018 16.1377 59.5725 15.903C59.5505 15.661 59.5138 15.3897 59.4625 15.089C59.4185 14.781 59.3635 14.4693 59.2975 14.154L60.2985 13.989C60.3498 14.253 60.4012 14.5427 60.4525 14.858C60.5038 15.1733 60.5478 15.474 60.5845 15.76C60.6212 16.046 60.6395 16.277 60.6395 16.453V19.5H58.0765ZM52.1035 19.5V18.587H53.7095L53.4565 18.84V15.1H54.4795V19.5H52.1035ZM54.4795 19.5V18.587H55.6235C55.8728 18.587 56.0598 18.5503 56.1845 18.477C56.3092 18.4037 56.3972 18.257 56.4485 18.037C56.4998 17.817 56.5255 17.4943 56.5255 17.069V14.55H57.5595V17.069C57.5595 17.663 57.4898 18.1397 57.3505 18.499C57.2185 18.8583 57.0132 19.115 56.7345 19.269C56.4558 19.423 56.0855 19.5 55.6235 19.5H54.4795ZM52.1035 19.5C52.0082 19.5 51.9495 19.4597 51.9275 19.379C51.8982 19.291 51.8835 19.1773 51.8835 19.038C51.8835 18.8987 51.8982 18.7887 51.9275 18.708C51.9495 18.6273 52.0082 18.587 52.1035 18.587V19.5Z" fill="#1B5E37"/>
<circle cx="81" cy="15" r="15" fill="#1B5E37"/>
<path d="M83.8333 21.9998C84.4776 21.9998 85 21.4775 85 20.8332C85 20.1888 84.4776 19.6665 83.8333 19.6665C83.189 19.6665 82.6666 20.1888 82.6666 20.8332C82.6666 21.4775 83.189 21.9998 83.8333 21.9998Z" fill="white"/>
<path d="M78.5 21.9998C79.1444 21.9998 79.6667 21.4775 79.6667 20.8332C79.6667 20.1888 79.1444 19.6665 78.5 19.6665C77.8557 19.6665 77.3334 20.1888 77.3334 20.8332C77.3334 21.4775 77.8557 21.9998 78.5 21.9998Z" fill="white"/>
<path d="M76.2267 9.62683L76.0934 11.2602C76.0667 11.5735 76.3134 11.8335 76.6267 11.8335H86.8334C87.1134 11.8335 87.3467 11.6202 87.3667 11.3402C87.4534 10.1602 86.5534 9.20016 85.3734 9.20016H77.18C77.1134 8.90683 76.98 8.62683 76.7734 8.3935C76.44 8.04016 75.9734 7.8335 75.4934 7.8335H74.3334C74.06 7.8335 73.8334 8.06016 73.8334 8.3335C73.8334 8.60683 74.06 8.8335 74.3334 8.8335H75.4934C75.7 8.8335 75.8934 8.92016 76.0334 9.06683C76.1734 9.22016 76.24 9.42016 76.2267 9.62683Z" fill="white"/>
<path d="M86.6733 12.8335H76.4467C76.1667 12.8335 75.94 13.0468 75.9133 13.3202L75.6733 16.2202C75.58 17.3602 76.4733 18.3335 77.6133 18.3335H85.0267C86.0267 18.3335 86.9067 17.5135 86.98 16.5135L87.2 13.4002C87.2267 13.0935 86.9867 12.8335 86.6733 12.8335Z" fill="white"/>
</svg>
