<svg width="76" height="30" viewBox="0 0 76 30" fill="none" xmlns="http://www.w3.org/2000/svg">
<path d="M3.806 19.5C2.69133 19.5 1.85167 19.2983 1.287 18.895C0.722333 18.4917 0.44 17.8757 0.44 17.047C0.44 16.871 0.451 16.684 0.473 16.486C0.502333 16.2807 0.531667 16.0827 0.561 15.892C0.597667 15.7013 0.630667 15.5363 0.66 15.397C0.689333 15.2577 0.711333 15.1587 0.726 15.1L1.727 15.287C1.705 15.4043 1.672 15.562 1.628 15.76C1.59133 15.958 1.55467 16.1707 1.518 16.398C1.48133 16.6253 1.463 16.8417 1.463 17.047C1.463 17.4137 1.54 17.7107 1.694 17.938C1.85533 18.1653 2.10833 18.3303 2.453 18.433C2.79767 18.5357 3.256 18.587 3.828 18.587H6.974V13.989H8.008V19.5H3.806ZM2.948 14.165V13.098H3.982V14.165H2.948ZM4.455 14.165V13.098H5.489V14.165H4.455ZM10.8871 19.5V18.587H12.2071V19.5H10.8871ZM9.86408 19.5V11.646H10.8871V19.5H9.86408ZM12.2071 19.5V18.587C12.2951 18.587 12.3537 18.6273 12.3831 18.708C12.4124 18.7887 12.4271 18.8987 12.4271 19.038C12.4271 19.1773 12.4124 19.291 12.3831 19.379C12.3537 19.4597 12.2951 19.5 12.2071 19.5ZM17.7141 19.5V18.587H18.9021V19.5H17.7141ZM12.2031 19.5V18.587H17.0211L16.6911 18.862V16.321C16.6911 15.859 16.5445 15.5107 16.2511 15.276C15.9651 15.0413 15.5178 14.924 14.9091 14.924C14.7258 14.924 14.4618 14.9387 14.1171 14.968C13.7798 14.9973 13.4205 15.0413 13.0391 15.1L12.9291 14.264C13.2298 14.1907 13.5561 14.1283 13.9081 14.077C14.2601 14.0183 14.6011 13.989 14.9311 13.989C15.5031 13.989 15.9945 14.0807 16.4051 14.264C16.8231 14.4473 17.1458 14.715 17.3731 15.067C17.6005 15.4117 17.7141 15.8297 17.7141 16.321V19.5H12.2031ZM12.2031 19.5C12.1078 19.5 12.0491 19.4597 12.0271 19.379C11.9978 19.291 11.9831 19.1773 11.9831 19.038C11.9831 18.8987 11.9978 18.7887 12.0271 18.708C12.0491 18.6273 12.1078 18.587 12.2031 18.587V19.5ZM18.9021 19.5V18.587C18.9901 18.587 19.0488 18.6273 19.0781 18.708C19.1075 18.7887 19.1221 18.8987 19.1221 19.038C19.1221 19.1773 19.1075 19.291 19.0781 19.379C19.0488 19.4597 18.9901 19.5 18.9021 19.5ZM14.4801 21.579V20.512H15.5141V21.579H14.4801ZM21.2713 19.5V18.587H22.5143V19.5H21.2713ZM22.5143 19.5V18.587C22.6096 18.587 22.6683 18.6273 22.6903 18.708C22.7196 18.7887 22.7343 18.8987 22.7343 19.038C22.7343 19.1773 22.7196 19.291 22.6903 19.379C22.6683 19.4597 22.6096 19.5 22.5143 19.5ZM18.9062 19.5V18.587H20.7763L20.2483 19.005V13.989H21.2713V19.5H18.9062ZM18.9062 19.5C18.8109 19.5 18.7522 19.4597 18.7302 19.379C18.7009 19.291 18.6862 19.1773 18.6862 19.038C18.6862 18.8987 18.7009 18.7887 18.7302 18.708C18.7522 18.6273 18.8109 18.587 18.9062 18.587V19.5ZM19.3463 13.098V12.031H20.3803V13.098H19.3463ZM20.8533 13.098V12.031H21.8873V13.098H20.8533ZM24.7266 19.5V18.587H25.9036V19.5H24.7266ZM22.5156 19.5V18.587H24.2206L23.6926 19.005V13.989H24.7266V19.5H22.5156ZM22.5156 19.5C22.4203 19.5 22.3616 19.4597 22.3396 19.379C22.3103 19.291 22.2956 19.1773 22.2956 19.038C22.2956 18.8987 22.3103 18.7887 22.3396 18.708C22.3616 18.6273 22.4203 18.587 22.5156 18.587V19.5ZM25.9036 19.5V18.587C25.999 18.587 26.0576 18.6273 26.0796 18.708C26.109 18.7887 26.1236 18.8987 26.1236 19.038C26.1236 19.1773 26.109 19.291 26.0796 19.379C26.0576 19.4597 25.999 19.5 25.9036 19.5ZM23.6926 12.999V11.932H24.7266V12.999H23.6926ZM32.2134 19.5V18.587H33.3904V19.5H32.2134ZM25.8994 19.5V18.587H31.8284L31.1794 19.071V16.794C31.1794 16.31 31.1244 15.9323 31.0144 15.661C30.9117 15.3897 30.7284 15.1953 30.4644 15.078C30.2004 14.9607 29.8411 14.902 29.3864 14.902C29.0784 14.902 28.7741 14.924 28.4734 14.968C28.1727 15.012 27.9381 15.0707 27.7694 15.144L28.3964 14.528C28.3524 14.6967 28.3084 14.913 28.2644 15.177C28.2204 15.441 28.1837 15.727 28.1544 16.035C28.1251 16.3357 28.1104 16.6363 28.1104 16.937C28.1104 17.2377 28.1251 17.5347 28.1544 17.828C28.1837 18.1213 28.2167 18.378 28.2534 18.598C28.2901 18.818 28.3194 18.9683 28.3414 19.049L27.3624 19.324C27.3331 19.2287 27.2964 19.0637 27.2524 18.829C27.2157 18.5943 27.1791 18.312 27.1424 17.982C27.1131 17.652 27.0984 17.3037 27.0984 16.937C27.0984 16.5777 27.1131 16.2293 27.1424 15.892C27.1791 15.5473 27.2194 15.2357 27.2634 14.957C27.3147 14.6783 27.3624 14.4547 27.4064 14.286C27.5751 14.22 27.8354 14.154 28.1874 14.088C28.5467 14.022 28.9464 13.989 29.3864 13.989C30.0097 13.989 30.5304 14.0807 30.9484 14.264C31.3737 14.4473 31.6891 14.7443 31.8944 15.155C32.1071 15.5583 32.2134 16.1047 32.2134 16.794V19.5H25.8994ZM25.8994 19.5C25.8041 19.5 25.7454 19.4597 25.7234 19.379C25.6941 19.291 25.6794 19.1773 25.6794 19.038C25.6794 18.8987 25.6941 18.7887 25.7234 18.708C25.7454 18.6273 25.8041 18.587 25.8994 18.587V19.5ZM33.3904 19.5V18.587C33.4857 18.587 33.5444 18.6273 33.5664 18.708C33.5957 18.7887 33.6104 18.8987 33.6104 19.038C33.6104 19.1773 33.5957 19.291 33.5664 19.379C33.5444 19.4597 33.4857 19.5 33.3904 19.5ZM34.6957 19.5V11.646H35.7187V19.5H34.6957ZM33.3867 19.5V18.587H34.6957V19.5H33.3867ZM33.3867 19.5C33.2914 19.5 33.2327 19.4597 33.2107 19.379C33.1814 19.291 33.1667 19.1773 33.1667 19.038C33.1667 18.8987 33.1814 18.7887 33.2107 18.708C33.2327 18.6273 33.2914 18.587 33.3867 18.587V19.5ZM37.5789 19.5V11.646H38.6019V19.5H37.5789Z" fill="#1B5E37"/>
<circle cx="61" cy="15" r="15" fill="#1B5E37"/>
<path d="M67.6667 12.6802V9.6535C67.6667 8.7135 67.24 8.3335 66.18 8.3335H63.4867C62.4267 8.3335 62 8.7135 62 9.6535V12.6735C62 13.6202 62.4267 13.9935 63.4867 13.9935H66.18C67.24 14.0002 67.6667 13.6202 67.6667 12.6802Z" fill="white"/>
<path d="M67.6667 20.18V17.4867C67.6667 16.4267 67.24 16 66.18 16H63.4867C62.4267 16 62 16.4267 62 17.4867V20.18C62 21.24 62.4267 21.6667 63.4867 21.6667H66.18C67.24 21.6667 67.6667 21.24 67.6667 20.18Z" fill="white"/>
<path d="M60 12.6802V9.6535C60 8.7135 59.5734 8.3335 58.5134 8.3335H55.82C54.76 8.3335 54.3334 8.7135 54.3334 9.6535V12.6735C54.3334 13.6202 54.76 13.9935 55.82 13.9935H58.5134C59.5734 14.0002 60 13.6202 60 12.6802Z" fill="white"/>
<path d="M60 20.18V17.4867C60 16.4267 59.5734 16 58.5134 16H55.82C54.76 16 54.3334 16.4267 54.3334 17.4867V20.18C54.3334 21.24 54.76 21.6667 55.82 21.6667H58.5134C59.5734 21.6667 60 21.24 60 20.18Z" fill="white"/>
</svg>
