<svg width="81" height="30" viewBox="0 0 81 30" fill="none" xmlns="http://www.w3.org/2000/svg">
<rect width="81" height="30" rx="15" fill="#EEEEEE"/>
<path d="M9.97 19.5C9.332 19.5 8.82967 19.4047 8.463 19.214C8.09633 19.016 7.83233 18.7153 7.671 18.312C7.517 17.9013 7.44 17.3843 7.44 16.761C7.44 16.1303 7.517 15.6097 7.671 15.199C7.83233 14.7883 8.09633 14.484 8.463 14.286C8.82967 14.088 9.332 13.989 9.97 13.989H12.302V18.994H11.279V14.55L11.697 14.913H9.97C9.58133 14.913 9.277 14.9607 9.057 15.056C8.837 15.144 8.683 15.3237 8.595 15.595C8.507 15.859 8.463 16.2477 8.463 16.761C8.463 17.267 8.507 17.652 8.595 17.916C8.683 18.1727 8.83333 18.3487 9.046 18.444C9.266 18.5393 9.574 18.587 9.97 18.587H13.479V19.5H9.97ZM13.479 19.5V18.587C13.5743 18.587 13.633 18.6273 13.655 18.708C13.6843 18.7887 13.699 18.8987 13.699 19.038C13.699 19.1773 13.6843 19.291 13.655 19.379C13.633 19.4597 13.5743 19.5 13.479 19.5ZM8.826 13.098V12.031H9.86V13.098H8.826ZM10.333 13.098V12.031H11.367V13.098H10.333ZM15.8425 19.5V18.587H17.0855V19.5H15.8425ZM17.0855 19.5V18.587C17.1809 18.587 17.2395 18.6273 17.2615 18.708C17.2909 18.7887 17.3055 18.8987 17.3055 19.038C17.3055 19.1773 17.2909 19.291 17.2615 19.379C17.2395 19.4597 17.1809 19.5 17.0855 19.5ZM13.4775 19.5V18.587H15.3475L14.8195 19.005V13.989H15.8425V19.5H13.4775ZM13.4775 19.5C13.3822 19.5 13.3235 19.4597 13.3015 19.379C13.2722 19.291 13.2575 19.1773 13.2575 19.038C13.2575 18.8987 13.2722 18.7887 13.3015 18.708C13.3235 18.6273 13.3822 18.587 13.4775 18.587V19.5ZM13.9175 21.568V20.501H14.9515V21.568H13.9175ZM15.4245 21.568V20.501H16.4585V21.568H15.4245ZM25.6229 19.5V18.587H26.7999V19.5H25.6229ZM23.0599 19.5C22.7959 19.5 22.5356 19.4523 22.2789 19.357C22.0296 19.2543 21.7912 19.0967 21.5639 18.884L22.2129 18.202C22.3742 18.334 22.5209 18.433 22.6529 18.499C22.7849 18.5577 22.9206 18.587 23.0599 18.587H25.0509L24.5999 19.027V16.453C24.5999 16.321 24.5852 16.1377 24.5559 15.903C24.5339 15.661 24.4972 15.3897 24.4459 15.089C24.4019 14.781 24.3469 14.4693 24.2809 14.154L25.2819 13.989C25.3332 14.253 25.3846 14.5427 25.4359 14.858C25.4872 15.1733 25.5312 15.474 25.5679 15.76C25.6046 16.046 25.6229 16.277 25.6229 16.453V19.5H23.0599ZM17.0869 19.5V18.587H18.6929L18.4399 18.84V15.1H19.4629V19.5H17.0869ZM19.4629 19.5V18.587H20.6069C20.8562 18.587 21.0432 18.5503 21.1679 18.477C21.2926 18.4037 21.3806 18.257 21.4319 18.037C21.4832 17.817 21.5089 17.4943 21.5089 17.069V14.55H22.5429V17.069C22.5429 17.663 22.4732 18.1397 22.3339 18.499C22.2019 18.8583 21.9966 19.115 21.7179 19.269C21.4392 19.423 21.0689 19.5 20.6069 19.5H19.4629ZM17.0869 19.5C16.9916 19.5 16.9329 19.4597 16.9109 19.379C16.8816 19.291 16.8669 19.1773 16.8669 19.038C16.8669 18.8987 16.8816 18.7887 16.9109 18.708C16.9329 18.6273 16.9916 18.587 17.0869 18.587V19.5ZM26.7999 19.5V18.587C26.8952 18.587 26.9539 18.6273 26.9759 18.708C27.0052 18.7887 27.0199 18.8987 27.0199 19.038C27.0199 19.1773 27.0052 19.291 26.9759 19.379C26.9539 19.4597 26.8952 19.5 26.7999 19.5ZM29.1629 19.5V18.587H30.4059V19.5H29.1629ZM30.4059 19.5V18.587C30.5012 18.587 30.5599 18.6273 30.5819 18.708C30.6112 18.7887 30.6259 18.8987 30.6259 19.038C30.6259 19.1773 30.6112 19.291 30.5819 19.379C30.5599 19.4597 30.5012 19.5 30.4059 19.5ZM26.7979 19.5V18.587H28.6679L28.1399 19.005V13.989H29.1629V19.5H26.7979ZM26.7979 19.5C26.7025 19.5 26.6439 19.4597 26.6219 19.379C26.5925 19.291 26.5779 19.1773 26.5779 19.038C26.5779 18.8987 26.5925 18.7887 26.6219 18.708C26.6439 18.6273 26.7025 18.587 26.7979 18.587V19.5ZM27.2379 21.568V20.501H28.2719V21.568H27.2379ZM28.7449 21.568V20.501H29.7789V21.568H28.7449ZM30.4072 19.5V18.587H32.1122L31.5842 19.005V13.989H32.6182V19.5H30.4072ZM30.4072 19.5C30.3119 19.5 30.2532 19.4597 30.2312 19.379C30.2019 19.291 30.1872 19.1773 30.1872 19.038C30.1872 18.8987 30.2019 18.7887 30.2312 18.708C30.2532 18.6273 30.3119 18.587 30.4072 18.587V19.5ZM31.5512 12.977C31.4266 12.823 31.3312 12.6763 31.2652 12.537C31.1992 12.3903 31.1662 12.2363 31.1662 12.075C31.1662 11.855 31.2212 11.657 31.3312 11.481C31.4486 11.305 31.5989 11.1657 31.7822 11.063C31.9729 10.9603 32.1746 10.909 32.3872 10.909C32.5119 10.909 32.6366 10.9273 32.7612 10.964C32.8859 11.0007 32.9959 11.0483 33.0912 11.107L32.7832 11.646C32.7246 11.6093 32.6659 11.5873 32.6072 11.58C32.5486 11.5653 32.4899 11.558 32.4312 11.558C32.2552 11.558 32.1196 11.6057 32.0242 11.701C31.9289 11.7963 31.8812 11.921 31.8812 12.075C31.8812 12.1703 31.8996 12.262 31.9362 12.35C31.9729 12.4307 32.0316 12.5223 32.1122 12.625L31.5512 12.977ZM30.9462 12.999V12.361H33.2452V12.999H30.9462ZM35.5585 19.5V18.587H36.9665V19.5H35.5585ZM33.6665 22.019C33.5712 22.019 33.4722 22.0117 33.3695 21.997C33.2595 21.9897 33.1495 21.9823 33.0395 21.975L33.1275 21.062C33.2375 21.0693 33.3402 21.0767 33.4355 21.084C33.5235 21.0913 33.5968 21.095 33.6555 21.095C33.9855 21.095 34.2495 20.9703 34.4475 20.721C34.6528 20.4717 34.7555 20.1233 34.7555 19.676V13.989H35.7895V19.676C35.7895 20.138 35.6978 20.545 35.5145 20.897C35.3312 21.249 35.0818 21.524 34.7665 21.722C34.4512 21.92 34.0845 22.019 33.6665 22.019ZM36.9665 19.5V18.587C37.0618 18.587 37.1205 18.6273 37.1425 18.708C37.1718 18.7887 37.1865 18.8987 37.1865 19.038C37.1865 19.1773 37.1718 19.291 37.1425 19.379C37.1205 19.4597 37.0618 19.5 36.9665 19.5ZM38.2797 19.5V11.646H39.3027V19.5H38.2797ZM36.9707 19.5V18.587H38.2797V19.5H36.9707ZM36.9707 19.5C36.8754 19.5 36.8167 19.4597 36.7947 19.379C36.7654 19.291 36.7507 19.1773 36.7507 19.038C36.7507 18.8987 36.7654 18.7887 36.7947 18.708C36.8167 18.6273 36.8754 18.587 36.9707 18.587V19.5ZM41.1629 19.5V11.646H42.1859V19.5H41.1629Z" fill="#1B5E37"/>
<circle cx="66" cy="15" r="15" fill="#1B5E37"/>
<path d="M71.8867 12.3399L67.52 8.8466C66.6667 8.1666 65.3333 8.15993 64.4867 8.83993L60.12 12.3399C59.4933 12.8399 59.1133 13.8399 59.2467 14.6266L60.0867 19.6533C60.28 20.7799 61.3267 21.6666 62.4667 21.6666H69.5333C70.66 21.6666 71.7267 20.7599 71.92 19.6466L72.76 14.6199C72.88 13.8399 72.5 12.8399 71.8867 12.3399ZM66.5 18.9999C66.5 19.2733 66.2733 19.4999 66 19.4999C65.7267 19.4999 65.5 19.2733 65.5 18.9999V16.9999C65.5 16.7266 65.7267 16.4999 66 16.4999C66.2733 16.4999 66.5 16.7266 66.5 16.9999V18.9999Z" fill="white"/>
</svg>
