<svg width="79" height="30" viewBox="0 0 79 30" fill="none" xmlns="http://www.w3.org/2000/svg">
<rect x="0.5" width="78" height="30" rx="15" fill="#EEEEEE"/>
<path d="M22.219 19.5H20.866V19.555C20.866 20.3983 20.6497 21.0547 20.217 21.524C19.7917 21.9933 19.183 22.228 18.391 22.228H15.443C14.915 22.228 14.42 22.129 13.958 21.931C13.5033 21.7403 13.1367 21.458 12.858 21.084C12.5793 20.7173 12.44 20.2883 12.44 19.797C12.44 19.357 12.5353 18.5723 12.726 17.443L13.705 17.597C13.5583 18.609 13.485 19.2763 13.485 19.599C13.485 19.929 13.5693 20.2223 13.738 20.479C13.9067 20.7357 14.134 20.9337 14.42 21.073C14.7133 21.2197 15.036 21.293 15.388 21.293H18.325C18.8163 21.293 19.1867 21.1463 19.436 20.853C19.6853 20.5597 19.81 20.1527 19.81 19.632V19.5H19.612C19.3407 19.5 19.084 19.4743 18.842 19.423C18.6 19.3717 18.369 19.2727 18.149 19.126L18.589 18.334C18.7357 18.4367 18.886 18.5027 19.04 18.532C19.194 18.554 19.414 18.565 19.7 18.565H22.219V19.5ZM15.476 23.02H16.411V24.076H15.476V23.02ZM16.95 23.02H17.874V24.076H16.95V23.02ZM24.8354 14V19.5H22.1514V18.565H23.7904V14H24.8354ZM23.8234 20.38H24.8244V21.458H23.8234V20.38ZM28.7325 18.565V19.5H26.6425V11.668H27.6875V18.565H28.7325ZM38.1853 18.565V19.5H35.0613C34.6067 19.5 34.1997 19.3533 33.8403 19.06C33.569 19.3533 33.2133 19.5 32.7733 19.5H28.7363V18.565H30.4853V14.55H31.5303V18.565H32.4323C32.755 18.565 32.9897 18.4293 33.1363 18.158C33.2903 17.8867 33.3673 17.5457 33.3673 17.135V14.55H34.4123V17.124C34.4123 17.542 34.3647 17.916 34.2693 18.246C34.372 18.3267 34.4967 18.4 34.6433 18.466C34.79 18.532 34.9367 18.565 35.0833 18.565H36.1393V16.442C36.1393 15.9287 36.0807 15.1257 35.9633 14.033L36.8433 14C36.9313 14.4327 37.0083 14.8873 37.0743 15.364C37.1477 15.8333 37.1843 16.1927 37.1843 16.442V18.565H38.1853ZM41.6985 13.89C42.2778 13.89 42.7325 14.033 43.0625 14.319C43.3925 14.5977 43.5575 15.0743 43.5575 15.749V19.5H38.1895V18.565H42.5235V15.859C42.5235 15.155 42.1641 14.803 41.4455 14.803C41.1228 14.803 40.3638 14.8617 39.1685 14.979L39.1355 14.242C39.5315 14.1467 39.9751 14.066 40.4665 14C40.9651 13.9267 41.3758 13.89 41.6985 13.89Z" fill="#1B5E37"/>
<circle cx="64" cy="15" r="15" fill="#1B5E37"/>
<path d="M64 14.9997C65.841 14.9997 67.3334 13.5073 67.3334 11.6663C67.3334 9.82539 65.841 8.33301 64 8.33301C62.1591 8.33301 60.6667 9.82539 60.6667 11.6663C60.6667 13.5073 62.1591 14.9997 64 14.9997Z" fill="white"/>
<path d="M64 16.667C60.66 16.667 57.94 18.907 57.94 21.667C57.94 21.8537 58.0867 22.0003 58.2733 22.0003H69.7267C69.9133 22.0003 70.06 21.8537 70.06 21.667C70.06 18.907 67.34 16.667 64 16.667Z" fill="white"/>
</svg>
